<?xml version="1.0" standalone="no"?>
<!DOCTYPE svg PUBLIC "-//W3C//DTD SVG 1.1//EN" "http://www.w3.org/Graphics/SVG/1.1/DTD/svg11.dtd" >
<svg xmlns="http://www.w3.org/2000/svg" xmlns:xlink="http://www.w3.org/1999/xlink" version="1.1">
<metadata>
Created by FontForge 20170731 at Thu Apr 18 00:22:27 2019
 By Aleksey,,,
(c) 2019 House Industries/Brand Design Co., Inc. All Rights Reserved.
</metadata>
<defs>
<font id="STIHLContrafaceText" horiz-adv-x="510" >
  <font-face 
    font-family="STIHL Contraface Text"
    font-weight="400"
    font-stretch="normal"
    units-per-em="1000"
    panose-1="2 11 5 3 2 2 2 2 1 2"
    ascent="800"
    descent="-200"
    x-height="414"
    cap-height="680"
    bbox="-298 -257 5511 963"
    underline-thickness="20"
    underline-position="-173"
    unicode-range="U+0020-FB04"
  />
<missing-glyph horiz-adv-x="247" 
 />
    <glyph glyph-name="uniFB00" unicode="ff" horiz-adv-x="582" 
d="M106 0v355h-67v59h67v168q0 67 30.5 100t83.5 33q68 0 102 -44l-45 -44q-20 25 -50 25q-51 0 -51 -70v-168h186v188q0 67 31 100t84 33q70 0 105 -51l-46 -41q-22 29 -53 29q-51 0 -51 -70v-188h111v-59h-111v-355h-70v355h-186v-355h-70z" />
    <glyph glyph-name="uniFB01" unicode="fi" horiz-adv-x="513" 
d="M106 0v355h-67v59h67v188q0 67 31 100t85 33q64 0 100 -45l-44 -42q-22 24 -51 24q-51 0 -51 -70v-188h256v-414h-70v355h-186v-355h-70zM397 534q-20 0 -35 14t-15 35t15 35.5t35 14.5t35 -14.5t15 -35.5t-15 -35t-35 -14z" />
    <glyph glyph-name="uniFB02" unicode="fl" horiz-adv-x="517" 
d="M106 0v355h-67v59h67v188q0 67 30.5 100t82.5 33q59 0 96 -41l-44 -44q-19 22 -46 22q-49 0 -49 -70v-188h106v-59h-106v-355h-70zM362 0v722h70v-722h-70z" />
    <glyph glyph-name="uniFB03" unicode="ffi" horiz-adv-x="769" 
d="M106 0v355h-67v59h67v168q0 67 30.5 100t83.5 33q68 0 102 -44l-45 -44q-20 25 -50 25q-51 0 -51 -70v-168h186v188q0 67 31 100t85 33q64 0 100 -45l-44 -42q-22 24 -51 24q-51 0 -51 -70v-188h256v-414h-70v355h-186v-355h-70v355h-186v-355h-70zM653 534q-20 0 -35 14
t-15 35t15 35.5t35 14.5t35 -14.5t15 -35.5t-15 -35t-35 -14z" />
    <glyph glyph-name="uniFB04" unicode="ffl" horiz-adv-x="773" 
d="M106 0v355h-67v59h67v168q0 67 30.5 100t83.5 33q68 0 102 -44l-45 -44q-20 25 -50 25q-51 0 -51 -70v-168h186v188q0 67 30.5 100t82.5 33q59 0 96 -41l-44 -44q-19 22 -46 22q-49 0 -49 -70v-188h107v-59h-107v-355h-70v355h-186v-355h-70zM618 0v722h70v-722h-70z" />
    <glyph glyph-name="f_b" unicode="fb" horiz-adv-x="844" 
d="M106 0v355h-67v59h67v188q0 67 30.5 100t82.5 33q59 0 96 -41l-44 -44q-19 22 -46 22q-49 0 -49 -70v-188h106v-59h-106v-355h-70zM592 -8q-55 0 -98 26.5t-64 70.5l2 -89h-70v722h70v-393q50 94 161 94q84 0 141 -61.5t57 -153.5q0 -93 -57.5 -154.5t-141.5 -61.5z
M576 53q64 0 103 43.5t39 111.5t-39 110.5t-103 42.5q-66 0 -106.5 -43t-40.5 -110q0 -68 40.5 -111.5t106.5 -43.5z" />
    <glyph glyph-name="f_f_b" unicode="ffb" horiz-adv-x="1100" 
d="M106 0v355h-67v59h67v168q0 67 30.5 100t83.5 33q68 0 102 -44l-45 -44q-20 25 -50 25q-51 0 -51 -70v-168h186v188q0 67 30.5 100t82.5 33q59 0 96 -41l-44 -44q-19 22 -46 22q-49 0 -49 -70v-188h107v-59h-107v-355h-70v355h-186v-355h-70zM848 -8q-55 0 -98 26.5
t-64 70.5l2 -89h-70v722h70v-393q50 94 161 94q84 0 141 -61.5t57 -153.5q0 -93 -57 -154.5t-142 -61.5zM832 53q64 0 103 43.5t39 111.5t-39 110.5t-103 42.5q-66 0 -106.5 -43t-40.5 -110q0 -68 40.5 -111.5t106.5 -43.5z" />
    <glyph glyph-name="f_f_f" unicode="fff" horiz-adv-x="839" 
d="M618 355h-186v-355h-70v355h-186v-355h-70v355h-67v59h67v168q0 67 30.5 100t83.5 33q68 0 102 -44l-45 -44q-20 25 -50 25q-51 0 -51 -70v-168h186v178q0 67 30.5 100t83.5 33q68 0 102 -44l-45 -44q-20 25 -50 25q-51 0 -51 -70v-178h186v188q0 67 31 100t84 33
q70 0 105 -51l-46 -41q-22 29 -53 29q-51 0 -51 -70v-188h111v-59h-111v-355h-70v355z" />
    <glyph glyph-name="f_f_f_i" unicode="fffi" horiz-adv-x="1025" 
d="M362 355h-186v-355h-70v355h-67v59h67v168q0 67 30.5 100t83.5 33q68 0 102 -44l-45 -44q-20 25 -50 25q-51 0 -51 -70v-168h186v178q0 67 30.5 100t83.5 33q68 0 102 -44l-45 -44q-20 25 -50 25q-51 0 -51 -70v-178h186v188q0 67 31 100t85 33q64 0 100 -45l-44 -42
q-22 24 -51 24q-51 0 -51 -70v-188h256v-414h-70v355h-186v-355h-70v355h-186v-355h-70v355zM909 534q-20 0 -35 14t-15 35t15 35.5t35 14.5t35 -14.5t15 -35.5t-15 -35t-35 -14z" />
    <glyph glyph-name="f_f_f_l" unicode="fffl" horiz-adv-x="1029" 
d="M362 355h-186v-355h-70v355h-67v59h67v168q0 67 30.5 100t83.5 33q68 0 102 -44l-45 -44q-20 25 -50 25q-51 0 -51 -70v-168h186v178q0 67 30.5 100t83.5 33q68 0 102 -44l-45 -44q-20 25 -50 25q-51 0 -51 -70v-178h186v188q0 67 30.5 100t82.5 33q59 0 96 -41l-44 -44
q-19 22 -46 22q-49 0 -49 -70v-188h107v-59h-107v-355h-70v355h-186v-355h-70v355zM874 0v722h70v-722h-70z" />
    <glyph glyph-name="f_f_h" unicode="ffh" horiz-adv-x="1065" 
d="M106 0v355h-67v59h67v168q0 67 30.5 100t83.5 33q68 0 102 -44l-45 -44q-20 25 -50 25q-51 0 -51 -70v-168h186v188q0 67 30.5 100t82.5 33q59 0 96 -41l-44 -44q-19 22 -46 22q-49 0 -49 -70v-188h107v-59h-107v-355h-70v355h-186v-355h-70zM618 0v722h70v-389
q21 42 59.5 66t88.5 24q69 0 111.5 -45.5t42.5 -125.5v-252h-69v244q0 115 -103 115q-59 0 -94.5 -35t-35.5 -96v-228h-70z" />
    <glyph glyph-name="f_f_iacute" unicode="ff&#xed;" horiz-adv-x="769" 
d="M106 0v355h-67v59h67v168q0 67 30.5 100t83.5 33q68 0 102 -44l-45 -44q-20 25 -50 25q-51 0 -51 -70v-168h186v188q0 67 31 100t85 33q64 0 100 -45l-44 -42q-22 24 -51 24q-51 0 -51 -70v-188h256v-414h-70v355h-186v-355h-70v355h-186v-355h-70zM624 498l67 193h81
l-93 -193h-55z" />
    <glyph glyph-name="f_f_icircumflex" unicode="ff&#xee;" horiz-adv-x="769" 
d="M106 0v355h-67v59h67v168q0 67 30.5 100t83.5 33q68 0 102 -44l-45 -44q-20 25 -50 25q-51 0 -51 -70v-168h186v188q0 67 31 100t85 33q64 0 100 -45l-44 -42q-22 24 -51 24q-51 0 -51 -70v-188h256v-414h-70v355h-186v-355h-70v355h-186v-355h-70zM520 503l127 193h10
l128 -193h-59l-73 102l-75 -102h-58z" />
    <glyph glyph-name="f_f_idieresis" unicode="ff&#xef;" horiz-adv-x="769" 
d="M106 0v355h-67v59h67v168q0 67 30.5 100t83.5 33q68 0 102 -44l-45 -44q-20 25 -50 25q-51 0 -51 -70v-168h186v188q0 67 31 100t85 33q64 0 100 -45l-44 -42q-22 24 -51 24q-51 0 -51 -70v-188h256v-414h-70v355h-186v-355h-70v355h-186v-355h-70zM738 534
q-18 0 -31.5 13t-13.5 32t13.5 32t31.5 13t31.5 -13t13.5 -32t-13.5 -32t-31.5 -13zM591 534q-18 0 -31.5 13.5t-13.5 31.5t13.5 31.5t31.5 13.5t32 -13.5t14 -31.5t-14 -31.5t-32 -13.5z" />
    <glyph glyph-name="f_f_j" unicode="ffj" horiz-adv-x="769" 
d="M577 -222q-55 0 -92 41l39 42q25 -23 48 -23q46 0 46 63v454h-186v-355h-70v355h-186v-355h-70v355h-67v59h67v168q0 67 30.5 100t83.5 33q68 0 102 -44l-45 -44q-20 25 -50 25q-51 0 -51 -70v-168h186v188q0 67 31 100t85 33q64 0 100 -45l-44 -42q-22 24 -51 24
q-51 0 -51 -70v-188h256v-512q0 -60 -30 -92t-81 -32zM653 534q-20 0 -35 14t-15 35t15 35.5t35 14.5t35 -14.5t15 -35.5t-15 -35t-35 -14z" />
    <glyph glyph-name="f_f_k" unicode="ffk" horiz-adv-x="1013" 
d="M106 0v355h-67v59h67v168q0 67 30.5 100t83.5 33q68 0 102 -44l-45 -44q-20 25 -50 25q-51 0 -51 -70v-168h186v188q0 67 30.5 100t82.5 33q59 0 96 -41l-44 -44q-19 22 -46 22q-49 0 -49 -70v-188h107v-59h-107v-355h-70v355h-186v-355h-70zM688 126v-126h-70v722h70
v-463q0 -26 -4 -58l196 213h81l-159 -174l184 -240h-83l-150 194z" />
    <glyph glyph-name="f_f_t" unicode="fft" horiz-adv-x="861" 
d="M729 -9q-51 0 -81 32t-30 102v230h-186v-355h-70v355h-186v-355h-70v355h-67v59h67v168q0 67 30.5 100t83.5 33q68 0 102 -44l-45 -44q-20 25 -50 25q-51 0 -51 -70v-168h186v188q0 67 31 100t85 33q64 0 100 -45l-44 -42q-22 24 -51 24q-51 0 -51 -70v-188h186v142h69
v-142h116v-59h-116v-231q0 -72 49 -72q30 0 56 24l38 -44q-39 -41 -101 -41z" />
    <glyph glyph-name="f_h" unicode="fh" horiz-adv-x="809" 
d="M106 0v355h-67v59h67v188q0 67 30.5 100t82.5 33q59 0 96 -41l-44 -44q-19 22 -46 22q-49 0 -49 -70v-188h106v-59h-106v-355h-70zM362 0v722h70v-389q21 42 59.5 66t88.5 24q69 0 111.5 -45.5t42.5 -125.5v-252h-69v244q0 115 -103 115q-59 0 -94.5 -35t-35.5 -96v-228
h-70z" />
    <glyph glyph-name="f_iacute" unicode="f&#xed;" horiz-adv-x="513" 
d="M106 0v355h-67v59h67v188q0 67 31 100t85 33q64 0 100 -45l-44 -42q-22 24 -51 24q-51 0 -51 -70v-188h256v-414h-70v355h-186v-355h-70zM368 498l67 193h81l-93 -193h-55z" />
    <glyph glyph-name="f_icircumflex" unicode="f&#xee;" horiz-adv-x="513" 
d="M106 0v355h-67v59h67v188q0 67 31 100t85 33q64 0 100 -45l-44 -42q-22 24 -51 24q-51 0 -51 -70v-188h256v-414h-70v355h-186v-355h-70zM264 503l127 193h10l128 -193h-59l-73 102l-75 -102h-58z" />
    <glyph glyph-name="f_idieresis" unicode="f&#xef;" horiz-adv-x="513" 
d="M106 0v355h-67v59h67v188q0 67 31 100t85 33q64 0 100 -45l-44 -42q-22 24 -51 24q-51 0 -51 -70v-188h256v-414h-70v355h-186v-355h-70zM482 534q-18 0 -31.5 13t-13.5 32t13.5 32t31.5 13t31.5 -13t13.5 -32t-13.5 -32t-31.5 -13zM335 534q-18 0 -31.5 13.5t-13.5 31.5
t13.5 31.5t31.5 13.5t32 -13.5t14 -31.5t-14 -31.5t-32 -13.5z" />
    <glyph glyph-name="f_j" unicode="fj" horiz-adv-x="513" 
d="M321 -222q-55 0 -92 41l39 42q25 -23 48 -23q46 0 46 63v454h-186v-355h-70v355h-67v59h67v188q0 67 31 100t85 33q64 0 100 -45l-44 -42q-22 24 -51 24q-51 0 -51 -70v-188h256v-512q0 -60 -30 -92t-81 -32zM397 534q-20 0 -35 14t-15 35t15 35.5t35 14.5t35 -14.5
t15 -35.5t-15 -35t-35 -14z" />
    <glyph glyph-name="f_k" unicode="fk" horiz-adv-x="757" 
d="M106 0v355h-67v59h67v188q0 67 30.5 100t82.5 33q59 0 96 -41l-44 -44q-19 22 -46 22q-49 0 -49 -70v-188h106v-59h-106v-355h-70zM432 126v-126h-70v722h70v-463q0 -26 -4 -58l196 213h81l-159 -174l184 -240h-83l-150 194z" />
    <glyph glyph-name="f_t" unicode="ft" horiz-adv-x="605" 
d="M473 -9q-51 0 -81 32t-30 102v230h-186v-355h-70v355h-67v59h67v188q0 67 31 100t85 33q64 0 100 -45l-44 -42q-22 24 -51 24q-51 0 -51 -70v-188h186v142h69v-142h115v-59h-115v-231q0 -72 49 -72q30 0 56 24l38 -44q-39 -41 -101 -41z" />
    <glyph glyph-name=".notdef" horiz-adv-x="247" 
 />
    <glyph glyph-name=".null" horiz-adv-x="0" 
 />
    <glyph glyph-name="nonmarkingreturn" horiz-adv-x="333" 
 />
    <glyph glyph-name="space" unicode=" " horiz-adv-x="247" 
 />
    <glyph glyph-name="exclam" unicode="!" horiz-adv-x="254" 
d="M100 190l-12 490h78l-12 -490h-54zM127 -7q-21 0 -37 15.5t-16 37.5q0 23 16 38.5t37 15.5t37 -15.5t16 -38.5q0 -22 -16 -37.5t-37 -15.5z" />
    <glyph glyph-name="quotedbl" unicode="&#x22;" horiz-adv-x="293" 
d="M183 470l-9 210h74l-8 -210h-57zM53 470l-8 210h74l-8 -210h-58z" />
    <glyph glyph-name="numbersign" unicode="#" horiz-adv-x="555" 
d="M71 0l46 188h-107v56h120l38 179h-112v56h126l51 201h58l-51 -201h149l52 201h58l-51 -201h106v-56h-120l-38 -179h111v-56h-126l-44 -188h-59l45 188h-149l-44 -188h-59zM188 244h150l38 179h-149z" />
    <glyph glyph-name="dollar" unicode="$" horiz-adv-x="544" 
d="M243 -7q-144 12 -207 136l60 33q26 -48 59.5 -74.5t87.5 -32.5v278l-7 3q-83 35 -123 79t-40 115q0 68 48 111t122 47v85h51v-87q93 -13 150 -98l-56 -38q-37 59 -94 72v-235l13 -6q93 -38 136 -86t43 -123q0 -80 -51.5 -127t-140.5 -52v-109h-51v109zM243 626
q-46 -4 -73 -29t-27 -65q0 -44 22.5 -71t77.5 -51v216zM294 55q57 5 89 36t32 80t-29 80t-92 60v-256z" />
    <glyph glyph-name="percent" unicode="%" horiz-adv-x="821" 
d="M205 353q-68 0 -118.5 48.5t-50.5 119.5t50.5 119t118.5 48t119 -48t51 -119t-51 -119.5t-119 -48.5zM161 0l428 680h71l-428 -680h-71zM205 411q44 0 74.5 31t30.5 79t-30.5 78.5t-74.5 30.5t-74 -30.5t-30 -78.5t30 -79t74 -31zM615 -8q-68 0 -118.5 48t-50.5 119
t50.5 119t118.5 48t118.5 -48t50.5 -119t-50.5 -119t-118.5 -48zM615 49q44 0 74.5 31.5t30.5 78.5q0 49 -30.5 79.5t-74.5 30.5t-74.5 -30.5t-30.5 -79.5q0 -47 30.5 -78.5t74.5 -31.5z" />
    <glyph glyph-name="ampersand" unicode="&#x26;" horiz-adv-x="664" 
d="M321 385l150 -182q29 70 29 165h69q0 -126 -51 -222l120 -146h-87l-73 88q-85 -96 -214 -96q-99 0 -157.5 50.5t-58.5 134.5q0 77 43.5 124.5t131.5 95.5l-12 15q-55 68 -55 136q0 60 40 100t106 40q64 0 104 -39.5t40 -99.5q0 -92 -125 -164zM284 430q96 56 96 119
q0 36 -21.5 57.5t-55.5 21.5q-35 0 -56.5 -21t-21.5 -58q0 -48 40 -96zM435 140l-176 213q-68 -37 -102 -75.5t-34 -96.5q0 -59 37 -92t104 -33q107 0 171 84z" />
    <glyph glyph-name="quotesingle" unicode="'" horiz-adv-x="164" 
d="M53 470l-8 210h74l-8 -210h-58z" />
    <glyph glyph-name="parenleft" unicode="(" horiz-adv-x="298" 
d="M221 -136q-172 176 -172 427t172 427l44 -36q-143 -167 -143 -391t143 -391z" />
    <glyph glyph-name="parenright" unicode=")" horiz-adv-x="298" 
d="M76 -136l-43 36q142 166 142 391t-142 391l43 36q173 -177 173 -427t-173 -427z" />
    <glyph glyph-name="asterisk" unicode="*" horiz-adv-x="404" 
d="M170 375l15 125l-98 -73l-31 54l117 47l-117 47l31 54l98 -72l-15 123h63l-15 -123l99 72l31 -54l-118 -47l117 -47l-30 -54l-99 73l15 -125h-63z" />
    <glyph glyph-name="plus" unicode="+" horiz-adv-x="423" 
d="M179 146v145h-135v62h135v145h64v-145h136v-62h-136v-145h-64z" />
    <glyph glyph-name="comma" unicode="," horiz-adv-x="212" 
d="M49 -112l39 111q-36 12 -36 49q0 22 16.5 38t37.5 16q22 0 38 -16t16 -38q0 -18 -12 -40l-60 -120h-39z" />
    <glyph glyph-name="hyphen" unicode="-" horiz-adv-x="296" 
d="M51 200v63h193v-63h-193z" />
    <glyph glyph-name="period" unicode="." horiz-adv-x="212" 
d="M106 -7q-21 0 -37.5 16t-16.5 39t16 38.5t38 15.5t38 -15.5t16 -38.5t-16 -39t-38 -16z" />
    <glyph glyph-name="slash" unicode="/" horiz-adv-x="438" 
d="M20 -128l300 850h70l-300 -850h-70z" />
    <glyph glyph-name="zero" unicode="0" horiz-adv-x="653" 
d="M326 -8q-115 0 -194 89.5t-79 258.5t79 258.5t194 89.5t194 -89.5t79 -258.5t-79 -258.5t-194 -89.5zM326 57q87 0 142.5 70.5t55.5 212.5t-55.5 212.5t-142.5 70.5q-86 0 -142 -71t-56 -212t56 -212t142 -71z" />
    <glyph glyph-name="one" unicode="1" horiz-adv-x="329" 
d="M152 0v616h-111v64h184v-680h-73z" />
    <glyph glyph-name="two" unicode="2" horiz-adv-x="543" 
d="M33 0v7l279 296q99 104 99 192q0 57 -33.5 92t-93.5 35q-58 0 -98 -35t-55 -101l-69 15q18 84 75.5 135.5t146.5 51.5q91 0 145.5 -53.5t54.5 -139.5q0 -104 -116 -229l-151 -160q-9 -10 -22 -21.5t-21 -18.5l-8 -6q35 4 62 4h260v-64h-455z" />
    <glyph glyph-name="three" unicode="3" horiz-adv-x="559" 
d="M266 -8q-82 0 -146.5 38t-94.5 99l60 32q58 -104 178 -104q81 0 128.5 44.5t47.5 116.5q0 73 -48.5 114t-133.5 41q-48 0 -87 -15l-4 7l175 218l36 38q-31 -5 -56 -5h-239v64h409v-7l-168 -207q-8 -11 -17.5 -21t-14.5 -15l-5 -5q101 -1 163.5 -58t62.5 -151
q0 -101 -68.5 -162.5t-177.5 -61.5z" />
    <glyph glyph-name="four" unicode="4" horiz-adv-x="600" 
d="M407 0v126h-374v37l441 533h6v-509h76v-61h-76v-126h-73zM123 182q44 5 74 5h210v280q0 60 5 70l-6 -9q-7 -10 -18 -25.5t-20 -26.5l-193 -245q-9 -11 -22 -23t-21 -19z" />
    <glyph glyph-name="five" unicode="5" horiz-adv-x="558" 
d="M266 -8q-80 0 -142.5 34.5t-95.5 94.5l62 34q57 -98 176 -98q78 0 124 44.5t46 118.5q0 73 -44.5 114t-122.5 41q-98 0 -170 -65l-6 4v366h380v-64h-316v-211q51 32 124 32q104 0 167.5 -58.5t63.5 -157.5q0 -106 -68 -167.5t-178 -61.5z" />
    <glyph glyph-name="six" unicode="6" horiz-adv-x="578" 
d="M289 -8q-104 0 -171 66t-67 162q0 80 57 162l209 298h81l-145 -206l-52 -61q48 35 103 35q96 0 159.5 -65t63.5 -161q0 -97 -67 -163.5t-171 -66.5zM289 57q74 0 119 48t45 117q0 70 -44.5 118.5t-119.5 48.5q-74 0 -119 -48.5t-45 -118.5q0 -69 45 -117t119 -48z" />
    <glyph glyph-name="seven" unicode="7" horiz-adv-x="559" 
d="M113 0l308 616h-382v64h488v-7l-337 -673h-77z" />
    <glyph glyph-name="eight" unicode="8" horiz-adv-x="574" 
d="M287 -8q-104 0 -170.5 55.5t-66.5 145.5q0 66 38.5 111.5t103.5 64.5q-48 16 -74 55.5t-26 91.5q0 72 55.5 122t140.5 50q86 0 141.5 -50t55.5 -122q0 -53 -26.5 -92t-74.5 -55q64 -19 102 -64.5t38 -111.5q0 -90 -66.5 -145.5t-170.5 -55.5zM288 395q59 0 92.5 33
t33.5 83q0 48 -33.5 80.5t-92.5 32.5q-58 0 -91.5 -32.5t-33.5 -80.5q0 -50 33.5 -83t91.5 -33zM287 57q74 0 118.5 37.5t44.5 101.5t-44.5 102.5t-118.5 38.5q-73 0 -118 -38.5t-45 -102.5t45 -101.5t118 -37.5z" />
    <glyph glyph-name="nine" unicode="9" horiz-adv-x="578" 
d="M193 0l141 208l42 53q-48 -34 -103 -34q-97 0 -161 65.5t-64 163.5t67.5 165t172.5 67t173.5 -67t68.5 -164q0 -76 -59 -163l-198 -294h-80zM288 286q75 0 121.5 49t46.5 121q0 70 -46 118.5t-122 48.5q-75 0 -120.5 -48.5t-45.5 -118.5q0 -72 44.5 -121t121.5 -49z" />
    <glyph glyph-name="colon" unicode=":" horiz-adv-x="222" 
d="M111 217q-21 0 -37.5 16t-16.5 39t16 38.5t38 15.5t38 -15.5t16 -38.5t-16 -39t-38 -16zM111 -7q-21 0 -37.5 16t-16.5 39t16 38.5t38 15.5t38 -15.5t16 -38.5t-16 -39t-38 -16z" />
    <glyph glyph-name="semicolon" unicode=";" horiz-adv-x="222" 
d="M111 217q-21 0 -37.5 16t-16.5 39t16 38.5t38 15.5t38 -15.5t16 -38.5t-16 -39t-38 -16zM54 -112l39 111q-36 12 -36 49q0 22 16.5 38t37.5 16q22 0 38 -16t16 -38q0 -18 -12 -40l-60 -120h-39z" />
    <glyph glyph-name="less" unicode="&#x3c;" horiz-adv-x="401" 
d="M347 149l-306 167v10l306 164v-65l-201 -105l201 -106v-65z" />
    <glyph glyph-name="equal" unicode="=" horiz-adv-x="421" 
d="M47 352v62h327v-62h-327zM47 206v61h327v-61h-327z" />
    <glyph glyph-name="greater" unicode="&#x3e;" horiz-adv-x="401" 
d="M54 149v65l202 105l-202 106v65l306 -167v-10z" />
    <glyph glyph-name="question" unicode="?" horiz-adv-x="479" 
d="M179 187v176h33q65 0 102.5 38t37.5 96q0 59 -34.5 93.5t-90.5 34.5q-50 0 -82 -21t-55 -67l-58 30q25 59 75.5 90t119.5 31q88 0 142.5 -52.5t54.5 -138.5q0 -79 -49.5 -131t-129.5 -58v-121h-66zM211 -7q-21 0 -37 15.5t-16 37.5q0 23 16 38.5t37 15.5t37 -15.5
t16 -38.5q0 -22 -16 -37.5t-37 -15.5z" />
    <glyph glyph-name="at" unicode="@" horiz-adv-x="896" 
d="M453 -206q-170 0 -284.5 109.5t-114.5 285.5q0 170 116.5 283.5t281.5 113.5q169 0 279.5 -105.5t110.5 -263.5q0 -111 -42.5 -167t-112.5 -56q-100 0 -116 94q-43 -96 -144 -96q-75 0 -125 54t-50 137t50 138.5t124 55.5q92 0 133 -86l-2 76h69v-231q0 -44 14.5 -66
t48.5 -22q41 0 66 41.5t25 126.5q0 138 -89.5 226t-238.5 88q-145 0 -238.5 -97.5t-93.5 -243.5q0 -148 91.5 -244t241.5 -96q90 0 164 40l26 -50q-81 -45 -190 -45zM441 50q50 0 84 38.5t34 94.5t-34 95.5t-84 39.5q-52 0 -85 -39t-33 -96t33 -95t85 -38z" />
    <glyph glyph-name="A" unicode="A" horiz-adv-x="665" 
d="M42 0l282 687h12l288 -687h-76l-62 153h-312l-61 -153h-71zM199 215h262l-105 260q-6 14 -12.5 34t-10 33t-3.5 14l-4 -14q-4 -13 -10.5 -32.5t-12.5 -33.5z" />
    <glyph glyph-name="B" unicode="B" horiz-adv-x="612" 
d="M98 0v680h225q95 0 145 -48t50 -125q0 -113 -99 -145q133 -30 133 -171q0 -87 -53 -139t-158 -52h-243zM170 389h157q61 0 90 30.5t29 82.5q0 53 -31 83.5t-98 30.5h-147v-227zM170 64h166q143 0 143 131q0 63 -37 97t-110 34h-162v-262z" />
    <glyph glyph-name="C" unicode="C" horiz-adv-x="736" 
d="M408 -8q-147 0 -248 98t-101 250t101 250t248 98q182 0 270 -132l-55 -40q-72 107 -215 107q-119 0 -196.5 -80.5t-77.5 -202.5t77.5 -202.5t196.5 -80.5q145 0 224 114l56 -39q-46 -67 -118 -103.5t-162 -36.5z" />
    <glyph glyph-name="D" unicode="D" horiz-adv-x="690" 
d="M98 0v680h165q170 0 269 -92.5t99 -247.5t-99 -247.5t-269 -92.5h-165zM170 65h88q146 0 221.5 74.5t75.5 200.5t-75.5 200.5t-221.5 74.5h-88v-550z" />
    <glyph glyph-name="E" unicode="E" horiz-adv-x="590" 
d="M98 0v680h414v-64h-342v-243h305v-63h-305v-246h356v-64h-428z" />
    <glyph glyph-name="F" unicode="F" horiz-adv-x="566" 
d="M98 0v680h409v-64h-337v-260h306v-65h-306v-291h-72z" />
    <glyph glyph-name="G" unicode="G" horiz-adv-x="753" 
d="M415 -8q-153 0 -254.5 97.5t-101.5 250.5q0 152 100 250t250 98q155 0 237 -88l-49 -49q-69 72 -188 72q-120 0 -197.5 -80.5t-77.5 -202.5t79 -202.5t202 -80.5q124 0 201 62v143h-202v64h270v-240q-96 -94 -269 -94z" />
    <glyph glyph-name="H" unicode="H" horiz-adv-x="703" 
d="M98 0v680h72v-317h364v317h72v-680h-72v298h-364v-298h-72z" />
    <glyph glyph-name="I" unicode="I" horiz-adv-x="275" 
d="M101 0v680h73v-680h-73z" />
    <glyph glyph-name="J" unicode="J" horiz-adv-x="493" 
d="M214 -8q-121 0 -176 102l59 37q43 -74 114 -74q52 0 82 30.5t30 93.5v499h73v-501q0 -91 -50 -139t-132 -48z" />
    <glyph glyph-name="K" unicode="K" horiz-adv-x="617" 
d="M98 0v680h72v-305q0 -36 -5 -89q22 45 47 77l260 317h82l-247 -304l275 -376h-88l-234 323l-90 -107v-216h-72z" />
    <glyph glyph-name="L" unicode="L" horiz-adv-x="537" 
d="M98 0v680h72v-616h321v-64h-393z" />
    <glyph glyph-name="M" unicode="M" horiz-adv-x="847" 
d="M98 0v688h10l316 -395l314 395h11v-688h-70v449q0 13 0.5 32t1.5 32l1 13q-1 -1 -8.5 -12.5t-19 -29t-20.5 -28.5l-206 -260h-12l-203 260q-35 41 -49 70v-6q1 -5 1.5 -13t1 -18t1 -21t0.5 -19v-449h-70z" />
    <glyph glyph-name="N" unicode="N" horiz-adv-x="723" 
d="M613 -7l-406 480q-33 38 -47 62q0 -1 1.5 -15t3 -31.5t1.5 -29.5v-459h-68v687h12l406 -480q6 -8 14.5 -19t14.5 -19.5t12 -16t6 -8.5l-1 14q-2 13 -3 31.5t-1 31.5v459h67v-687h-12z" />
    <glyph glyph-name="O" unicode="O" horiz-adv-x="817" 
d="M408 -8q-147 0 -248 98t-101 250t101 250t248 98q148 0 249 -98t101 -250t-101 -250t-249 -98zM408 57q119 0 197 80.5t78 202.5t-78 202.5t-197 80.5q-118 0 -196 -80.5t-78 -202.5t78 -202.5t196 -80.5z" />
    <glyph glyph-name="P" unicode="P" horiz-adv-x="592" 
d="M98 0v680h199q112 0 177 -54t65 -157q0 -102 -65 -156.5t-177 -54.5h-127v-258h-72zM170 322h123q172 0 172 147t-172 147h-123v-294z" />
    <glyph glyph-name="Q" unicode="Q" horiz-adv-x="817" 
d="M656 89l103 -110l-50 -42l-104 112q-89 -57 -197 -57q-147 0 -248 98t-101 250t101 250t248 98q148 0 249 -98t101 -250q0 -151 -102 -251zM559 99l-103 112l49 42l104 -113q74 79 74 200q0 122 -78 202.5t-197 80.5q-118 0 -196 -80.5t-78 -202.5t78 -202.5t196 -80.5
q86 0 151 42z" />
    <glyph glyph-name="R" unicode="R" horiz-adv-x="617" 
d="M98 0v680h204q111 0 176.5 -53t65.5 -155q0 -73 -37.5 -122t-105.5 -70l166 -280h-85l-156 268q-10 -1 -32 -1h-124v-267h-72zM170 329h128q171 0 171 143q0 144 -171 144h-128v-287z" />
    <glyph glyph-name="S" unicode="S" horiz-adv-x="541" 
d="M271 -8q-168 0 -237 138l60 32q28 -49 68.5 -77.5t106.5 -28.5q61 0 101 31.5t40 84.5q0 49 -30 80.5t-98 61.5l-54 25q-78 35 -114 76.5t-36 109.5q0 73 50.5 118t128.5 45q123 0 184 -102l-58 -36q-46 74 -126 74q-50 0 -79 -26.5t-29 -70.5q0 -43 24 -68.5t84 -53.5
l54 -25q89 -39 130 -86.5t41 -121.5q0 -83 -59 -131.5t-152 -48.5z" />
    <glyph glyph-name="T" unicode="T" horiz-adv-x="566" 
d="M247 0v616h-209v64h490v-64h-209v-616h-72z" />
    <glyph glyph-name="U" unicode="U" horiz-adv-x="672" 
d="M336 -8q-108 0 -176 62.5t-68 177.5v448h72v-443q0 -89 45.5 -135t126.5 -46t126.5 46t45.5 135v443h72v-448q0 -115 -68 -177.5t-176 -62.5z" />
    <glyph glyph-name="V" unicode="V" horiz-adv-x="666" 
d="M329 -7l-287 687h78l187 -461l29 -92q15 58 29 92l186 461h73l-283 -687h-12z" />
    <glyph glyph-name="W" unicode="W" horiz-adv-x="963" 
d="M265 -7l-225 687h77l143 -453q5 -19 19 -74q12 50 22 74l177 460h12l177 -460q12 -33 22 -74q17 67 19 74l142 453h73l-224 -687h-12l-183 484q-4 9 -7.5 21t-6 21t-4.5 17l-2 7l-2 -7q-2 -8 -5 -17l-7 -21l-7 -21l-186 -484h-12z" />
    <glyph glyph-name="X" unicode="X" horiz-adv-x="645" 
d="M48 0l233 370l-196 310h82l135 -212l22 -47q10 30 21 47l134 212h79l-195 -310l235 -370h-82l-173 272q-19 30 -23 47l-4 -8q-3 -8 -8 -20t-9 -19l-172 -272h-79z" />
    <glyph glyph-name="Y" unicode="Y" horiz-adv-x="620" 
d="M276 0v250l-237 430h82l164 -301q6 -11 13 -27.5t11.5 -28.5t4.5 -13q7 28 29 69l163 301h75l-231 -428v-252h-74z" />
    <glyph glyph-name="Z" unicode="Z" horiz-adv-x="591" 
d="M44 0v11l380 605h-326v64h438v-11l-379 -605h381v-64h-494z" />
    <glyph glyph-name="bracketleft" unicode="[" horiz-adv-x="315" 
d="M81 -128v850h193v-60h-123v-730h123v-60h-193z" />
    <glyph glyph-name="backslash" unicode="\" horiz-adv-x="439" 
d="M349 -128l-301 850h70l301 -850h-70z" />
    <glyph glyph-name="bracketright" unicode="]" horiz-adv-x="315" 
d="M41 -128v60h123v730h-123v60h194v-850h-194z" />
    <glyph glyph-name="asciicircum" unicode="^" horiz-adv-x="427" 
d="M73 463l136 225h9l136 -225h-58l-82 126l-83 -126h-58z" />
    <glyph glyph-name="underscore" unicode="_" horiz-adv-x="266" 
d="M3 -128v62h260v-62h-260z" />
    <glyph glyph-name="grave" unicode="`" 
d="M229 498l-93 193h80l68 -193h-55z" />
    <glyph glyph-name="a" unicode="a" horiz-adv-x="481" 
d="M336 243v10q0 111 -97 111q-76 0 -121 -60l-43 39q59 80 169 80q72 0 117 -43t45 -126v-254h-70l3 62q-47 -70 -137 -70q-69 0 -110.5 32t-41.5 94q0 61 44 93t113 32h129zM336 190h-124q-94 0 -94 -69q0 -72 100 -72q49 0 83.5 24.5t34.5 64.5v52z" />
    <glyph glyph-name="b" unicode="b" horiz-adv-x="561" 
d="M307 -8q-54 0 -96 26.5t-64 70.5l2 -89h-69v722h69v-393q51 94 159 94q85 0 142.5 -61.5t57.5 -153.5q0 -93 -58 -154.5t-143 -61.5zM293 53q65 0 104 43.5t39 111.5q0 67 -39 110t-104 43q-66 0 -106.5 -43t-40.5 -110q0 -68 40.5 -111.5t106.5 -43.5z" />
    <glyph glyph-name="c" unicode="c" horiz-adv-x="477" 
d="M268 -8q-91 0 -153 62t-62 153t62 153.5t153 62.5q102 0 163 -74l-50 -41q-40 53 -113 53q-65 0 -104 -43.5t-39 -110.5t39 -110.5t104 -43.5q74 0 119 54l48 -41q-61 -74 -167 -74z" />
    <glyph glyph-name="d" unicode="d" horiz-adv-x="561" 
d="M254 -8q-85 0 -143 61.5t-58 154.5q0 92 58 153.5t142 61.5q108 0 159 -94v393h69v-722h-69l2 89q-22 -44 -64 -70.5t-96 -26.5zM268 53q66 0 106.5 43.5t40.5 111.5q0 67 -40.5 110t-106.5 43q-65 0 -104 -43t-39 -110q0 -68 39 -111.5t104 -43.5z" />
    <glyph glyph-name="e" unicode="e" horiz-adv-x="526" 
d="M123 184q7 -61 47 -97t107 -36q81 0 131 55l43 -42q-64 -72 -174 -72q-100 0 -162 61.5t-62 153.5q0 91 61.5 153.5t152.5 62.5q98 0 155 -67.5t53 -171.5h-352zM124 237h281q-5 56 -40 91.5t-98 35.5q-58 0 -96.5 -34.5t-46.5 -92.5z" />
    <glyph glyph-name="f" unicode="f" horiz-adv-x="328" 
d="M106 0v355h-67v59h67v188q0 67 31 100t84 33q70 0 105 -51l-46 -41q-22 29 -53 29q-51 0 -51 -70v-188h111v-59h-111v-355h-70z" />
    <glyph glyph-name="g" unicode="g" horiz-adv-x="562" 
d="M273 -223q-143 0 -210 115l52 36q55 -91 156 -91q141 0 141 155v94q-21 -42 -62.5 -68t-95.5 -26q-85 0 -143 61.5t-58 154.5q0 92 58 153.5t142 61.5q111 0 161 -98l-2 89h70v-427q0 -106 -56 -158t-153 -52zM268 53q66 0 106.5 43.5t40.5 111.5q0 67 -40.5 110
t-106.5 43q-65 0 -104 -43t-39 -110q0 -68 39 -111.5t104 -43.5z" />
    <glyph glyph-name="h" unicode="h" horiz-adv-x="526" 
d="M79 0v722h70v-389q20 42 58.5 66t88.5 24q70 0 112.5 -45.5t42.5 -125.5v-252h-70v244q0 115 -103 115q-58 0 -93.5 -35t-35.5 -96v-228h-70z" />
    <glyph glyph-name="i" unicode="i" horiz-adv-x="232" 
d="M116 534q-20 0 -35 14t-15 35t15 35.5t35 14.5t35 -14.5t15 -35.5t-15 -35t-35 -14zM81 0v414h70v-414h-70z" />
    <glyph glyph-name="j" unicode="j" horiz-adv-x="232" 
d="M116 534q-20 0 -35 14t-15 35t15 35.5t35 14.5t35 -14.5t15 -35.5t-15 -35t-35 -14zM40 -222q-55 0 -92 41l39 42q25 -23 48 -23q46 0 46 63v513h70v-512q0 -60 -30 -92t-81 -32z" />
    <glyph glyph-name="k" unicode="k" horiz-adv-x="473" 
d="M149 126v-126h-70v722h70v-463q0 -31 -5 -59l197 214h81l-159 -174l184 -240h-83l-150 194z" />
    <glyph glyph-name="l" unicode="l" horiz-adv-x="238" 
d="M84 0v722h70v-722h-70z" />
    <glyph glyph-name="m" unicode="m" horiz-adv-x="767" 
d="M79 0v414h70l-2 -78q42 87 130 87q95 0 125 -87q48 87 143 87q68 0 107.5 -42.5t39.5 -115.5v-265h-69v256q0 103 -91 103q-51 0 -81 -33.5t-30 -93.5v-232h-70v256q0 103 -90 103q-51 0 -81.5 -33.5t-30.5 -93.5v-232h-70z" />
    <glyph glyph-name="n" unicode="n" horiz-adv-x="526" 
d="M79 0v414h70l-2 -85q20 44 59.5 69t89.5 25q70 0 112.5 -45.5t42.5 -125.5v-252h-70v244q0 115 -103 115q-58 0 -93.5 -35t-35.5 -96v-228h-70z" />
    <glyph glyph-name="o" unicode="o" horiz-adv-x="544" 
d="M273 -8q-93 0 -156.5 62t-63.5 153t63.5 153.5t156.5 62.5q92 0 155 -62.5t63 -153.5t-63 -153t-155 -62zM273 52q65 0 106 44t41 111t-41 111t-106 44q-66 0 -107.5 -44t-41.5 -111t41.5 -111t107.5 -44z" />
    <glyph glyph-name="p" unicode="p" horiz-adv-x="561" 
d="M80 -212v626h69l-2 -89q50 98 161 98q85 0 142.5 -61.5t57.5 -153.5q0 -93 -58 -154.5t-143 -61.5q-54 0 -95.5 26t-62.5 68v-298h-69zM293 53q65 0 104 43.5t39 111.5q0 67 -39 110t-104 43q-66 0 -106.5 -43t-40.5 -110q0 -68 40.5 -111.5t106.5 -43.5z" />
    <glyph glyph-name="q" unicode="q" horiz-adv-x="562" 
d="M412 -212v298q-21 -42 -62.5 -68t-95.5 -26q-85 0 -143 61.5t-58 154.5q0 92 58 153.5t142 61.5q111 0 161 -98l-2 89h70v-626h-70zM268 53q66 0 106.5 43.5t40.5 111.5q0 67 -40.5 110t-106.5 43q-65 0 -104 -43t-39 -110q0 -68 39 -111.5t104 -43.5z" />
    <glyph glyph-name="r" unicode="r" horiz-adv-x="367" 
d="M79 0v414h70l-2 -81q37 89 121 89q43 0 72 -20l-27 -61q-23 16 -57 16q-47 0 -77 -35t-30 -104v-218h-70z" />
    <glyph glyph-name="s" unicode="s" horiz-adv-x="420" 
d="M218 -8q-64 0 -109.5 27t-67.5 69l54 31q42 -70 120 -70q42 0 65 16.5t23 45.5q0 31 -22.5 44.5t-85.5 31.5q-60 17 -92.5 43.5t-32.5 79.5q0 52 38.5 82.5t97.5 30.5q91 0 138 -67l-48 -37q-34 47 -90 47q-33 0 -52.5 -14.5t-19.5 -38.5q0 -28 20 -41t78 -30
q64 -17 100.5 -45t36.5 -82q0 -55 -38 -89t-113 -34z" />
    <glyph glyph-name="t" unicode="t" horiz-adv-x="345" 
d="M214 -9q-51 0 -81 32t-30 102v230h-64v59h64v142h69v-142h116v-59h-116v-231q0 -72 49 -72q33 0 59 26l34 -47q-40 -40 -100 -40z" />
    <glyph glyph-name="u" unicode="u" horiz-adv-x="525" 
d="M230 -9q-70 0 -112.5 45.5t-42.5 123.5v254h70v-247q0 -112 102 -112q59 0 94 35.5t35 95.5v228h70v-414h-70l2 84q-20 -44 -59 -68.5t-89 -24.5z" />
    <glyph glyph-name="v" unicode="v" horiz-adv-x="472" 
d="M231 -8l-201 422h77l110 -239q12 -27 23 -71q13 53 22 71l108 239h72l-198 -422h-13z" />
    <glyph glyph-name="w" unicode="w" horiz-adv-x="693" 
d="M200 -9l-170 423h76l89 -228q4 -11 8.5 -25t7.5 -25.5t3 -12.5q7 33 21 63l108 234h9l110 -233q13 -30 22 -65q0 20 19 65l89 227h71l-172 -423h-10l-114 249q-4 8 -8 18.5t-6 18.5t-4 15l-2 8l-2 -8q-2 -7 -4.5 -15t-6.5 -18.5t-7 -18.5l-117 -249h-10z" />
    <glyph glyph-name="x" unicode="x" horiz-adv-x="480" 
d="M36 0l164 220l-142 194h83l78 -108q8 -11 24 -43q0 1 2.5 8t7.5 17.5t10 17.5l79 108h77l-140 -189l165 -225h-84l-98 136q-14 21 -26 45l-4 -8l-9.5 -19t-10.5 -18l-99 -136h-77z" />
    <glyph glyph-name="y" unicode="y" horiz-adv-x="472" 
d="M100 -212l106 247l-176 379h77l117 -257q5 -12 9.5 -29.5t6.5 -29.5l3 -11q7 44 19 70l108 257h72l-270 -626h-72z" />
    <glyph glyph-name="z" unicode="z" horiz-adv-x="427" 
d="M37 0v10l239 346h-213v58h326v-11l-241 -345h236v-58h-347z" />
    <glyph glyph-name="braceleft" unicode="{" horiz-adv-x="377" 
d="M279 -128q-133 0 -133 144v185q0 38 -14.5 53.5t-43.5 15.5h-58v60h58q29 0 43.5 16t14.5 54v178q0 144 133 144h57v-60h-53q-33 0 -49.5 -19t-16.5 -66v-185q0 -76 -65 -92q65 -12 65 -92v-191q0 -47 16.5 -66t49.5 -19h53v-60h-57z" />
    <glyph glyph-name="bar" unicode="|" horiz-adv-x="247" 
d="M90 -128v850h67v-850h-67z" />
    <glyph glyph-name="braceright" unicode="}" horiz-adv-x="376" 
d="M41 -128v60h53q33 0 49.5 19t16.5 66v191q0 78 65 92q-65 12 -65 93v184q0 47 -16.5 66t-49.5 19h-53v60h57q132 0 132 -144v-178q0 -38 15 -54t44 -16h57v-60h-57q-29 0 -44 -15.5t-15 -53.5v-185q0 -144 -132 -144h-57z" />
    <glyph glyph-name="asciitilde" unicode="~" horiz-adv-x="403" 
d="M108 224l-52 5q2 53 25.5 82t60.5 29q33 0 69 -33q30 -25 41 -27q3 -1 7 -1q30 0 36 59l52 -5q-2 -53 -24.5 -81.5t-60.5 -28.5q-33 0 -69 33q-21 17 -29 22t-20 5q-30 0 -36 -59z" />
    <glyph glyph-name="uni00A0" unicode="&#xa0;" horiz-adv-x="192" 
 />
    <glyph glyph-name="exclamdown" unicode="&#xa1;" horiz-adv-x="254" 
d="M127 687q21 0 37 -15.5t16 -37.5q0 -23 -16 -38.5t-37 -15.5t-37 15.5t-16 38.5q0 22 16 37.5t37 15.5zM154 490l12 -490h-78l12 490h54z" />
    <glyph glyph-name="cent" unicode="&#xa2;" horiz-adv-x="480" 
d="M238 -6q-81 11 -133 70.5t-52 142.5t52.5 143t132.5 71v108h51v-107q88 -6 143 -73l-49 -40q-35 45 -94 52v-308q61 7 100 54l48 -41q-56 -67 -148 -73v-109h-51v110zM238 359q-52 -10 -83 -51.5t-31 -100.5t30.5 -100.5t83.5 -51.5v304z" />
    <glyph glyph-name="sterling" unicode="&#xa3;" horiz-adv-x="613" 
d="M188 276h-102v56h77q-39 94 -39 157q0 86 59 142.5t153 56.5q142 0 201 -123l-60 -31q-44 91 -141 91q-63 0 -100.5 -37t-37.5 -99q0 -64 38 -157h196v-56h-174q26 -74 26 -132q0 -15 -3 -30q27 -20 43 -30t43 -20t55 -10q35 0 57.5 13t43.5 41l49 -41q-32 -40 -65 -57.5
t-85 -17.5q-77 0 -161 68q-43 -68 -125 -68q-45 0 -76 25.5t-31 68.5t30.5 68.5t75.5 25.5q41 0 85 -23q-4 52 -32 119zM213 98q-41 31 -75 31q-23 0 -37 -11.5t-14 -30.5q0 -20 14.5 -32t37.5 -12q56 0 74 55z" />
    <glyph glyph-name="currency" unicode="&#xa4;" horiz-adv-x="0" 
 />
    <glyph glyph-name="yen" unicode="&#xa5;" horiz-adv-x="614" 
d="M271 0v162h-209v53h209v35l-30 56h-179v53h150l-171 321h82l158 -302q6 -12 29 -69q0 13 29 69l155 302h76l-168 -321h152v-53h-180l-30 -57v-34h210v-53h-210v-162h-73z" />
    <glyph glyph-name="section" unicode="&#xa7;" horiz-adv-x="563" 
d="M273 -180q-68 0 -121.5 30.5t-82.5 78.5l58 37q53 -82 144 -82q59 0 87 25.5t28 68.5q0 37 -24 60.5t-76 46.5l-106 48q-72 32 -105 70.5t-33 94.5q0 87 88 128q-28 40 -28 95q0 72 51.5 119.5t132.5 47.5q124 0 181 -104l-58 -36q-42 76 -123 76q-50 0 -79.5 -28
t-29.5 -72q0 -43 21.5 -67.5t70.5 -46.5l108 -49q77 -34 110.5 -73.5t33.5 -94.5q0 -84 -92 -122q32 -41 32 -94q0 -70 -48.5 -113.5t-139.5 -43.5zM389 107q62 23 62 80q0 36 -23.5 60t-79.5 49l-109 49q-45 19 -73 46q-54 -26 -54 -83q0 -38 22 -61.5t75 -47.5l107 -48
q46 -20 73 -44z" />
    <glyph glyph-name="dieresis" unicode="&#xa8;" 
d="M340 537q-18 0 -32 13.5t-14 32.5t14 32.5t32 13.5t32 -13.5t14 -32.5t-14 -32.5t-32 -13.5zM170 537q-18 0 -32 13.5t-14 32.5t14 32.5t32 13.5t32 -13.5t14 -32.5t-14 -32.5t-32 -13.5z" />
    <glyph glyph-name="copyright" unicode="&#xa9;" horiz-adv-x="608" 
d="M305 -7q-108 0 -184.5 74.5t-76.5 184.5q0 111 76.5 185.5t184.5 74.5q107 0 183 -74.5t76 -185.5q0 -110 -76 -184.5t-183 -74.5zM305 33q92 0 154.5 62t62.5 157q0 96 -62.5 158t-154.5 62q-93 0 -156 -62t-63 -158q0 -95 63 -157t156 -62zM308 103q-63 0 -105.5 42.5
t-42.5 106.5t42 107t104 43q67 0 115 -51l-41 -38q-26 34 -70 34q-38 0 -62 -27t-24 -68q0 -40 24 -67t62 -27q44 0 73 36l41 -38q-46 -53 -116 -53z" />
    <glyph glyph-name="ordfeminine" unicode="&#xaa;" horiz-adv-x="412" 
d="M289 363q0 53 -21 74t-61 21q-60 0 -101 -50l-40 35q49 69 146 69q64 0 103 -36t39 -111v-211h-65l1 46q-38 -54 -114 -54q-58 0 -95 28t-37 81q0 52 39.5 80t99.5 28h106zM289 314h-99q-81 0 -81 -57q0 -59 82 -59q42 0 70 20.5t28 55.5v40z" />
    <glyph glyph-name="guillemotleft" unicode="&#xab;" horiz-adv-x="407" 
d="M292 37l-94 159v8l94 157h72l-96 -161l96 -163h-72zM137 37l-94 159v8l94 157h72l-96 -161l96 -163h-72z" />
    <glyph glyph-name="registered" unicode="&#xae;" horiz-adv-x="524" 
d="M260 265q-90 0 -153.5 61.5t-63.5 152.5q0 93 63 154t154 61q92 0 156.5 -61.5t64.5 -153.5q0 -91 -64.5 -152.5t-156.5 -61.5zM260 300q80 0 130.5 49.5t50.5 129.5q0 81 -50.5 130.5t-130.5 49.5q-77 0 -126.5 -49.5t-49.5 -130.5q0 -80 49.5 -129.5t126.5 -49.5z
M183 362v237h84q43 0 66.5 -20.5t23.5 -55.5q0 -55 -49 -70l55 -91h-48l-50 85h-39v-85h-43zM226 480h41q46 0 46 42q0 40 -46 40h-41v-82z" />
    <glyph glyph-name="macron" unicode="&#xaf;" 
d="M140 539v55h230v-55h-230z" />
    <glyph glyph-name="degree" unicode="&#xb0;" horiz-adv-x="377" 
d="M189 423q-57 0 -97 38.5t-40 93.5q0 56 40 94.5t97 38.5t96.5 -38.5t39.5 -94.5q0 -55 -39.5 -93.5t-96.5 -38.5zM189 473q36 0 58 23t22 59t-22 59.5t-58 23.5t-58 -23.5t-22 -59.5t22 -59t58 -23z" />
    <glyph glyph-name="two.superscript" unicode="&#xb2;" horiz-adv-x="337" 
d="M21 300v8l163 162q54 54 54 103q0 29 -17 46t-49 17q-61 0 -84 -67l-50 16q32 101 134 101q55 0 88.5 -32t33.5 -81q0 -62 -68 -130l-60 -61q-7 -7 -18.5 -16.5t-19.5 -15.5l-9 -6q37 5 55 5h121v-49h-274z" />
    <glyph glyph-name="three.superscript" unicode="&#xb3;" horiz-adv-x="333" 
d="M157 293q-101 0 -141 81l48 25q29 -55 92 -55q41 0 63.5 21.5t22.5 58.5q0 38 -24 58.5t-68 20.5q-36 0 -54 -10l-5 8l87 105l30 29q-31 -3 -44 -3h-113v48h240v-5l-87 -106q-16 -21 -30 -28q56 -2 90.5 -33.5t34.5 -84.5q0 -61 -39.5 -95.5t-102.5 -34.5z" />
    <glyph glyph-name="acute" unicode="&#xb4;" 
d="M226 498l68 193h80l-93 -193h-55z" />
    <glyph glyph-name="mu" unicode="&#xb5;" horiz-adv-x="550" 
d="M386 78v5q-18 -40 -53.5 -65t-80.5 -25q-75 0 -111 53q9 -42 9 -95v-163h-70v626h70v-243q0 -116 104 -116q56 0 91.5 35.5t35.5 100.5v223h70v-301q0 -57 44 -57h18v-57q-12 -2 -36 -2q-42 0 -66.5 23t-24.5 58z" />
    <glyph glyph-name="paragraph" unicode="&#xb6;" horiz-adv-x="588" 
d="M271 0v304h-22q-89 0 -141 53.5t-52 133.5t53.5 134.5t143.5 54.5h237v-680h-69v618h-80v-618h-70z" />
    <glyph glyph-name="periodcentered" unicode="&#xb7;" horiz-adv-x="212" 
d="M106 189q-21 0 -37.5 16t-16.5 39t16 38.5t38 15.5t38 -15.5t16 -38.5t-16 -39t-38 -16z" />
    <glyph glyph-name="cedilla" unicode="&#xb8;" 
d="M261 -232q-71 0 -101 59l40 25q20 -39 57 -39q20 0 33.5 12.5t13.5 34.5q0 21 -14 34.5t-41 13.5h-21v92h46v-53q35 -5 59 -29t24 -62q0 -40 -28.5 -64t-67.5 -24z" />
    <glyph glyph-name="one.superscript" unicode="&#xb9;" horiz-adv-x="220" 
d="M98 300v331h-76v49h132v-380h-56z" />
    <glyph glyph-name="ordmasculine" unicode="&#xba;" horiz-adv-x="464" 
d="M232 146q-77 0 -131 52.5t-54 130.5q0 77 54 130t131 53t131 -53t54 -130q0 -78 -54 -130.5t-131 -52.5zM232 201q53 0 86 36t33 92t-33 91.5t-86 35.5t-85.5 -35.5t-32.5 -91.5q0 -57 32.5 -92.5t85.5 -35.5z" />
    <glyph glyph-name="guillemotright" unicode="&#xbb;" horiz-adv-x="407" 
d="M198 37l96 162l-96 162h72l94 -158v-8l-94 -158h-72zM43 37l96 162l-96 162h72l94 -158v-8l-94 -158h-72z" />
    <glyph glyph-name="onequarter" unicode="&#xbc;" horiz-adv-x="880" 
d="M110 233v389h-89v58h155v-447h-66zM166 0l421 680h71l-420 -680h-72zM739 0v76h-243v36l299 341h8v-326h52v-51h-52v-76h-64zM619 174q-7 -8 -18.5 -19.5t-22.5 -20.5l-10 -10l12 1q13 1 30 1.5t27 0.5h102v138l3 68q-19 -32 -41 -57z" />
    <glyph glyph-name="onehalf" unicode="&#xbd;" horiz-adv-x="933" 
d="M167 0l420 680h72l-420 -680h-72zM110 233v389h-89v58h155v-447h-66zM566 0v9l192 191q63 63 63 121q0 34 -20.5 54t-57.5 20q-70 0 -98 -79l-60 19q18 57 58.5 88.5t100.5 31.5q64 0 103.5 -37.5t39.5 -96.5q0 -72 -80 -152l-73 -72q-11 -12 -30.5 -26.5t-25.5 -17.5
l26 2q26 2 39 2h145v-57h-322z" />
    <glyph glyph-name="threequarters" unicode="&#xbe;" horiz-adv-x="984" 
d="M180 225q-60 0 -102.5 26t-63.5 70l56 28q32 -65 109 -65q47 0 73.5 25.5t26.5 69.5q0 45 -28 68.5t-80 23.5q-36 0 -62 -10l-5 9l101 123l36 34q-36 -3 -52 -3h-134v56h282v-6l-102 -125q-15 -18 -36 -32q66 -3 107 -40.5t41 -99.5q0 -71 -47 -111.5t-120 -40.5zM270 0
l421 680h71l-420 -680h-72zM843 0v76h-243v36l299 341h8v-326h52v-51h-52v-76h-64zM723 174q-7 -8 -18.5 -19.5t-22.5 -20.5l-10 -10l12 1q13 1 30 1.5t27 0.5h102v138l3 68q-19 -32 -41 -57z" />
    <glyph glyph-name="questiondown" unicode="&#xbf;" horiz-adv-x="479" 
d="M268 687q21 0 37 -15.5t16 -37.5q0 -23 -16 -38.5t-37 -15.5t-37 15.5t-16 38.5q0 22 16 37.5t37 15.5zM300 493v-176h-33q-65 0 -102.5 -38t-37.5 -96q0 -59 34.5 -93.5t90.5 -34.5q50 0 82 21t55 67l58 -30q-25 -59 -75.5 -90t-119.5 -31q-88 0 -142.5 52.5
t-54.5 138.5q0 79 49.5 131t129.5 58v121h66z" />
    <glyph glyph-name="Agrave" unicode="&#xc0;" horiz-adv-x="665" 
d="M302 749l-93 193h80l68 -193h-55zM42 0l282 687h12l288 -687h-76l-62 153h-312l-61 -153h-71zM199 215h262l-105 260q-6 14 -12.5 34t-10 33t-3.5 14l-4 -14q-4 -13 -10.5 -32.5t-12.5 -33.5z" />
    <glyph glyph-name="Aacute" unicode="&#xc1;" horiz-adv-x="665" 
d="M303 749l68 193h80l-93 -193h-55zM42 0l282 687h12l288 -687h-76l-62 153h-312l-61 -153h-71zM199 215h262l-105 260q-6 14 -12.5 34t-10 33t-3.5 14l-4 -14q-4 -13 -10.5 -32.5t-12.5 -33.5z" />
    <glyph glyph-name="Acircumflex" unicode="&#xc2;" horiz-adv-x="665" 
d="M197 754l128 193h9l128 -193h-58l-74 101l-75 -101h-58zM42 0l282 687h12l288 -687h-76l-62 153h-312l-61 -153h-71zM199 215h262l-105 260q-6 14 -12.5 34t-10 33t-3.5 14l-4 -14q-4 -13 -10.5 -32.5t-12.5 -33.5z" />
    <glyph glyph-name="Atilde" unicode="&#xc3;" horiz-adv-x="665" 
d="M222 759l-54 5q3 52 29 81.5t66 29.5q38 0 77 -32q2 -2 7.5 -6t7 -5.5t5.5 -4.5t5.5 -4l4.5 -3t4.5 -2.5l4.5 -1.5t5 -1t4.5 -0.5t5.5 -0.5q36 0 42 59l54 -5q-3 -54 -28 -82t-67 -28q-37 0 -76 32q-23 18 -32.5 23t-22.5 5q-36 0 -42 -59zM42 0l282 687h12l288 -687h-76
l-62 153h-312l-61 -153h-71zM199 215h262l-105 260q-6 14 -12.5 34t-10 33t-3.5 14l-4 -14q-4 -13 -10.5 -32.5t-12.5 -33.5z" />
    <glyph glyph-name="Adieresis" unicode="&#xc4;" horiz-adv-x="665" 
d="M415 759q-18 0 -32 13.5t-14 32.5t14 32.5t32 13.5t32 -13.5t14 -32.5t-14 -32.5t-32 -13.5zM245 759q-18 0 -32 13.5t-14 32.5t14 32.5t32 13.5t32 -13.5t14 -32.5t-14 -32.5t-32 -13.5zM42 0l282 687h12l288 -687h-76l-62 153h-312l-61 -153h-71zM199 215h262l-105 260
q-6 14 -12.5 34t-10 33t-3.5 14l-4 -14q-4 -13 -10.5 -32.5t-12.5 -33.5z" />
    <glyph glyph-name="Aring" unicode="&#xc5;" horiz-adv-x="665" 
d="M330 742q-44 0 -74.5 29.5t-30.5 70.5q0 42 30.5 71.5t74.5 29.5t74.5 -29.5t30.5 -71.5q0 -41 -30.5 -70.5t-74.5 -29.5zM330 786q23 0 38 15.5t15 40.5q0 26 -14.5 41t-38.5 15t-38.5 -15t-14.5 -41q0 -25 15 -40.5t38 -15.5zM42 0l282 687h12l288 -687h-76l-62 153
h-312l-61 -153h-71zM199 215h262l-105 260q-6 14 -12.5 34t-10 33t-3.5 14l-4 -14q-4 -13 -10.5 -32.5t-12.5 -33.5z" />
    <glyph glyph-name="AE" unicode="&#xc6;" horiz-adv-x="963" 
d="M32 0l454 680h399v-64h-341v-243h304v-63h-304v-246h355v-64h-428v140h-270l-91 -140h-78zM244 202h227v284q0 10 0.5 22t1.5 22.5t2.5 19t2.5 14.5v6q-27 -54 -41 -75z" />
    <glyph glyph-name="Ccedilla" unicode="&#xc7;" horiz-adv-x="739" 
d="M389 -232q-73 0 -102 59l41 25q19 -39 57 -39q20 0 33 12.5t13 34.5q0 21 -14 34.5t-41 13.5h-21v87q-129 18 -212.5 113t-83.5 232q0 152 101 250t248 98q182 0 270 -132l-55 -40q-72 107 -215 107q-119 0 -196.5 -80.5t-77.5 -202.5t77.5 -202.5t196.5 -80.5
q145 0 224 114l56 -39q-46 -67 -118 -103.5t-162 -36.5h-6v-45q34 -5 58.5 -29t24.5 -62q0 -40 -29 -64t-67 -24z" />
    <glyph glyph-name="Egrave" unicode="&#xc8;" horiz-adv-x="590" 
d="M285 749l-93 193h80l68 -193h-55zM98 0v680h414v-64h-342v-243h305v-63h-305v-246h356v-64h-428z" />
    <glyph glyph-name="Eacute" unicode="&#xc9;" horiz-adv-x="590" 
d="M285 749l68 193h80l-93 -193h-55zM98 0v680h414v-64h-342v-243h305v-63h-305v-246h356v-64h-428z" />
    <glyph glyph-name="Ecircumflex" unicode="&#xca;" horiz-adv-x="590" 
d="M177 754l128 193h9l128 -193h-58l-74 101l-75 -101h-58zM98 0v680h414v-64h-342v-243h305v-63h-305v-246h356v-64h-428z" />
    <glyph glyph-name="Edieresis" unicode="&#xcb;" horiz-adv-x="590" 
d="M397 759q-18 0 -32 13.5t-14 32.5t14 32.5t32 13.5t32 -13.5t14 -32.5t-14 -32.5t-32 -13.5zM227 759q-18 0 -32 13.5t-14 32.5t14 32.5t32 13.5t32 -13.5t14 -32.5t-14 -32.5t-32 -13.5zM98 0v680h414v-64h-342v-243h305v-63h-305v-246h356v-64h-428z" />
    <glyph glyph-name="Igrave" unicode="&#xcc;" horiz-adv-x="275" 
d="M110 749l-93 193h80l68 -193h-55zM101 0v680h73v-680h-73z" />
    <glyph glyph-name="Iacute" unicode="&#xcd;" horiz-adv-x="275" 
d="M111 749l68 193h80l-93 -193h-55zM101 0v680h73v-680h-73z" />
    <glyph glyph-name="Icircumflex" unicode="&#xce;" horiz-adv-x="275" 
d="M5 754l128 193h9l128 -193h-58l-74 101l-75 -101h-58zM101 0v680h73v-680h-73z" />
    <glyph glyph-name="Idieresis" unicode="&#xcf;" horiz-adv-x="275" 
d="M223 759q-18 0 -32 13.5t-14 32.5t14 32.5t32 13.5t32 -13.5t14 -32.5t-14 -32.5t-32 -13.5zM53 759q-18 0 -32 13.5t-14 32.5t14 32.5t32 13.5t32 -13.5t14 -32.5t-14 -32.5t-32 -13.5zM101 0v680h73v-680h-73z" />
    <glyph glyph-name="Eth" unicode="&#xd0;" horiz-adv-x="690" 
d="M98 0v309h-79v63h79v308h173q164 0 262 -94t98 -246t-97.5 -246t-262.5 -94h-173zM170 65h96q141 0 215 74.5t74 200.5t-74 200.5t-215 74.5h-96v-243h183v-63h-183v-244z" />
    <glyph glyph-name="Ntilde" unicode="&#xd1;" horiz-adv-x="723" 
d="M259 759l-54 5q3 52 29 81.5t66 29.5q37 0 77 -32q2 -2 7.5 -6t7 -5.5t5.5 -4.5t5.5 -4l4.5 -3t4.5 -2.5l4.5 -1.5t5 -1t4.5 -0.5t5.5 -0.5q36 0 42 59l54 -5q-3 -54 -28 -82t-67 -28q-37 0 -77 32q-23 18 -32 23t-22 5q-36 0 -42 -59zM613 -7l-406 480q-33 38 -47 62
q0 -1 1.5 -15t3 -31.5t1.5 -29.5v-459h-68v687h12l406 -480q6 -8 14.5 -19t14.5 -19.5t12 -16t6 -8.5l-1 14q-2 13 -3 31.5t-1 31.5v459h67v-687h-12z" />
    <glyph glyph-name="Ograve" unicode="&#xd2;" horiz-adv-x="817" 
d="M380 749l-93 193h80l68 -193h-55zM408 -8q-147 0 -248 98t-101 250t101 250t248 98q148 0 249 -98t101 -250t-101 -250t-249 -98zM408 57q119 0 197 80.5t78 202.5t-78 202.5t-197 80.5q-118 0 -196 -80.5t-78 -202.5t78 -202.5t196 -80.5z" />
    <glyph glyph-name="Oacute" unicode="&#xd3;" horiz-adv-x="817" 
d="M381 749l68 193h80l-93 -193h-55zM408 -8q-147 0 -248 98t-101 250t101 250t248 98q148 0 249 -98t101 -250t-101 -250t-249 -98zM408 57q119 0 197 80.5t78 202.5t-78 202.5t-197 80.5q-118 0 -196 -80.5t-78 -202.5t78 -202.5t196 -80.5z" />
    <glyph glyph-name="Ocircumflex" unicode="&#xd4;" horiz-adv-x="817" 
d="M275 754l128 193h9l128 -193h-58l-74 101l-75 -101h-58zM408 -8q-147 0 -248 98t-101 250t101 250t248 98q148 0 249 -98t101 -250t-101 -250t-249 -98zM408 57q119 0 197 80.5t78 202.5t-78 202.5t-197 80.5q-118 0 -196 -80.5t-78 -202.5t78 -202.5t196 -80.5z" />
    <glyph glyph-name="Otilde" unicode="&#xd5;" horiz-adv-x="817" 
d="M301 759l-53 5q3 53 28.5 82t66.5 29q37 0 77 -32q3 -3 9 -7.5t8.5 -6.5t6.5 -5t6 -4t5.5 -2.5t6 -2t5.5 -1t7 -0.5q35 0 41 59l54 -5q-3 -54 -27.5 -82t-66.5 -28q-37 0 -77 32q-23 18 -32 23t-22 5q-37 0 -43 -59zM408 -8q-147 0 -248 98t-101 250t101 250t248 98
q148 0 249 -98t101 -250t-101 -250t-249 -98zM408 57q119 0 197 80.5t78 202.5t-78 202.5t-197 80.5q-118 0 -196 -80.5t-78 -202.5t78 -202.5t196 -80.5z" />
    <glyph glyph-name="Odieresis" unicode="&#xd6;" horiz-adv-x="817" 
d="M493 759q-18 0 -32 13.5t-14 32.5t14 32.5t32 13.5t32 -13.5t14 -32.5t-14 -32.5t-32 -13.5zM323 759q-18 0 -32 13.5t-14 32.5t14 32.5t32 13.5t32 -13.5t14 -32.5t-14 -32.5t-32 -13.5zM408 -8q-147 0 -248 98t-101 250t101 250t248 98q148 0 249 -98t101 -250
t-101 -250t-249 -98zM408 57q119 0 197 80.5t78 202.5t-78 202.5t-197 80.5q-118 0 -196 -80.5t-78 -202.5t78 -202.5t196 -80.5z" />
    <glyph glyph-name="multiply" unicode="&#xd7;" horiz-adv-x="423" 
d="M211 276l-116 -117l-43 43l117 117l-117 117l42 42l117 -117l118 118l42 -43l-117 -117l117 -118l-42 -42z" />
    <glyph glyph-name="Oslash" unicode="&#xd8;" horiz-adv-x="817" 
d="M679 566q79 -95 79 -226q0 -152 -101 -250t-249 -98q-131 0 -226 78l-80 -80l-45 44l81 80q-79 95 -79 226q0 152 101 250t248 98q131 0 227 -79l80 80l44 -44zM189 165l66 66t128 127.5t145 143.5l57 58q-72 63 -177 63q-118 0 -196 -80.5t-78 -202.5q0 -100 55 -175z
M628 515l-396 -396q75 -62 176 -62q119 0 197 80.5t78 202.5q0 100 -55 175z" />
    <glyph glyph-name="Ugrave" unicode="&#xd9;" horiz-adv-x="672" 
d="M308 749l-93 193h80l68 -193h-55zM336 -8q-108 0 -176 62.5t-68 177.5v448h72v-443q0 -89 45.5 -135t126.5 -46t126.5 46t45.5 135v443h72v-448q0 -115 -68 -177.5t-176 -62.5z" />
    <glyph glyph-name="Uacute" unicode="&#xda;" horiz-adv-x="672" 
d="M308 749l68 193h80l-93 -193h-55zM336 -8q-108 0 -176 62.5t-68 177.5v448h72v-443q0 -89 45.5 -135t126.5 -46t126.5 46t45.5 135v443h72v-448q0 -115 -68 -177.5t-176 -62.5z" />
    <glyph glyph-name="Ucircumflex" unicode="&#xdb;" horiz-adv-x="672" 
d="M203 754l128 193h9l128 -193h-58l-74 101l-75 -101h-58zM336 -8q-108 0 -176 62.5t-68 177.5v448h72v-443q0 -89 45.5 -135t126.5 -46t126.5 46t45.5 135v443h72v-448q0 -115 -68 -177.5t-176 -62.5z" />
    <glyph glyph-name="Udieresis" unicode="&#xdc;" horiz-adv-x="672" 
d="M420 759q-18 0 -32 13.5t-14 32.5t14 32.5t32 13.5t32 -13.5t14 -32.5t-14 -32.5t-32 -13.5zM250 759q-18 0 -32 13.5t-14 32.5t14 32.5t32 13.5t32 -13.5t14 -32.5t-14 -32.5t-32 -13.5zM336 -8q-108 0 -176 62.5t-68 177.5v448h72v-443q0 -89 45.5 -135t126.5 -46
t126.5 46t45.5 135v443h72v-448q0 -115 -68 -177.5t-176 -62.5z" />
    <glyph glyph-name="Yacute" unicode="&#xdd;" horiz-adv-x="620" 
d="M286 749l68 193h80l-93 -193h-55zM276 0v250l-237 430h82l164 -301q6 -11 13 -27.5t11.5 -28.5t4.5 -13q7 28 29 69l163 301h75l-231 -428v-252h-74z" />
    <glyph glyph-name="Thorn" unicode="&#xde;" horiz-adv-x="594" 
d="M98 0v680h72v-126h127q112 0 177 -54t65 -157q0 -101 -65 -155.5t-177 -54.5h-127v-133h-72zM170 197h123q172 0 172 146q0 147 -172 147h-123v-293z" />
    <glyph glyph-name="germandbls" unicode="&#xdf;" horiz-adv-x="550" 
d="M288 -5q-44 0 -76 13l15 57q21 -9 54 -9q70 0 107 41.5t37 112.5q0 75 -47 116.5t-133 40.5v58q55 6 86 41t31 92q0 59 -29.5 88.5t-75.5 29.5q-48 0 -78 -31.5t-30 -99.5v-545h-70v546q0 93 51 141t127 48q74 0 122.5 -46t48.5 -129q0 -113 -96 -154q75 -15 120 -66.5
t45 -130.5q0 -95 -55.5 -154.5t-153.5 -59.5z" />
    <glyph glyph-name="agrave" unicode="&#xe0;" horiz-adv-x="481" 
d="M210 498l-93 193h80l68 -193h-55zM336 243v10q0 111 -97 111q-76 0 -121 -60l-43 39q59 80 169 80q72 0 117 -43t45 -126v-254h-70l3 62q-47 -70 -137 -70q-69 0 -110.5 32t-41.5 94q0 61 44 93t113 32h129zM336 190h-124q-94 0 -94 -69q0 -72 100 -72q49 0 83.5 24.5
t34.5 64.5v52z" />
    <glyph glyph-name="aacute" unicode="&#xe1;" horiz-adv-x="481" 
d="M211 498l68 193h80l-93 -193h-55zM336 243v10q0 111 -97 111q-76 0 -121 -60l-43 39q59 80 169 80q72 0 117 -43t45 -126v-254h-70l3 62q-47 -70 -137 -70q-69 0 -110.5 32t-41.5 94q0 61 44 93t113 32h129zM336 190h-124q-94 0 -94 -69q0 -72 100 -72q49 0 83.5 24.5
t34.5 64.5v52z" />
    <glyph glyph-name="acircumflex" unicode="&#xe2;" horiz-adv-x="481" 
d="M106 503l128 193h9l128 -193h-58l-74 101l-75 -101h-58zM336 243v10q0 111 -97 111q-76 0 -121 -60l-43 39q59 80 169 80q72 0 117 -43t45 -126v-254h-70l3 62q-47 -70 -137 -70q-69 0 -110.5 32t-41.5 94q0 61 44 93t113 32h129zM336 190h-124q-94 0 -94 -69
q0 -72 100 -72q49 0 83.5 24.5t34.5 64.5v52z" />
    <glyph glyph-name="atilde" unicode="&#xe3;" horiz-adv-x="481" 
d="M144 509l-52 4q3 53 26.5 82t60.5 29q32 0 69 -32q20 -18 28.5 -23t19.5 -5q30 0 36 58l52 -5q-3 -53 -25.5 -81.5t-60.5 -28.5q-31 0 -69 33q-20 18 -28.5 23t-19.5 5q-31 0 -37 -59zM336 243v10q0 111 -97 111q-76 0 -121 -60l-43 39q59 80 169 80q72 0 117 -43
t45 -126v-254h-70l3 62q-47 -70 -137 -70q-69 0 -110.5 32t-41.5 94q0 61 44 93t113 32h129zM336 190h-124q-94 0 -94 -69q0 -72 100 -72q49 0 83.5 24.5t34.5 64.5v52z" />
    <glyph glyph-name="adieresis" unicode="&#xe4;" horiz-adv-x="481" 
d="M323 537q-18 0 -32 13.5t-14 32.5t14 32.5t32 13.5t32 -13.5t14 -32.5t-14 -32.5t-32 -13.5zM153 537q-18 0 -32 13.5t-14 32.5t14 32.5t32 13.5t32 -13.5t14 -32.5t-14 -32.5t-32 -13.5zM336 243v10q0 111 -97 111q-76 0 -121 -60l-43 39q59 80 169 80q72 0 117 -43
t45 -126v-254h-70l3 62q-47 -70 -137 -70q-69 0 -110.5 32t-41.5 94q0 61 44 93t113 32h129zM336 190h-124q-94 0 -94 -69q0 -72 100 -72q49 0 83.5 24.5t34.5 64.5v52z" />
    <glyph glyph-name="aring" unicode="&#xe5;" horiz-adv-x="481" 
d="M238 484q-44 0 -74.5 29.5t-30.5 70.5q0 42 30.5 71.5t74.5 29.5t74.5 -29.5t30.5 -71.5q0 -41 -30.5 -70.5t-74.5 -29.5zM238 528q23 0 38 15.5t15 40.5q0 26 -14.5 41t-38.5 15t-38.5 -15t-14.5 -41q0 -25 15 -40.5t38 -15.5zM336 243v10q0 111 -97 111q-76 0 -121 -60
l-43 39q59 80 169 80q72 0 117 -43t45 -126v-254h-70l3 62q-47 -70 -137 -70q-69 0 -110.5 32t-41.5 94q0 61 44 93t113 32h129zM336 190h-124q-94 0 -94 -69q0 -72 100 -72q49 0 83.5 24.5t34.5 64.5v52z" />
    <glyph glyph-name="ae" unicode="&#xe6;" horiz-adv-x="809" 
d="M336 240v12q0 112 -97 112q-76 0 -121 -60l-43 39q59 80 169 80q104 0 137 -94q27 42 71 68t97 26q98 0 155 -66.5t54 -168.5h-353q6 -61 46.5 -99t107.5 -38q81 0 132 55l42 -42q-64 -72 -173 -72q-126 0 -182 97q-16 -47 -62.5 -72t-104.5 -25q-73 0 -117 31.5
t-44 93.5q0 61 44 92t113 31h129zM407 240h280q-5 53 -40 88.5t-97 35.5q-57 0 -95.5 -34.5t-47.5 -89.5zM336 188h-124q-94 0 -94 -68q0 -71 100 -71q49 0 83.5 24.5t34.5 64.5v50z" />
    <glyph glyph-name="ccedilla" unicode="&#xe7;" horiz-adv-x="477" 
d="M222 -3q-75 15 -122 73.5t-47 136.5q0 91 62 153.5t153 62.5q102 0 163 -74l-50 -41q-40 53 -113 53q-65 0 -104 -43.5t-39 -110.5t39 -110.5t104 -43.5q74 0 119 54l48 -41q-61 -74 -165 -74v-45q34 -5 58 -29t24 -62q0 -40 -28.5 -64t-67.5 -24q-72 0 -101 59l43 25
q8 -13 13 -19.5t15.5 -12t25.5 -5.5q19 0 32 12t13 33t-13.5 34t-39.5 13h-22v90z" />
    <glyph glyph-name="egrave" unicode="&#xe8;" horiz-adv-x="526" 
d="M236 498l-93 193h80l68 -193h-55zM123 184q7 -61 47 -97t107 -36q81 0 131 55l43 -42q-64 -72 -174 -72q-100 0 -162 61.5t-62 153.5q0 91 61.5 153.5t152.5 62.5q98 0 155 -67.5t53 -171.5h-352zM124 237h281q-5 56 -40 91.5t-98 35.5q-58 0 -96.5 -34.5t-46.5 -92.5z
" />
    <glyph glyph-name="eacute" unicode="&#xe9;" horiz-adv-x="526" 
d="M237 498l68 193h80l-93 -193h-55zM123 184q7 -61 47 -97t107 -36q81 0 131 55l43 -42q-64 -72 -174 -72q-100 0 -162 61.5t-62 153.5q0 91 61.5 153.5t152.5 62.5q98 0 155 -67.5t53 -171.5h-352zM124 237h281q-5 56 -40 91.5t-98 35.5q-58 0 -96.5 -34.5t-46.5 -92.5z
" />
    <glyph glyph-name="ecircumflex" unicode="&#xea;" horiz-adv-x="526" 
d="M131 503l128 193h9l128 -193h-58l-74 101l-75 -101h-58zM123 184q7 -61 47 -97t107 -36q81 0 131 55l43 -42q-64 -72 -174 -72q-100 0 -162 61.5t-62 153.5q0 91 61.5 153.5t152.5 62.5q98 0 155 -67.5t53 -171.5h-352zM124 237h281q-5 56 -40 91.5t-98 35.5
q-58 0 -96.5 -34.5t-46.5 -92.5z" />
    <glyph glyph-name="edieresis" unicode="&#xeb;" horiz-adv-x="526" 
d="M349 537q-18 0 -32 13.5t-14 32.5t14 32.5t32 13.5t32 -13.5t14 -32.5t-14 -32.5t-32 -13.5zM179 537q-18 0 -32 13.5t-14 32.5t14 32.5t32 13.5t32 -13.5t14 -32.5t-14 -32.5t-32 -13.5zM123 184q7 -61 47 -97t107 -36q81 0 131 55l43 -42q-64 -72 -174 -72
q-100 0 -162 61.5t-62 153.5q0 91 61.5 153.5t152.5 62.5q98 0 155 -67.5t53 -171.5h-352zM124 237h281q-5 56 -40 91.5t-98 35.5q-58 0 -96.5 -34.5t-46.5 -92.5z" />
    <glyph glyph-name="igrave" unicode="&#xec;" horiz-adv-x="232" 
d="M88 498l-93 193h80l68 -193h-55zM81 0v414h70v-414h-70z" />
    <glyph glyph-name="iacute" unicode="&#xed;" horiz-adv-x="232" 
d="M89 498l68 193h80l-93 -193h-55zM81 0v414h70v-414h-70z" />
    <glyph glyph-name="icircumflex" unicode="&#xee;" horiz-adv-x="232" 
d="M-16 503l128 193h9l128 -193h-58l-74 101l-75 -101h-58zM81 0v414h70v-414h-70z" />
    <glyph glyph-name="idieresis" unicode="&#xef;" horiz-adv-x="232" 
d="M192 537q-18 0 -32 13.5t-14 32.5t14 32.5t32 13.5t32 -13.5t14 -32.5t-14 -32.5t-32 -13.5zM40 537q-18 0 -32 13.5t-14 32.5t14 32.5t32 13.5t32 -13.5t14 -32.5t-14 -32.5t-32 -13.5zM81 0v414h70v-414h-70z" />
    <glyph glyph-name="eth" unicode="&#xf0;" horiz-adv-x="544" 
d="M281 575l-67 -65l-35 35l70 68q-40 46 -84 82l39 43q44 -35 89 -81l67 66l37 -36l-70 -67q164 -191 164 -393q0 -103 -62.5 -169t-155.5 -66t-156.5 62t-63.5 153t62.5 153.5t149.5 62.5q86 0 135 -65q-29 109 -119 217zM273 52q65 0 106 45t41 114q0 66 -41 108.5
t-106 42.5q-66 0 -107.5 -44t-41.5 -111t41.5 -111t107.5 -44z" />
    <glyph glyph-name="ntilde" unicode="&#xf1;" horiz-adv-x="526" 
d="M167 509l-52 4q3 53 26.5 82t60.5 29q32 0 69 -32q20 -18 28.5 -23t19.5 -5q30 0 36 58l52 -5q-3 -53 -25.5 -81.5t-60.5 -28.5q-31 0 -69 33q-20 18 -28.5 23t-19.5 5q-31 0 -37 -59zM79 0v414h70l-2 -85q20 44 59.5 69t89.5 25q70 0 112.5 -45.5t42.5 -125.5v-252h-70
v244q0 115 -103 115q-58 0 -93.5 -35t-35.5 -96v-228h-70z" />
    <glyph glyph-name="ograve" unicode="&#xf2;" horiz-adv-x="544" 
d="M243 498l-93 193h80l68 -193h-55zM273 -8q-93 0 -156.5 62t-63.5 153t63.5 153.5t156.5 62.5q92 0 155 -62.5t63 -153.5t-63 -153t-155 -62zM273 52q65 0 106 44t41 111t-41 111t-106 44q-66 0 -107.5 -44t-41.5 -111t41.5 -111t107.5 -44z" />
    <glyph glyph-name="oacute" unicode="&#xf3;" horiz-adv-x="544" 
d="M244 498l68 193h80l-93 -193h-55zM273 -8q-93 0 -156.5 62t-63.5 153t63.5 153.5t156.5 62.5q92 0 155 -62.5t63 -153.5t-63 -153t-155 -62zM273 52q65 0 106 44t41 111t-41 111t-106 44q-66 0 -107.5 -44t-41.5 -111t41.5 -111t107.5 -44z" />
    <glyph glyph-name="ocircumflex" unicode="&#xf4;" horiz-adv-x="544" 
d="M138 503l128 193h9l128 -193h-58l-74 101l-75 -101h-58zM273 -8q-93 0 -156.5 62t-63.5 153t63.5 153.5t156.5 62.5q92 0 155 -62.5t63 -153.5t-63 -153t-155 -62zM273 52q65 0 106 44t41 111t-41 111t-106 44q-66 0 -107.5 -44t-41.5 -111t41.5 -111t107.5 -44z" />
    <glyph glyph-name="otilde" unicode="&#xf5;" horiz-adv-x="544" 
d="M177 509l-52 4q3 53 26.5 82t60.5 29q32 0 69 -32q20 -18 28.5 -23t19.5 -5q30 0 36 58l52 -5q-3 -53 -25.5 -81.5t-60.5 -28.5q-31 0 -69 33q-20 18 -28.5 23t-19.5 5q-31 0 -37 -59zM273 -8q-93 0 -156.5 62t-63.5 153t63.5 153.5t156.5 62.5q92 0 155 -62.5t63 -153.5
t-63 -153t-155 -62zM273 52q65 0 106 44t41 111t-41 111t-106 44q-66 0 -107.5 -44t-41.5 -111t41.5 -111t107.5 -44z" />
    <glyph glyph-name="odieresis" unicode="&#xf6;" horiz-adv-x="544" 
d="M356 537q-18 0 -32 13.5t-14 32.5t14 32.5t32 13.5t32 -13.5t14 -32.5t-14 -32.5t-32 -13.5zM186 537q-18 0 -32 13.5t-14 32.5t14 32.5t32 13.5t32 -13.5t14 -32.5t-14 -32.5t-32 -13.5zM273 -8q-93 0 -156.5 62t-63.5 153t63.5 153.5t156.5 62.5q92 0 155 -62.5
t63 -153.5t-63 -153t-155 -62zM273 52q65 0 106 44t41 111t-41 111t-106 44q-66 0 -107.5 -44t-41.5 -111t41.5 -111t107.5 -44z" />
    <glyph glyph-name="divide" unicode="&#xf7;" horiz-adv-x="423" 
d="M211 425q-21 0 -37 15.5t-16 38.5q0 22 16 37.5t37 15.5t37.5 -15.5t16.5 -37.5q0 -23 -16 -38.5t-38 -15.5zM379 291h-335v62h335v-62zM211 112q-21 0 -37 15.5t-16 38.5q0 22 16 37.5t37 15.5t37.5 -15.5t16.5 -37.5q0 -23 -16 -38.5t-38 -15.5z" />
    <glyph glyph-name="oslash" unicode="&#xf8;" horiz-adv-x="544" 
d="M449 336q42 -58 42 -129q0 -91 -63 -153t-155 -62q-81 0 -142 50l-58 -54l-35 37l58 53q-43 57 -43 129q0 91 63.5 153.5t156.5 62.5q80 0 140 -50l57 52l35 -37zM143 122l225 208q-39 33 -95 33q-67 0 -109 -44t-42 -112q0 -45 21 -85zM401 291l-225 -207q41 -33 97 -33
q66 0 107.5 44t41.5 112q0 49 -21 84z" />
    <glyph glyph-name="ugrave" unicode="&#xf9;" horiz-adv-x="525" 
d="M233 498l-93 193h80l68 -193h-55zM230 -9q-70 0 -112.5 45.5t-42.5 123.5v254h70v-247q0 -112 102 -112q59 0 94 35.5t35 95.5v228h70v-414h-70l2 84q-20 -44 -59 -68.5t-89 -24.5z" />
    <glyph glyph-name="uacute" unicode="&#xfa;" horiz-adv-x="525" 
d="M233 498l68 193h80l-93 -193h-55zM230 -9q-70 0 -112.5 45.5t-42.5 123.5v254h70v-247q0 -112 102 -112q59 0 94 35.5t35 95.5v228h70v-414h-70l2 84q-20 -44 -59 -68.5t-89 -24.5z" />
    <glyph glyph-name="ucircumflex" unicode="&#xfb;" horiz-adv-x="525" 
d="M128 503l128 193h9l128 -193h-58l-74 101l-75 -101h-58zM230 -9q-70 0 -112.5 45.5t-42.5 123.5v254h70v-247q0 -112 102 -112q59 0 94 35.5t35 95.5v228h70v-414h-70l2 84q-20 -44 -59 -68.5t-89 -24.5z" />
    <glyph glyph-name="udieresis" unicode="&#xfc;" horiz-adv-x="525" 
d="M346 537q-18 0 -32 13.5t-14 32.5t14 32.5t32 13.5t32 -13.5t14 -32.5t-14 -32.5t-32 -13.5zM176 537q-18 0 -32 13.5t-14 32.5t14 32.5t32 13.5t32 -13.5t14 -32.5t-14 -32.5t-32 -13.5zM230 -9q-70 0 -112.5 45.5t-42.5 123.5v254h70v-247q0 -112 102 -112
q59 0 94 35.5t35 95.5v228h70v-414h-70l2 84q-20 -44 -59 -68.5t-89 -24.5z" />
    <glyph glyph-name="yacute" unicode="&#xfd;" horiz-adv-x="472" 
d="M216 498l68 193h80l-93 -193h-55zM100 -212l106 247l-176 379h77l117 -257q4 -10 19 -69q7 43 19 69l108 257h72l-270 -626h-72z" />
    <glyph glyph-name="thorn" unicode="&#xfe;" horiz-adv-x="562" 
d="M81 -212v934h70v-393q50 94 160 94q85 0 141.5 -61.5t56.5 -153.5q0 -93 -57 -154.5t-142 -61.5q-54 0 -96 26t-63 68v-298h-70zM294 53q65 0 104 43.5t39 111.5q0 67 -39 110t-104 43q-66 0 -106.5 -43t-40.5 -110q0 -68 40.5 -111.5t106.5 -43.5z" />
    <glyph glyph-name="ydieresis" unicode="&#xff;" horiz-adv-x="472" 
d="M328 537q-18 0 -32 13.5t-14 32.5t14 32.5t32 13.5t32 -13.5t14 -32.5t-14 -32.5t-32 -13.5zM158 537q-18 0 -32 13.5t-14 32.5t14 32.5t32 13.5t32 -13.5t14 -32.5t-14 -32.5t-32 -13.5zM100 -212l106 247l-176 379h77l117 -257q4 -10 19 -69q7 43 19 69l108 257h72
l-270 -626h-72z" />
    <glyph glyph-name="Amacron" unicode="&#x100;" horiz-adv-x="665" 
d="M215 768v55h230v-55h-230zM42 0l282 687h12l288 -687h-76l-62 153h-312l-61 -153h-71zM199 215h262l-105 260q-6 14 -12.5 34t-10 33t-3.5 14l-4 -14q-4 -13 -10.5 -32.5t-12.5 -33.5z" />
    <glyph glyph-name="amacron" unicode="&#x101;" horiz-adv-x="481" 
d="M123 539v55h230v-55h-230zM336 243v10q0 111 -97 111q-76 0 -121 -60l-43 39q59 80 169 80q72 0 117 -43t45 -126v-254h-70l3 62q-47 -70 -137 -70q-69 0 -110.5 32t-41.5 94q0 61 44 93t113 32h129zM336 190h-124q-94 0 -94 -69q0 -72 100 -72q49 0 83.5 24.5t34.5 64.5
v52z" />
    <glyph glyph-name="Abreve" unicode="&#x102;" horiz-adv-x="665" 
d="M330 750q-56 0 -89.5 32t-41.5 85l56 9q16 -71 75 -71t75 71l56 -9q-8 -53 -41.5 -85t-89.5 -32zM42 0l282 687h12l288 -687h-76l-62 153h-312l-61 -153h-71zM199 215h262l-105 260q-6 14 -12.5 34t-10 33t-3.5 14l-4 -14q-4 -13 -10.5 -32.5t-12.5 -33.5z" />
    <glyph glyph-name="abreve" unicode="&#x103;" horiz-adv-x="481" 
d="M238 499q-56 0 -89.5 32t-41.5 85l56 9q16 -71 75 -71t75 71l56 -9q-8 -53 -41.5 -85t-89.5 -32zM336 243v10q0 111 -97 111q-76 0 -121 -60l-43 39q59 80 169 80q72 0 117 -43t45 -126v-254h-70l3 62q-47 -70 -137 -70q-69 0 -110.5 32t-41.5 94q0 61 44 93t113 32h129z
M336 190h-124q-94 0 -94 -69q0 -72 100 -72q49 0 83.5 24.5t34.5 64.5v52z" />
    <glyph glyph-name="Aogonek" unicode="&#x104;" horiz-adv-x="665" 
d="M587 -232q-39 0 -66 23t-27 65q0 40 42 101l18 26l-68 170h-312l-61 -153h-71l282 687h12l285 -682l-38 -62q-15 -24 -19.5 -32.5t-9.5 -23t-5 -29.5q0 -21 12 -32t30 -11q30 0 53 36l41 -24q-30 -59 -98 -59zM198 215h263l-105 260q-6 14 -12.5 34t-10 33t-3.5 14
l-4 -14q-4 -13 -10.5 -32.5t-12.5 -33.5z" />
    <glyph glyph-name="aogonek" unicode="&#x105;" horiz-adv-x="481" 
d="M406 15l-45 -74q-31 -50 -31 -83q0 -20 11 -30.5t28 -10.5q30 0 51 35l44 -25q-30 -59 -98 -59q-39 0 -66 23t-27 65q0 46 41 101l21 28l4 77q-47 -70 -137 -70q-69 0 -110.5 32t-41.5 94q0 61 44 93t113 32h129v10q0 111 -97 111q-76 0 -121 -60l-43 39q59 80 169 80
q72 0 117 -43t45 -126v-239zM336 190h-124q-94 0 -94 -69q0 -72 100 -72q49 0 83.5 24.5t34.5 64.5v52z" />
    <glyph glyph-name="Cacute" unicode="&#x106;" horiz-adv-x="736" 
d="M368 749l68 193h80l-93 -193h-55zM408 -8q-147 0 -248 98t-101 250t101 250t248 98q182 0 270 -132l-55 -40q-72 107 -215 107q-119 0 -196.5 -80.5t-77.5 -202.5t77.5 -202.5t196.5 -80.5q145 0 224 114l56 -39q-46 -67 -118 -103.5t-162 -36.5z" />
    <glyph glyph-name="cacute" unicode="&#x107;" horiz-adv-x="477" 
d="M231 498l68 193h80l-93 -193h-55zM268 -8q-91 0 -153 62t-62 153t62 153.5t153 62.5q102 0 163 -74l-50 -41q-40 53 -113 53q-65 0 -104 -43.5t-39 -110.5t39 -110.5t104 -43.5q74 0 119 54l48 -41q-61 -74 -167 -74z" />
    <glyph glyph-name="Ccircumflex" unicode="&#x108;" horiz-adv-x="736" 
d="M262 754l128 193h9l128 -193h-58l-74 101l-75 -101h-58zM408 -8q-147 0 -248 98t-101 250t101 250t248 98q182 0 270 -132l-55 -40q-72 107 -215 107q-119 0 -196.5 -80.5t-77.5 -202.5t77.5 -202.5t196.5 -80.5q145 0 224 114l56 -39q-46 -67 -118 -103.5t-162 -36.5z
" />
    <glyph glyph-name="ccircumflex" unicode="&#x109;" horiz-adv-x="477" 
d="M126 503l128 193h9l128 -193h-58l-74 101l-75 -101h-58zM268 -8q-91 0 -153 62t-62 153t62 153.5t153 62.5q102 0 163 -74l-50 -41q-40 53 -113 53q-65 0 -104 -43.5t-39 -110.5t39 -110.5t104 -43.5q74 0 119 54l48 -41q-61 -74 -167 -74z" />
    <glyph glyph-name="Cdotaccent" unicode="&#x10a;" horiz-adv-x="736" 
d="M395 756q-20 0 -35 14t-15 35t15 35.5t35 14.5t35 -14.5t15 -35.5t-15 -35t-35 -14zM408 -8q-147 0 -248 98t-101 250t101 250t248 98q182 0 270 -132l-55 -40q-72 107 -215 107q-119 0 -196.5 -80.5t-77.5 -202.5t77.5 -202.5t196.5 -80.5q145 0 224 114l56 -39
q-46 -67 -118 -103.5t-162 -36.5z" />
    <glyph glyph-name="cdotaccent" unicode="&#x10b;" horiz-adv-x="478" 
d="M259 534q-20 0 -35 14t-15 35t15 35.5t35 14.5t35 -14.5t15 -35.5t-15 -35t-35 -14zM268 -8q-91 0 -153 62t-62 153t62 153.5t153 62.5q102 0 163 -74l-50 -41q-40 53 -113 53q-65 0 -104 -43.5t-39 -110.5t39 -110.5t104 -43.5q74 0 119 54l48 -41q-61 -74 -167 -74z
" />
    <glyph glyph-name="Ccaron" unicode="&#x10c;" horiz-adv-x="736" 
d="M390 740l-128 192h58l74 -101l75 101h58l-128 -192h-9zM408 -8q-147 0 -248 98t-101 250t101 250t248 98q182 0 270 -132l-55 -40q-72 107 -215 107q-119 0 -196.5 -80.5t-77.5 -202.5t77.5 -202.5t196.5 -80.5q145 0 224 114l56 -39q-46 -67 -118 -103.5t-162 -36.5z
" />
    <glyph glyph-name="ccaron" unicode="&#x10d;" horiz-adv-x="478" 
d="M254 495l-128 192h58l74 -101l75 101h58l-128 -192h-9zM268 -8q-91 0 -153 62t-62 153t62 153.5t153 62.5q102 0 163 -74l-50 -41q-40 53 -113 53q-65 0 -104 -43.5t-39 -110.5t39 -110.5t104 -43.5q74 0 119 54l48 -41q-61 -74 -167 -74z" />
    <glyph glyph-name="Dcaron" unicode="&#x10e;" horiz-adv-x="690" 
d="M307 740l-128 192h58l74 -101l75 101h58l-128 -192h-9zM98 0v680h165q170 0 269 -92.5t99 -247.5t-99 -247.5t-269 -92.5h-165zM170 65h88q146 0 221.5 74.5t75.5 200.5t-75.5 200.5t-221.5 74.5h-88v-550z" />
    <glyph glyph-name="dcaron" unicode="&#x10f;" horiz-adv-x="650" 
d="M254 -8q-85 0 -143 61.5t-58 154.5q0 92 58 153.5t142 61.5q108 0 159 -94v393h69v-722h-69l2 89q-22 -44 -64 -70.5t-96 -26.5zM554 482l34 104q-14 5 -23.5 18t-9.5 30q0 22 15.5 37.5t36.5 15.5t37 -15.5t16 -36.5q0 -13 -13 -41l-56 -112h-37zM268 53
q66 0 106.5 43.5t40.5 111.5q0 67 -40.5 110t-106.5 43q-65 0 -104 -43t-39 -110q0 -68 39 -111.5t104 -43.5z" />
    <glyph glyph-name="Dcroat" unicode="&#x110;" horiz-adv-x="690" 
d="M98 0v309h-79v63h79v308h173q164 0 262 -94t98 -246t-97.5 -246t-262.5 -94h-173zM170 65h96q141 0 215 74.5t74 200.5t-74 200.5t-215 74.5h-96v-243h183v-63h-183v-244z" />
    <glyph glyph-name="dcroat" unicode="&#x111;" horiz-adv-x="561" 
d="M412 527h-144v59h144v136h69v-136h77v-59h-77v-527h-69l2 89q-22 -44 -65 -70.5t-97 -26.5q-85 0 -142 61.5t-57 154.5q0 92 57 153.5t141 61.5q110 0 161 -94v198zM268 53q66 0 106.5 43.5t40.5 111.5q0 67 -40.5 110t-106.5 43q-65 0 -104 -43t-39 -110
q0 -68 39 -111.5t104 -43.5z" />
    <glyph glyph-name="Emacron" unicode="&#x112;" horiz-adv-x="590" 
d="M198 768v55h230v-55h-230zM98 0v680h414v-64h-342v-243h305v-63h-305v-246h356v-64h-428z" />
    <glyph glyph-name="emacron" unicode="&#x113;" horiz-adv-x="526" 
d="M149 539v55h230v-55h-230zM123 184q7 -61 47 -97t107 -36q81 0 131 55l43 -42q-64 -72 -174 -72q-100 0 -162 61.5t-62 153.5q0 91 61.5 153.5t152.5 62.5q98 0 155 -67.5t53 -171.5h-352zM124 237h281q-5 56 -40 91.5t-98 35.5q-58 0 -96.5 -34.5t-46.5 -92.5z" />
    <glyph glyph-name="Edotaccent" unicode="&#x116;" horiz-adv-x="590" 
d="M313 756q-20 0 -35 14t-15 35t15 35.5t35 14.5t35 -14.5t15 -35.5t-15 -35t-35 -14zM98 0v680h414v-64h-342v-243h305v-63h-305v-246h356v-64h-428z" />
    <glyph glyph-name="edotaccent" unicode="&#x117;" horiz-adv-x="526" 
d="M264 534q-20 0 -35 14t-15 35t15 35.5t35 14.5t35 -14.5t15 -35.5t-15 -35t-35 -14zM123 184q7 -61 47 -97t107 -36q81 0 131 55l43 -42q-64 -72 -174 -72q-100 0 -162 61.5t-62 153.5q0 91 61.5 153.5t152.5 62.5q98 0 155 -67.5t53 -171.5h-352zM124 237h281
q-5 56 -40 91.5t-98 35.5q-58 0 -96.5 -34.5t-46.5 -92.5z" />
    <glyph glyph-name="Eogonek" unicode="&#x118;" horiz-adv-x="590" 
d="M436 -232q-39 0 -65.5 23t-26.5 65q0 46 41 101l32 43h-319v680h414v-64h-342v-243h305v-63h-305v-246h356v-64h-58l-36 -57q-20 -31 -27 -47.5t-7 -37.5t12 -32t30 -11q30 0 53 36l41 -24q-30 -59 -98 -59z" />
    <glyph glyph-name="eogonek" unicode="&#x119;" horiz-adv-x="526" 
d="M342 -232q-40 0 -67.5 23t-27.5 65q0 47 49 109l24 31q-19 -4 -43 -4q-100 0 -162 61.5t-62 153.5q0 91 61.5 153.5t152.5 62.5q98 0 155 -67.5t53 -171.5h-351q5 -59 45.5 -96t107.5 -37q81 0 131 55l43 -42q-5 -6 -47.5 -45t-66.5 -76q-20 -31 -27 -47.5t-7 -37.5
t12.5 -32t30.5 -11q29 0 52 36l42 -24q-30 -59 -98 -59zM124 237h281q-5 56 -40 91.5t-98 35.5q-59 0 -97 -35t-46 -92z" />
    <glyph glyph-name="Ecaron" unicode="&#x11a;" horiz-adv-x="590" 
d="M308 740l-128 192h58l74 -101l75 101h58l-128 -192h-9zM98 0v680h414v-64h-342v-243h305v-63h-305v-246h356v-64h-428z" />
    <glyph glyph-name="ecaron" unicode="&#x11b;" horiz-adv-x="526" 
d="M259 495l-128 192h58l74 -101l75 101h58l-128 -192h-9zM123 184q7 -61 47 -97t107 -36q81 0 131 55l43 -42q-64 -72 -174 -72q-100 0 -162 61.5t-62 153.5q0 91 61.5 153.5t152.5 62.5q98 0 155 -67.5t53 -171.5h-352zM124 237h281q-5 56 -40 91.5t-98 35.5
q-58 0 -96.5 -34.5t-46.5 -92.5z" />
    <glyph glyph-name="Gcircumflex" unicode="&#x11c;" horiz-adv-x="753" 
d="M254 754l128 193h9l128 -193h-58l-74 101l-75 -101h-58zM415 -8q-153 0 -254.5 97.5t-101.5 250.5q0 152 100 250t250 98q155 0 237 -88l-49 -49q-69 72 -188 72q-120 0 -197.5 -80.5t-77.5 -202.5t79 -202.5t202 -80.5q124 0 201 62v143h-202v64h270v-240
q-96 -94 -269 -94z" />
    <glyph glyph-name="gcircumflex" unicode="&#x11d;" horiz-adv-x="562" 
d="M143 503l128 193h9l128 -193h-58l-74 101l-75 -101h-58zM273 -223q-143 0 -210 115l52 36q55 -91 156 -91q141 0 141 155v94q-21 -42 -62.5 -68t-95.5 -26q-85 0 -143 61.5t-58 154.5q0 92 58 153.5t142 61.5q111 0 161 -98l-2 89h70v-427q0 -106 -56 -158t-153 -52z
M268 53q66 0 106.5 43.5t40.5 111.5q0 67 -40.5 110t-106.5 43q-65 0 -104 -43t-39 -110q0 -68 39 -111.5t104 -43.5z" />
    <glyph glyph-name="Gbreve" unicode="&#x11e;" horiz-adv-x="753" 
d="M386 750q-56 0 -89.5 32t-41.5 85l56 9q16 -71 75 -71t75 71l56 -9q-8 -53 -41.5 -85t-89.5 -32zM415 -8q-153 0 -254.5 97.5t-101.5 250.5q0 152 100 250t250 98q155 0 237 -88l-49 -49q-69 72 -188 72q-120 0 -197.5 -80.5t-77.5 -202.5t79 -202.5t202 -80.5
q124 0 201 62v143h-202v64h270v-240q-96 -94 -269 -94z" />
    <glyph glyph-name="gbreve" unicode="&#x11f;" horiz-adv-x="562" 
d="M275 499q-56 0 -89.5 32t-41.5 85l56 9q16 -71 75 -71t75 71l56 -9q-8 -53 -41.5 -85t-89.5 -32zM273 -223q-143 0 -210 115l52 36q55 -91 156 -91q141 0 141 155v94q-21 -42 -62.5 -68t-95.5 -26q-85 0 -143 61.5t-58 154.5q0 92 58 153.5t142 61.5q111 0 161 -98l-2 89
h70v-427q0 -106 -56 -158t-153 -52zM268 53q66 0 106.5 43.5t40.5 111.5q0 67 -40.5 110t-106.5 43q-65 0 -104 -43t-39 -110q0 -68 39 -111.5t104 -43.5z" />
    <glyph glyph-name="Gdotaccent" unicode="&#x120;" horiz-adv-x="753" 
d="M387 756q-20 0 -35 14t-15 35t15 35.5t35 14.5t35 -14.5t15 -35.5t-15 -35t-35 -14zM415 -8q-153 0 -254.5 97.5t-101.5 250.5q0 152 100 250t250 98q155 0 237 -88l-49 -49q-69 72 -188 72q-120 0 -197.5 -80.5t-77.5 -202.5t79 -202.5t202 -80.5q124 0 201 62v143h-202
v64h270v-240q-96 -94 -269 -94z" />
    <glyph glyph-name="gdotaccent" unicode="&#x121;" horiz-adv-x="561" 
d="M276 534q-20 0 -35 14t-15 35t15 35.5t35 14.5t35 -14.5t15 -35.5t-15 -35t-35 -14zM273 -223q-143 0 -210 115l52 36q55 -91 156 -91q141 0 141 155v94q-21 -42 -62.5 -68t-95.5 -26q-85 0 -143 61.5t-58 154.5q0 92 58 153.5t142 61.5q111 0 161 -98l-2 89h70v-427
q0 -106 -56 -158t-153 -52zM268 53q66 0 106.5 43.5t40.5 111.5q0 67 -40.5 110t-106.5 43q-65 0 -104 -43t-39 -110q0 -68 39 -111.5t104 -43.5z" />
    <glyph glyph-name="uni0122" unicode="&#x122;" horiz-adv-x="753" 
d="M415 -8q-153 0 -254.5 97.5t-101.5 250.5q0 152 100 250t250 98q155 0 237 -88l-49 -49q-69 72 -188 72q-120 0 -197.5 -80.5t-77.5 -202.5t79 -202.5t202 -80.5q124 0 201 62v143h-202v64h270v-240q-96 -94 -269 -94zM337 -256l32 99q-13 5 -22.5 17.5t-9.5 29.5
q0 21 15.5 36t35.5 15q21 0 36.5 -15t15.5 -36q0 -17 -12 -39l-53 -107h-38z" />
    <glyph glyph-name="uni0123" unicode="&#x123;" horiz-adv-x="561" 
d="M326 723l-32 -99q13 -5 22.5 -17.5t9.5 -29.5q0 -21 -15.5 -36t-35.5 -15q-21 0 -36.5 15t-15.5 36q0 17 12 39l53 107h38zM273 -223q-143 0 -210 115l52 36q55 -91 156 -91q141 0 141 155v94q-21 -42 -62.5 -68t-95.5 -26q-85 0 -143 61.5t-58 154.5q0 92 58 153.5
t142 61.5q111 0 161 -98l-2 89h70v-427q0 -106 -56 -158t-153 -52zM268 53q66 0 106.5 43.5t40.5 111.5q0 67 -40.5 110t-106.5 43q-65 0 -104 -43t-39 -110q0 -68 39 -111.5t104 -43.5z" />
    <glyph glyph-name="Hcircumflex" unicode="&#x124;" horiz-adv-x="703" 
d="M218 754l128 193h9l128 -193h-58l-74 101l-75 -101h-58zM98 0v680h72v-317h364v317h72v-680h-72v298h-364v-298h-72z" />
    <glyph glyph-name="hcircumflex" unicode="&#x125;" horiz-adv-x="526" 
d="M128 770l128 193h9l128 -193h-58l-74 101l-75 -101h-58zM79 0v722h70v-389q20 42 58.5 66t88.5 24q70 0 112.5 -45.5t42.5 -125.5v-252h-70v244q0 115 -103 115q-58 0 -93.5 -35t-35.5 -96v-228h-70z" />
    <glyph glyph-name="Hbar" unicode="&#x126;" horiz-adv-x="703" 
d="M18 466v54h80v160h72v-160h363v160h73v-160h79v-54h-79v-466h-73v298h-363v-298h-72v466h-80zM170 363h363v103h-363v-103z" />
    <glyph glyph-name="hbar" unicode="&#x127;" horiz-adv-x="526" 
d="M2 528v58h77v136h70v-136h143v-58h-143v-195q20 42 58.5 66t88.5 24q70 0 112.5 -45.5t42.5 -125.5v-252h-70v244q0 115 -103 115q-58 0 -93.5 -35t-35.5 -96v-228h-70v528h-77z" />
    <glyph glyph-name="Imacron" unicode="&#x12a;" horiz-adv-x="275" 
d="M29 769v55h217v-55h-217zM101 0v680h73v-680h-73z" />
    <glyph glyph-name="imacron" unicode="&#x12b;" horiz-adv-x="232" 
d="M28 539v55h176v-55h-176zM81 0v414h70v-414h-70z" />
    <glyph glyph-name="Iogonek" unicode="&#x12e;" horiz-adv-x="275" 
d="M101 -22v702h73v-670l-42 -69q-31 -50 -31 -83q0 -20 11 -30.5t28 -10.5q30 0 51 35l44 -25q-30 -59 -98 -59q-39 0 -66 23t-27 65q0 46 41 101z" />
    <glyph glyph-name="iogonek" unicode="&#x12f;" horiz-adv-x="232" 
d="M116 534q-20 0 -35 14t-15 35t15 35.5t35 14.5t35 -14.5t15 -35.5t-15 -35t-35 -14zM81 -16v430h70v-402l-43 -71q-31 -50 -31 -83q0 -20 11 -30.5t28 -10.5q30 0 51 35l44 -25q-30 -59 -98 -59q-39 0 -66 23t-27 65q0 46 41 101z" />
    <glyph glyph-name="Idotaccent" unicode="&#x130;" horiz-adv-x="275" 
d="M138 756q-20 0 -35 14t-15 35t15 35.5t35 14.5t35 -14.5t15 -35.5t-15 -35t-35 -14zM101 0v680h73v-680h-73z" />
    <glyph glyph-name="dotlessi" unicode="&#x131;" horiz-adv-x="232" 
d="M81 0v414h70v-414h-70z" />
    <glyph glyph-name="Jcircumflex" unicode="&#x134;" horiz-adv-x="493" 
d="M225 754l128 193h9l128 -193h-58l-74 101l-75 -101h-58zM214 -8q-121 0 -176 102l59 37q43 -74 114 -74q52 0 82 30.5t30 93.5v499h73v-501q0 -91 -50 -139t-132 -48z" />
    <glyph glyph-name="jcircumflex" unicode="&#x135;" horiz-adv-x="232" 
d="M-17 503l128 193h9l128 -193h-58l-74 101l-75 -101h-58zM40 -222q-59 0 -92 41l37 42q25 -23 50 -23q46 0 46 63v513h70v-512q0 -60 -30 -92t-81 -32z" />
    <glyph glyph-name="uni0136" unicode="&#x136;" horiz-adv-x="616" 
d="M98 0v680h72v-305q0 -36 -5 -89q22 45 47 77l260 317h82l-247 -304l275 -376h-88l-234 323l-90 -107v-216h-72zM266 -256l32 99q-13 5 -22.5 17.5t-9.5 29.5q0 21 15.5 36t35.5 15q21 0 36.5 -15t15.5 -36q0 -17 -12 -39l-53 -107h-38z" />
    <glyph glyph-name="uni0137" unicode="&#x137;" horiz-adv-x="473" 
d="M149 126v-126h-70v722h70v-463q0 -31 -5 -59l197 214h81l-159 -174l184 -240h-83l-150 194zM193 -256l32 99q-13 5 -22.5 17.5t-9.5 29.5q0 21 15.5 36t35.5 15q21 0 36.5 -15t15.5 -36q0 -17 -12 -39l-53 -107h-38z" />
    <glyph glyph-name="Lacute" unicode="&#x139;" horiz-adv-x="537" 
d="M107 749l68 193h80l-93 -193h-55zM98 0v680h72v-616h321v-64h-393z" />
    <glyph glyph-name="lacute" unicode="&#x13a;" horiz-adv-x="238" 
d="M92 765l68 193h80l-93 -193h-55zM84 0v722h70v-722h-70z" />
    <glyph glyph-name="uni013B" unicode="&#x13b;" horiz-adv-x="538" 
d="M98 0v680h72v-616h321v-64h-393zM240 -256l32 99q-13 5 -22.5 17.5t-9.5 29.5q0 21 15.5 36t35.5 15q21 0 36.5 -15t15.5 -36q0 -17 -12 -39l-53 -107h-38z" />
    <glyph glyph-name="uni013C" unicode="&#x13c;" horiz-adv-x="238" 
d="M84 0v722h70v-722h-70zM70 -256l32 99q-13 5 -22.5 17.5t-9.5 29.5q0 21 15.5 36t35.5 15q21 0 36.5 -15t15.5 -36q0 -17 -12 -39l-53 -107h-38z" />
    <glyph glyph-name="Lcaron" unicode="&#x13d;" horiz-adv-x="538" 
d="M314 482l34 104q-14 5 -23.5 18t-9.5 30q0 22 15.5 37.5t36.5 15.5t37 -15.5t16 -36.5q0 -13 -13 -41l-56 -112h-37zM98 0v680h72v-616h321v-64h-393z" />
    <glyph glyph-name="lcaron" unicode="&#x13e;" horiz-adv-x="326" 
d="M84 0v722h70v-722h-70zM229 482l34 104q-14 5 -23.5 18t-9.5 30q0 22 15.5 37.5t36.5 15.5t37 -15.5t16 -36.5q0 -13 -13 -41l-56 -112h-37z" />
    <glyph glyph-name="Ldot" unicode="&#x13f;" horiz-adv-x="528" 
d="M93 0v680h72v-616h321v-64h-393zM373 270q-21 0 -37.5 16t-16.5 39t16 38.5t38 15.5t38.5 -15.5t16.5 -38.5t-16.5 -39t-38.5 -16z" />
    <glyph glyph-name="ldot" unicode="&#x140;" horiz-adv-x="293" 
d="M79 0v722h70v-722h-70zM259 270q-21 0 -37.5 16t-16.5 39t16 38.5t38 15.5t38.5 -15.5t16.5 -38.5t-16.5 -39t-38.5 -16z" />
    <glyph glyph-name="Lslash" unicode="&#x141;" horiz-adv-x="541" 
d="M101 0v252l-75 -29v66l75 29v362h73v-336l199 78v-65l-199 -78v-215h321v-64h-394z" />
    <glyph glyph-name="lslash" unicode="&#x142;" horiz-adv-x="278" 
d="M104 0v268l-85 -51v69l85 52v384h70v-344l88 54v-70l-88 -53v-309h-70z" />
    <glyph glyph-name="Nacute" unicode="&#x143;" horiz-adv-x="723" 
d="M336 749l68 193h80l-93 -193h-55zM613 -7l-406 480q-33 38 -47 62q0 -1 1.5 -15t3 -31.5t1.5 -29.5v-459h-68v687h12l406 -480q6 -8 14.5 -19t14.5 -19.5t12 -16t6 -8.5l-1 14q-2 13 -3 31.5t-1 31.5v459h67v-687h-12z" />
    <glyph glyph-name="nacute" unicode="&#x144;" horiz-adv-x="526" 
d="M234 498l68 193h80l-93 -193h-55zM79 0v414h70l-2 -85q20 44 59.5 69t89.5 25q70 0 112.5 -45.5t42.5 -125.5v-252h-70v244q0 115 -103 115q-58 0 -93.5 -35t-35.5 -96v-228h-70z" />
    <glyph glyph-name="uni0145" unicode="&#x145;" horiz-adv-x="723" 
d="M613 -7l-406 480q-33 38 -47 62q0 -1 1.5 -15t3 -31.5t1.5 -29.5v-459h-68v687h12l406 -480q6 -8 14.5 -19t14.5 -19.5t12 -16t6 -8.5l-1 14q-2 13 -3 31.5t-1 31.5v459h67v-687h-12zM314 -256l32 99q-13 5 -22.5 17.5t-9.5 29.5q0 21 15.5 36t35.5 15q21 0 36.5 -15
t15.5 -36q0 -17 -12 -39l-53 -107h-38z" />
    <glyph glyph-name="uni0146" unicode="&#x146;" horiz-adv-x="526" 
d="M79 0v414h70l-2 -85q20 44 59.5 69t89.5 25q70 0 112.5 -45.5t42.5 -125.5v-252h-70v244q0 115 -103 115q-58 0 -93.5 -35t-35.5 -96v-228h-70zM212 -256l32 99q-13 5 -22.5 17.5t-9.5 29.5q0 21 15.5 36t35.5 15q21 0 36.5 -15t15.5 -36q0 -17 -12 -39l-53 -107h-38z
" />
    <glyph glyph-name="Ncaron" unicode="&#x147;" horiz-adv-x="723" 
d="M359 740l-128 192h58l74 -101l75 101h58l-128 -192h-9zM613 -7l-406 480q-33 38 -47 62q0 -1 1.5 -15t3 -31.5t1.5 -29.5v-459h-68v687h12l406 -480q6 -8 14.5 -19t14.5 -19.5t12 -16t6 -8.5l-1 14q-2 13 -3 31.5t-1 31.5v459h67v-687h-12z" />
    <glyph glyph-name="ncaron" unicode="&#x148;" horiz-adv-x="526" 
d="M257 495l-128 192h58l74 -101l75 101h58l-128 -192h-9zM79 0v414h70l-2 -85q20 44 59.5 69t89.5 25q70 0 112.5 -45.5t42.5 -125.5v-252h-70v244q0 115 -103 115q-58 0 -93.5 -35t-35.5 -96v-228h-70z" />
    <glyph glyph-name="napostrophe" unicode="&#x149;" horiz-adv-x="638" 
d="M36 482l34 104q-14 5 -23.5 18t-9.5 30q0 22 15.5 37.5t36.5 15.5t37 -15.5t16 -37.5q0 -17 -13 -40l-55 -112h-38zM196 0v414h70l-2 -85q20 44 59.5 69t89.5 25q70 0 112.5 -45.5t42.5 -125.5v-252h-70v244q0 115 -103 115q-58 0 -93.5 -35t-35.5 -96v-228h-70z" />
    <glyph glyph-name="Omacron" unicode="&#x14c;" horiz-adv-x="817" 
d="M293 768v55h230v-55h-230zM408 -8q-147 0 -248 98t-101 250t101 250t248 98q148 0 249 -98t101 -250t-101 -250t-249 -98zM408 57q119 0 197 80.5t78 202.5t-78 202.5t-197 80.5q-118 0 -196 -80.5t-78 -202.5t78 -202.5t196 -80.5z" />
    <glyph glyph-name="omacron" unicode="&#x14d;" horiz-adv-x="544" 
d="M156 539v55h230v-55h-230zM273 -8q-93 0 -156.5 62t-63.5 153t63.5 153.5t156.5 62.5q92 0 155 -62.5t63 -153.5t-63 -153t-155 -62zM273 52q65 0 106 44t41 111t-41 111t-106 44q-66 0 -107.5 -44t-41.5 -111t41.5 -111t107.5 -44z" />
    <glyph glyph-name="Ohungarumlaut" unicode="&#x150;" horiz-adv-x="817" 
d="M450 763l68 193h76l-89 -193h-55zM312 763l67 193h76l-88 -193h-55zM408 -8q-147 0 -248 98t-101 250t101 250t248 98q148 0 249 -98t101 -250t-101 -250t-249 -98zM408 57q119 0 197 80.5t78 202.5t-78 202.5t-197 80.5q-118 0 -196 -80.5t-78 -202.5t78 -202.5
t196 -80.5z" />
    <glyph glyph-name="ohungarumlaut" unicode="&#x151;" horiz-adv-x="543" 
d="M313 505l68 193h76l-89 -193h-55zM175 505l67 193h76l-88 -193h-55zM273 -8q-93 0 -156.5 62t-63.5 153t63.5 153.5t156.5 62.5q92 0 155 -62.5t63 -153.5t-63 -153t-155 -62zM273 52q65 0 106 44t41 111t-41 111t-106 44q-66 0 -107.5 -44t-41.5 -111t41.5 -111
t107.5 -44z" />
    <glyph glyph-name="OE" unicode="&#x152;" horiz-adv-x="997" 
d="M417 0q-164 0 -261 94t-97 246q0 153 96.5 246.5t261.5 93.5h502v-64h-341v-243h304v-63h-304v-246h355v-64h-516zM423 65h83v550h-83q-141 0 -215 -74.5t-74 -200.5t74 -200.5t215 -74.5z" />
    <glyph glyph-name="oe" unicode="&#x153;" horiz-adv-x="891" 
d="M487 184q7 -61 47 -97t107 -36q81 0 131 55l43 -42q-64 -72 -173 -72q-68 0 -116.5 31t-71.5 84q-23 -52 -71 -83.5t-110 -31.5q-93 0 -156.5 62t-63.5 153t63.5 153.5t156.5 62.5q63 0 110.5 -31.5t70.5 -84.5q22 53 69 84.5t108 31.5q98 0 155 -67.5t53 -171.5h-352z
M488 237h281q-5 56 -40 91.5t-98 35.5q-58 0 -96.5 -34.5t-46.5 -92.5zM273 52q65 0 106 44t41 111t-41 111t-106 44q-66 0 -107.5 -44t-41.5 -111t41.5 -111t107.5 -44z" />
    <glyph glyph-name="Racute" unicode="&#x154;" horiz-adv-x="617" 
d="M274 749l68 193h80l-93 -193h-55zM98 0v680h204q111 0 176.5 -53t65.5 -155q0 -73 -37.5 -122t-105.5 -70l166 -280h-85l-156 268q-10 -1 -32 -1h-124v-267h-72zM170 329h128q171 0 171 143q0 144 -171 144h-128v-287z" />
    <glyph glyph-name="racute" unicode="&#x155;" horiz-adv-x="367" 
d="M172 498l68 193h80l-93 -193h-55zM79 0v414h70l-2 -81q37 89 121 89q43 0 72 -20l-27 -61q-23 16 -57 16q-47 0 -77 -35t-30 -104v-218h-70z" />
    <glyph glyph-name="uni0156" unicode="&#x156;" horiz-adv-x="618" 
d="M98 0v680h204q111 0 176.5 -53t65.5 -155q0 -73 -37.5 -122t-105.5 -70l166 -280h-85l-156 268q-10 -1 -32 -1h-124v-267h-72zM170 329h128q171 0 171 143q0 144 -171 144h-128v-287zM263 -256l32 99q-13 5 -22.5 17.5t-9.5 29.5q0 21 15.5 36t35.5 15q21 0 36.5 -15
t15.5 -36q0 -17 -12 -39l-53 -107h-38z" />
    <glyph glyph-name="uni0157" unicode="&#x157;" horiz-adv-x="367" 
d="M79 0v414h70l-2 -81q37 89 121 89q43 0 72 -20l-27 -61q-23 16 -57 16q-47 0 -77 -35t-30 -104v-218h-70zM66 -256l32 99q-13 5 -22.5 17.5t-9.5 29.5q0 21 15.5 36t35.5 15q21 0 36.5 -15t15.5 -36q0 -17 -12 -39l-53 -107h-38z" />
    <glyph glyph-name="Rcaron" unicode="&#x158;" horiz-adv-x="618" 
d="M296 740l-128 192h58l74 -101l75 101h58l-128 -192h-9zM98 0v680h204q111 0 176.5 -53t65.5 -155q0 -73 -37.5 -122t-105.5 -70l166 -280h-85l-156 268q-10 -1 -32 -1h-124v-267h-72zM170 329h128q171 0 171 143q0 144 -171 144h-128v-287z" />
    <glyph glyph-name="rcaron" unicode="&#x159;" horiz-adv-x="367" 
d="M195 495l-128 192h58l74 -101l75 101h58l-128 -192h-9zM79 0v414h70l-2 -81q37 89 121 89q43 0 72 -20l-27 -61q-23 16 -57 16q-47 0 -77 -35t-30 -104v-218h-70z" />
    <glyph glyph-name="Sacute" unicode="&#x15a;" horiz-adv-x="541" 
d="M234 749l68 193h80l-93 -193h-55zM271 -8q-168 0 -237 138l60 32q28 -49 68.5 -77.5t106.5 -28.5q61 0 101 31.5t40 84.5q0 49 -30 80.5t-98 61.5l-54 25q-78 35 -114 76.5t-36 109.5q0 73 50.5 118t128.5 45q123 0 184 -102l-58 -36q-46 74 -126 74q-50 0 -79 -26.5
t-29 -70.5q0 -43 24 -68.5t84 -53.5l54 -25q89 -39 130 -86.5t41 -121.5q0 -83 -59 -131.5t-152 -48.5z" />
    <glyph glyph-name="sacute" unicode="&#x15b;" horiz-adv-x="420" 
d="M184 498l68 193h80l-93 -193h-55zM218 -8q-64 0 -109.5 27t-67.5 69l54 31q42 -70 120 -70q42 0 65 16.5t23 45.5q0 31 -22.5 44.5t-85.5 31.5q-60 17 -92.5 43.5t-32.5 79.5q0 52 38.5 82.5t97.5 30.5q91 0 138 -67l-48 -37q-34 47 -90 47q-33 0 -52.5 -14.5
t-19.5 -38.5q0 -28 20 -41t78 -30q64 -17 100.5 -45t36.5 -82q0 -55 -38 -89t-113 -34z" />
    <glyph glyph-name="Scircumflex" unicode="&#x15c;" horiz-adv-x="541" 
d="M130 754l128 193h9l128 -193h-58l-74 101l-75 -101h-58zM271 -8q-168 0 -237 138l60 32q28 -49 68.5 -77.5t106.5 -28.5q61 0 101 31.5t40 84.5q0 49 -30 80.5t-98 61.5l-54 25q-78 35 -114 76.5t-36 109.5q0 73 50.5 118t128.5 45q123 0 184 -102l-58 -36
q-46 74 -126 74q-50 0 -79 -26.5t-29 -70.5q0 -43 24 -68.5t84 -53.5l54 -25q89 -39 130 -86.5t41 -121.5q0 -83 -59 -131.5t-152 -48.5z" />
    <glyph glyph-name="scircumflex" unicode="&#x15d;" horiz-adv-x="420" 
d="M79 503l128 193h9l128 -193h-58l-74 101l-75 -101h-58zM218 -8q-64 0 -109.5 27t-67.5 69l54 31q42 -70 120 -70q42 0 65 16.5t23 45.5q0 31 -22.5 44.5t-85.5 31.5q-60 17 -92.5 43.5t-32.5 79.5q0 52 38.5 82.5t97.5 30.5q91 0 138 -67l-48 -37q-34 47 -90 47
q-33 0 -52.5 -14.5t-19.5 -38.5q0 -28 20 -41t78 -30q64 -17 100.5 -45t36.5 -82q0 -55 -38 -89t-113 -34z" />
    <glyph glyph-name="uni015E" unicode="&#x15e;" horiz-adv-x="540" 
d="M271 -232q-71 0 -101 59l40 25q20 -39 57 -39q20 0 33.5 12.5t13.5 34.5q0 21 -14 34.5t-41 13.5h-21v86q-142 12 -204 136l60 32q28 -49 68.5 -77.5t106.5 -28.5q61 0 101 31.5t40 84.5q0 49 -30 80.5t-98 61.5l-54 25q-78 35 -114 76.5t-36 109.5q0 73 50.5 118
t128.5 45q123 0 184 -102l-58 -36q-46 74 -126 74q-50 0 -79 -26.5t-29 -70.5q0 -43 24 -68.5t84 -53.5l54 -25q89 -39 130 -86.5t41 -121.5q0 -80 -55 -128t-143 -52v-45q35 -5 59 -29t24 -62q0 -40 -28.5 -64t-67.5 -24z" />
    <glyph glyph-name="uni015F" unicode="&#x15f;" horiz-adv-x="420" 
d="M215 -232q-71 0 -101 59l40 25q20 -39 57 -39q20 0 33.5 12.5t13.5 34.5q0 21 -14 34.5t-41 13.5h-21v87q-100 13 -141 93l54 31q42 -70 120 -70q42 0 65 16.5t23 45.5q0 31 -22.5 44.5t-85.5 31.5q-60 17 -92.5 43.5t-32.5 79.5q0 52 38.5 82.5t97.5 30.5q91 0 138 -67
l-48 -37q-34 47 -90 47q-33 0 -52.5 -14.5t-19.5 -38.5q0 -28 20 -41t78 -30q64 -17 100.5 -45t36.5 -82q0 -53 -35.5 -86.5t-105.5 -36.5v-45q35 -5 59 -29t24 -62q0 -40 -28.5 -64t-67.5 -24z" />
    <glyph glyph-name="Scaron" unicode="&#x160;" horiz-adv-x="540" 
d="M258 740l-128 192h58l74 -101l75 101h58l-128 -192h-9zM271 -8q-168 0 -237 138l60 32q28 -49 68.5 -77.5t106.5 -28.5q61 0 101 31.5t40 84.5q0 49 -30 80.5t-98 61.5l-54 25q-78 35 -114 76.5t-36 109.5q0 73 50.5 118t128.5 45q123 0 184 -102l-58 -36q-46 74 -126 74
q-50 0 -79 -26.5t-29 -70.5q0 -43 24 -68.5t84 -53.5l54 -25q89 -39 130 -86.5t41 -121.5q0 -83 -59 -131.5t-152 -48.5z" />
    <glyph glyph-name="scaron" unicode="&#x161;" horiz-adv-x="420" 
d="M207 495l-128 192h58l74 -101l75 101h58l-128 -192h-9zM218 -8q-64 0 -109.5 27t-67.5 69l54 31q42 -70 120 -70q42 0 65 16.5t23 45.5q0 31 -22.5 44.5t-85.5 31.5q-60 17 -92.5 43.5t-32.5 79.5q0 52 38.5 82.5t97.5 30.5q91 0 138 -67l-48 -37q-34 47 -90 47
q-33 0 -52.5 -14.5t-19.5 -38.5q0 -28 20 -41t78 -30q64 -17 100.5 -45t36.5 -82q0 -55 -38 -89t-113 -34z" />
    <glyph glyph-name="uni0162" unicode="&#x162;" horiz-adv-x="566" 
d="M247 0v616h-209v64h490v-64h-209v-616h-72zM233 -256l32 99q-13 5 -22.5 17.5t-9.5 29.5q0 21 15.5 36t35.5 15q21 0 36.5 -15t15.5 -36q0 -17 -12 -39l-53 -107h-38z" />
    <glyph glyph-name="uni0163" unicode="&#x163;" horiz-adv-x="345" 
d="M214 -9q-51 0 -81 32t-30 102v230h-64v59h64v142h69v-142h116v-59h-116v-231q0 -72 49 -72q33 0 59 26l34 -47q-40 -40 -100 -40zM143 -256l32 99q-13 5 -22.5 17.5t-9.5 29.5q0 21 15.5 36t35.5 15q21 0 36.5 -15t15.5 -36q0 -17 -12 -39l-53 -107h-38z" />
    <glyph glyph-name="Tcaron" unicode="&#x164;" horiz-adv-x="566" 
d="M278 740l-128 192h58l74 -101l75 101h58l-128 -192h-9zM247 0v616h-209v64h490v-64h-209v-616h-72z" />
    <glyph glyph-name="tcaron" unicode="&#x165;" horiz-adv-x="401" 
d="M304 482l34 104q-13 5 -23 18t-10 30q0 22 15.5 37.5t36.5 15.5t37 -15.5t16 -36.5q0 -17 -13 -41l-55 -112h-38zM214 -9q-51 0 -81 32t-30 102v230h-64v59h64v142h69v-142h116v-59h-116v-231q0 -72 49 -72q33 0 59 26l34 -47q-40 -40 -100 -40z" />
    <glyph glyph-name="Umacron" unicode="&#x16a;" horiz-adv-x="672" 
d="M220 768v55h230v-55h-230zM336 -8q-108 0 -176 62.5t-68 177.5v448h72v-443q0 -89 45.5 -135t126.5 -46t126.5 46t45.5 135v443h72v-448q0 -115 -68 -177.5t-176 -62.5z" />
    <glyph glyph-name="umacron" unicode="&#x16b;" horiz-adv-x="525" 
d="M146 539v55h230v-55h-230zM230 -9q-70 0 -112.5 45.5t-42.5 123.5v254h70v-247q0 -112 102 -112q59 0 94 35.5t35 95.5v228h70v-414h-70l2 84q-20 -44 -59 -68.5t-89 -24.5z" />
    <glyph glyph-name="Ubreve" unicode="&#x16c;" horiz-adv-x="672" 
d="M335 750q-56 0 -89.5 32t-41.5 85l56 9q16 -71 75 -71t75 71l56 -9q-8 -53 -41.5 -85t-89.5 -32zM336 -8q-108 0 -176 62.5t-68 177.5v448h72v-443q0 -89 45.5 -135t126.5 -46t126.5 46t45.5 135v443h72v-448q0 -115 -68 -177.5t-176 -62.5z" />
    <glyph glyph-name="ubreve" unicode="&#x16d;" horiz-adv-x="525" 
d="M261 499q-56 0 -89.5 32t-41.5 85l56 9q16 -71 75 -71t75 71l56 -9q-8 -53 -41.5 -85t-89.5 -32zM230 -9q-70 0 -112.5 45.5t-42.5 123.5v254h70v-247q0 -112 102 -112q59 0 94 35.5t35 95.5v228h70v-414h-70l2 84q-20 -44 -59 -68.5t-89 -24.5z" />
    <glyph glyph-name="Uring" unicode="&#x16e;" horiz-adv-x="672" 
d="M335 698q-44 0 -74.5 29.5t-30.5 70.5q0 42 30.5 71.5t74.5 29.5t74.5 -29.5t30.5 -71.5q0 -41 -30.5 -70.5t-74.5 -29.5zM335 742q23 0 38 15.5t15 40.5q0 26 -14.5 41t-38.5 15t-38.5 -15t-14.5 -41q0 -25 15 -40.5t38 -15.5zM336 -8q-108 0 -176 62.5t-68 177.5v448
h72v-443q0 -89 45.5 -135t126.5 -46t126.5 46t45.5 135v443h72v-448q0 -115 -68 -177.5t-176 -62.5z" />
    <glyph glyph-name="uring" unicode="&#x16f;" horiz-adv-x="525" 
d="M261 484q-44 0 -74.5 29.5t-30.5 70.5q0 42 30.5 71.5t74.5 29.5t74.5 -29.5t30.5 -71.5q0 -41 -30.5 -70.5t-74.5 -29.5zM261 528q23 0 38 15.5t15 40.5q0 26 -14.5 41t-38.5 15t-38.5 -15t-14.5 -41q0 -25 15 -40.5t38 -15.5zM230 -9q-70 0 -112.5 45.5t-42.5 123.5
v254h70v-247q0 -112 102 -112q59 0 94 35.5t35 95.5v228h70v-414h-70l2 84q-20 -44 -59 -68.5t-89 -24.5z" />
    <glyph glyph-name="Uhungarumlaut" unicode="&#x170;" horiz-adv-x="672" 
d="M377 763l68 193h76l-89 -193h-55zM239 763l67 193h76l-88 -193h-55zM336 -8q-108 0 -176 62.5t-68 177.5v448h72v-443q0 -89 45.5 -135t126.5 -46t126.5 46t45.5 135v443h72v-448q0 -115 -68 -177.5t-176 -62.5z" />
    <glyph glyph-name="uhungarumlaut" unicode="&#x171;" horiz-adv-x="525" 
d="M303 505l68 193h76l-89 -193h-55zM165 505l67 193h76l-88 -193h-55zM230 -9q-70 0 -112.5 45.5t-42.5 123.5v254h70v-247q0 -112 102 -112q59 0 94 35.5t35 95.5v228h70v-414h-70l2 84q-20 -44 -59 -68.5t-89 -24.5z" />
    <glyph glyph-name="Uogonek" unicode="&#x172;" horiz-adv-x="672" 
d="M313 -7q-100 7 -160.5 68.5t-60.5 170.5v448h72v-443q0 -89 45.5 -135t126.5 -46t126.5 46t45.5 135v443h72v-448q0 -107 -59.5 -168.5t-155.5 -70.5l-32 -52q-31 -50 -31 -83q0 -20 11 -30.5t28 -10.5q30 0 51 35l44 -25q-30 -59 -98 -59q-39 0 -66 23t-27 65
q0 46 41 101z" />
    <glyph glyph-name="uogonek" unicode="&#x173;" horiz-adv-x="525" 
d="M375 -15l3 99q-20 -44 -59 -68.5t-89 -24.5q-70 0 -112.5 45.5t-42.5 123.5v254h70v-247q0 -112 102 -112q59 0 94 35.5t35 95.5v228h70v-399l-45 -74q-31 -50 -31 -83q0 -20 11 -30.5t28 -10.5q30 0 51 35l44 -25q-30 -59 -98 -59q-39 0 -66 23t-27 65q0 46 41 101z" />
    <glyph glyph-name="Ydieresis" unicode="&#x178;" horiz-adv-x="620" 
d="M398 759q-18 0 -32 13.5t-14 32.5t14 32.5t32 13.5t32 -13.5t14 -32.5t-14 -32.5t-32 -13.5zM228 759q-18 0 -32 13.5t-14 32.5t14 32.5t32 13.5t32 -13.5t14 -32.5t-14 -32.5t-32 -13.5zM276 0v250l-237 430h82l164 -301q6 -11 13 -27.5t11.5 -28.5t4.5 -13q7 28 29 69
l163 301h75l-231 -428v-252h-74z" />
    <glyph glyph-name="Zacute" unicode="&#x179;" horiz-adv-x="591" 
d="M284 749l68 193h80l-93 -193h-55zM44 0v11l380 605h-326v64h438v-11l-379 -605h381v-64h-494z" />
    <glyph glyph-name="zacute" unicode="&#x17a;" horiz-adv-x="427" 
d="M197 498l68 193h80l-93 -193h-55zM37 0v10l239 346h-213v58h326v-11l-241 -345h236v-58h-347z" />
    <glyph glyph-name="Zdotaccent" unicode="&#x17b;" horiz-adv-x="593" 
d="M311 756q-20 0 -35 14t-15 35t15 35.5t35 14.5t35 -14.5t15 -35.5t-15 -35t-35 -14zM44 0v11l380 605h-326v64h438v-11l-379 -605h381v-64h-494z" />
    <glyph glyph-name="zdotaccent" unicode="&#x17c;" horiz-adv-x="428" 
d="M225 534q-20 0 -35 14t-15 35t15 35.5t35 14.5t35 -14.5t15 -35.5t-15 -35t-35 -14zM37 0v10l239 346h-213v58h326v-11l-241 -345h236v-58h-347z" />
    <glyph glyph-name="Zcaron" unicode="&#x17d;" horiz-adv-x="593" 
d="M306 740l-128 192h58l74 -101l75 101h58l-128 -192h-9zM44 0v11l380 605h-326v64h438v-11l-379 -605h381v-64h-494z" />
    <glyph glyph-name="zcaron" unicode="&#x17e;" horiz-adv-x="428" 
d="M220 495l-128 192h58l74 -101l75 101h58l-128 -192h-9zM37 0v10l239 346h-213v58h326v-11l-241 -345h236v-58h-347z" />
    <glyph glyph-name="uni0192" unicode="&#x192;" horiz-adv-x="847" 
d="M0 616v64h847v-64h-847z" />
    <glyph glyph-name="uni0218" unicode="&#x218;" horiz-adv-x="540" 
d="M271 -8q-168 0 -237 138l60 32q28 -49 68.5 -77.5t106.5 -28.5q61 0 101 31.5t40 84.5q0 49 -30 80.5t-98 61.5l-54 25q-78 35 -114 76.5t-36 109.5q0 73 50.5 118t128.5 45q123 0 184 -102l-58 -36q-46 74 -126 74q-50 0 -79 -26.5t-29 -70.5q0 -43 24 -68.5t84 -53.5
l54 -25q89 -39 130 -86.5t41 -121.5q0 -83 -59 -131.5t-152 -48.5zM213 -256l32 99q-13 5 -22.5 17.5t-9.5 29.5q0 21 15.5 36t35.5 15q21 0 36.5 -15t15.5 -36q0 -17 -12 -39l-53 -107h-38z" />
    <glyph glyph-name="uni0219" unicode="&#x219;" horiz-adv-x="420" 
d="M218 -8q-64 0 -109.5 27t-67.5 69l54 31q42 -70 120 -70q42 0 65 16.5t23 45.5q0 31 -22.5 44.5t-85.5 31.5q-60 17 -92.5 43.5t-32.5 79.5q0 52 38.5 82.5t97.5 30.5q91 0 138 -67l-48 -37q-34 47 -90 47q-33 0 -52.5 -14.5t-19.5 -38.5q0 -28 20 -41t78 -30
q64 -17 100.5 -45t36.5 -82q0 -55 -38 -89t-113 -34zM162 -256l32 99q-13 5 -22.5 17.5t-9.5 29.5q0 21 15.5 36t35.5 15q21 0 36.5 -15t15.5 -36q0 -17 -12 -39l-53 -107h-38z" />
    <glyph glyph-name="uni021A" unicode="&#x21a;" horiz-adv-x="566" 
d="M247 0v616h-209v64h490v-64h-209v-616h-15v-53q35 -5 59 -29t24 -62q0 -40 -28.5 -64t-67.5 -24q-71 0 -101 59l40 25q20 -39 57 -39q20 0 33.5 12.5t13.5 34.5q0 21 -14 34.5t-41 13.5h-21v92h-11z" />
    <glyph glyph-name="uni021B" unicode="&#x21b;" horiz-adv-x="345" 
d="M214 -9v-44q34 -5 58.5 -29t24.5 -62q0 -40 -29 -64t-67 -24q-73 0 -102 59l41 25q19 -39 57 -39q20 0 33.5 12.5t13.5 34.5q0 21 -14.5 34.5t-41.5 13.5h-21v91q-64 25 -64 126v230h-64v59h64v142h69v-142h116v-59h-116v-231q0 -72 49 -72q33 0 59 26l34 -47
q-40 -40 -100 -40z" />
    <glyph glyph-name="uni0237" unicode="&#x237;" horiz-adv-x="231" 
d="M40 -222q-59 0 -92 41l37 42q25 -23 50 -23q46 0 46 63v513h70v-512q0 -60 -30 -92t-81 -32z" />
    <glyph glyph-name="circumflex" unicode="&#x2c6;" 
d="M122 503l128 193h9l128 -193h-58l-74 101l-75 -101h-58z" />
    <glyph glyph-name="caron" unicode="&#x2c7;" 
d="M251 495l-128 192h58l74 -101l75 101h58l-128 -192h-9z" />
    <glyph glyph-name="breve" unicode="&#x2d8;" 
d="M255 499q-56 0 -89.5 32t-41.5 85l56 9q16 -71 75 -71t75 71l56 -9q-8 -53 -41.5 -85t-89.5 -32z" />
    <glyph glyph-name="dotaccent" unicode="&#x2d9;" 
d="M255 534q-20 0 -35 14t-15 35t15 35.5t35 14.5t35 -14.5t15 -35.5t-15 -35t-35 -14z" />
    <glyph glyph-name="ring" unicode="&#x2da;" 
d="M255 484q-44 0 -74.5 29.5t-30.5 70.5q0 42 30.5 71.5t74.5 29.5t74.5 -29.5t30.5 -71.5q0 -41 -30.5 -70.5t-74.5 -29.5zM255 528q23 0 38 15.5t15 40.5q0 26 -14.5 41t-38.5 15t-38.5 -15t-14.5 -41q0 -25 15 -40.5t38 -15.5z" />
    <glyph glyph-name="ogonek" unicode="&#x2db;" 
d="M243 -232q-39 0 -66 23t-27 65q0 46 41 101l32 43h51l-36 -57q-15 -24 -19.5 -32.5t-9.5 -23t-5 -29.5q0 -21 12 -32t30 -11q30 0 53 36l42 -24q-30 -59 -98 -59z" />
    <glyph glyph-name="tilde" unicode="&#x2dc;" 
d="M161 509l-52 4q3 53 26.5 82t60.5 29q32 0 69 -32q20 -18 28.5 -23t19.5 -5q30 0 36 58l52 -5q-3 -53 -25.5 -81.5t-60.5 -28.5q-31 0 -69 33q-20 18 -28.5 23t-19.5 5q-31 0 -37 -59z" />
    <glyph glyph-name="hungarumlaut" unicode="&#x2dd;" 
d="M294 505l68 193h76l-89 -193h-55zM156 505l67 193h76l-88 -193h-55z" />
    <glyph glyph-name="uni0374" unicode="&#x374;" 
d="M176 463l71 217h86l-104 -217h-53z" />
    <glyph glyph-name="uni0375" unicode="&#x375;" 
d="M333 65l-71 -217h-86l104 217h53z" />
    <glyph glyph-name="uni037E" unicode="&#x37e;" horiz-adv-x="222" 
d="M111 217q-21 0 -37.5 16t-16.5 39t16 38.5t38 15.5t38 -15.5t16 -38.5t-16 -39t-38 -16zM54 -112l39 111q-36 12 -36 49q0 22 16.5 38t37.5 16q22 0 38 -16t16 -38q0 -18 -12 -40l-60 -120h-39z" />
    <glyph glyph-name="tonos" unicode="&#x384;" 
d="M226 498l64 182h81l-90 -182h-55z" />
    <glyph glyph-name="dieresistonos" unicode="&#x385;" 
d="M240 550l54 160h71l-80 -160h-45zM173 546q-17 0 -29.5 12t-12.5 29t12.5 29t29.5 12t29 -12t12 -29t-12 -29t-29 -12zM379 546q-17 0 -29.5 12t-12.5 29t12.5 29t29.5 12t29 -12t12 -29t-12 -29t-29 -12z" />
    <glyph glyph-name="Alphatonos" unicode="&#x386;" horiz-adv-x="666" 
d="M42 0l282 687h12l288 -687h-76l-62 153h-312l-61 -153h-71zM16 498l64 182h81l-90 -182h-55zM199 215h262l-105 260q-6 14 -12.5 34t-10 33t-3.5 14l-4 -14q-4 -13 -10.5 -32.5t-12.5 -33.5z" />
    <glyph glyph-name="anoteleia" unicode="&#x387;" horiz-adv-x="212" 
d="M106 189q-21 0 -37.5 16t-16.5 39t16 38.5t38 15.5t38 -15.5t16 -38.5t-16 -39t-38 -16z" />
    <glyph glyph-name="Epsilontonos" unicode="&#x388;" horiz-adv-x="590" 
d="M98 0v680h414v-64h-342v-243h305v-63h-305v-246h356v-64h-428zM-106 498l64 182h81l-90 -182h-55z" />
    <glyph glyph-name="Etatonos" unicode="&#x389;" horiz-adv-x="704" 
d="M98 0v680h72v-317h364v317h72v-680h-72v298h-364v-298h-72zM-106 498l64 182h81l-90 -182h-55z" />
    <glyph glyph-name="Iotatonos" unicode="&#x38a;" horiz-adv-x="275" 
d="M101 0v680h73v-680h-73zM-106 498l64 182h81l-90 -182h-55z" />
    <glyph glyph-name="Omicrontonos" unicode="&#x38c;" horiz-adv-x="817" 
d="M408 -8q-147 0 -248 98t-101 250t101 250t248 98q148 0 249 -98t101 -250t-101 -250t-249 -98zM-63 498l64 182h81l-90 -182h-55zM408 57q119 0 197 80.5t78 202.5t-78 202.5t-197 80.5q-118 0 -196 -80.5t-78 -202.5t78 -202.5t196 -80.5z" />
    <glyph glyph-name="Upsilontonos" unicode="&#x38e;" horiz-adv-x="666" 
d="M289 0v250l-237 430h82l164 -301q6 -11 13 -27.5t11.5 -28.5t4.5 -13q7 28 29 69l163 301h75l-231 -428v-252h-74zM-120 498l64 182h81l-90 -182h-55z" />
    <glyph glyph-name="Omegatonos" unicode="&#x38f;" horiz-adv-x="817" 
d="M758 340q0 -86 -43.5 -161t-113.5 -115h152v-64h-271v60q89 33 145 108t56 172q0 120 -78.5 201.5t-196.5 81.5t-196 -81t-78 -202q0 -97 55.5 -172t144.5 -108v-60h-271v64h152q-70 41 -113 115.5t-43 160.5q0 150 100 249t249 99q150 0 250 -99t100 -249zM-63 498
l64 182h81l-90 -182h-55z" />
    <glyph glyph-name="iotadieresistonos" unicode="&#x390;" horiz-adv-x="253" 
d="M102 550l54 160h71l-80 -160h-45zM35 546q-17 0 -29.5 12t-12.5 29t12.5 29t29.5 12t29 -12t12 -29t-12 -29t-29 -12zM241 546q-17 0 -29.5 12t-12.5 29t12.5 29t29.5 12t29 -12t12 -29t-12 -29t-29 -12zM81 103v311h70v-302q0 -56 44 -56h18v-57q-11 -1 -36 -1
q-45 0 -70.5 26.5t-25.5 78.5z" />
    <glyph glyph-name="Alpha" unicode="&#x391;" horiz-adv-x="666" 
d="M42 0l282 687h12l288 -687h-76l-62 153h-312l-61 -153h-71zM199 215h262l-105 260q-6 14 -12.5 34t-10 33t-3.5 14l-4 -14q-4 -13 -10.5 -32.5t-12.5 -33.5z" />
    <glyph glyph-name="Beta" unicode="&#x392;" horiz-adv-x="619" 
d="M98 0v680h225q95 0 145 -48t50 -125q0 -113 -99 -145q133 -30 133 -171q0 -87 -53 -139t-158 -52h-243zM170 389h157q61 0 90 30.5t29 82.5q0 53 -31 83.5t-98 30.5h-147v-227zM170 64h166q143 0 143 131q0 63 -37 97t-110 34h-162v-262z" />
    <glyph glyph-name="Gamma" unicode="&#x393;" horiz-adv-x="528" 
d="M98 0v680h392v-64h-320v-616h-72z" />
    <glyph glyph-name="uni0394" unicode="&#x394;" horiz-adv-x="665" 
d="M619 0h-573v11l278 676h12l283 -676v-11zM303 477l-165 -415h384l-166 415q-16 40 -26 80q-25 -75 -27 -80z" />
    <glyph glyph-name="Epsilon" unicode="&#x395;" horiz-adv-x="590" 
d="M98 0v680h414v-64h-342v-243h305v-63h-305v-246h356v-64h-428z" />
    <glyph glyph-name="Zeta" unicode="&#x396;" horiz-adv-x="591" 
d="M44 0v11l380 605h-326v64h438v-11l-379 -605h381v-64h-494z" />
    <glyph glyph-name="Eta" unicode="&#x397;" horiz-adv-x="704" 
d="M98 0v680h72v-317h364v317h72v-680h-72v298h-364v-298h-72z" />
    <glyph glyph-name="Theta" unicode="&#x398;" horiz-adv-x="816" 
d="M408 -8q-147 0 -248 98t-101 250t101 250t248 98t248 -98t101 -250t-101 -250t-248 -98zM408 57q118 0 196 80.5t78 202.5q0 121 -78 201.5t-196 80.5q-119 0 -196.5 -80.5t-77.5 -201.5q0 -122 77.5 -202.5t196.5 -80.5zM259 310v63h297v-63h-297z" />
    <glyph glyph-name="Iota" unicode="&#x399;" horiz-adv-x="275" 
d="M101 0v680h73v-680h-73z" />
    <glyph glyph-name="Kappa" unicode="&#x39a;" horiz-adv-x="617" 
d="M98 0v680h72v-305q0 -36 -5 -89q22 45 47 77l260 317h82l-247 -304l275 -376h-88l-234 323l-90 -107v-216h-72z" />
    <glyph glyph-name="Lambda" unicode="&#x39b;" horiz-adv-x="657" 
d="M332 687l281 -687h-78l-181 460l-29 93q-17 -59 -30 -93l-178 -460h-73l276 687h12z" />
    <glyph glyph-name="Mu" unicode="&#x39c;" horiz-adv-x="847" 
d="M98 0v688h10l316 -395l314 395h11v-688h-70v449q0 13 0.5 32t1.5 32l1 13q-1 -1 -8.5 -12.5t-19 -29t-20.5 -28.5l-206 -260h-12l-203 260q-35 41 -49 70v-6q1 -5 1.5 -13t1 -18t1 -21t0.5 -19v-449h-70z" />
    <glyph glyph-name="Nu" unicode="&#x39d;" horiz-adv-x="723" 
d="M613 -7l-406 480q-33 38 -47 62q0 -1 1.5 -15t3 -31.5t1.5 -29.5v-459h-68v687h12l406 -480q6 -8 14.5 -19t14.5 -19.5t12 -16t6 -8.5l-1 14q-2 13 -3 31.5t-1 31.5v459h67v-687h-12z" />
    <glyph glyph-name="Xi" unicode="&#x39e;" horiz-adv-x="621" 
d="M66 0v64h209v246h-176v63h176v243h-209v64h489v-64h-209v-243h176v-63h-176v-246h209v-64h-489z" />
    <glyph glyph-name="Omicron" unicode="&#x39f;" horiz-adv-x="817" 
d="M408 -8q-147 0 -248 98t-101 250t101 250t248 98q148 0 249 -98t101 -250t-101 -250t-249 -98zM408 57q119 0 197 80.5t78 202.5t-78 202.5t-197 80.5q-118 0 -196 -80.5t-78 -202.5t78 -202.5t196 -80.5z" />
    <glyph glyph-name="Pi" unicode="&#x3a0;" horiz-adv-x="684" 
d="M98 0v680h488v-680h-72v616h-344v-616h-72z" />
    <glyph glyph-name="Rho" unicode="&#x3a1;" horiz-adv-x="594" 
d="M98 0v680h199q112 0 177 -54t65 -157q0 -102 -65 -156.5t-177 -54.5h-127v-258h-72zM170 322h123q172 0 172 147t-172 147h-123v-294z" />
    <glyph glyph-name="Sigma" unicode="&#x3a3;" horiz-adv-x="572" 
d="M169 616l179 -257v-10l-196 -285h359v-64h-471v11l232 340l-220 318v11h446v-64h-329z" />
    <glyph glyph-name="Tau" unicode="&#x3a4;" horiz-adv-x="566" 
d="M247 0v616h-209v64h490v-64h-209v-616h-72z" />
    <glyph glyph-name="Upsilon" unicode="&#x3a5;" horiz-adv-x="666" 
d="M279 0v250l-237 430h82l164 -301q6 -11 13 -27.5t11.5 -28.5t4.5 -13q7 28 29 69l163 301h75l-231 -428v-252h-74z" />
    <glyph glyph-name="Phi" unicode="&#x3a6;" horiz-adv-x="880" 
d="M404 -40v73q-158 4 -252 92.5t-94 214.5t93.5 214t252.5 93v73h72v-73q159 -5 252.5 -93t93.5 -214t-94 -214.5t-252 -92.5v-73h-72zM132 340q0 -103 71.5 -171.5t200.5 -73.5v490q-128 -5 -200 -74t-72 -171zM748 340q0 102 -72 171t-200 74v-490q129 5 200.5 73.5
t71.5 171.5z" />
    <glyph glyph-name="Chi" unicode="&#x3a7;" horiz-adv-x="645" 
d="M48 0l233 370l-196 310h82l135 -212l22 -47q10 30 21 47l134 212h79l-195 -310l235 -370h-82l-173 272q-19 30 -23 47l-4 -8q-3 -8 -8 -20t-9 -19l-172 -272h-79z" />
    <glyph glyph-name="Psi" unicode="&#x3a8;" horiz-adv-x="755" 
d="M327 0v178q-120 6 -186.5 71.5t-66.5 182.5v248h73v-246q0 -181 180 -193v479h73v-479q180 14 180 193v246h73v-248q0 -115 -67 -181t-186 -73v-178h-73z" />
    <glyph glyph-name="uni03A9" unicode="&#x3a9;" horiz-adv-x="817" 
d="M758 340q0 -86 -43.5 -161t-113.5 -115h152v-64h-271v60q89 33 145 108t56 172q0 120 -78.5 201.5t-196.5 81.5t-196 -81t-78 -202q0 -97 55.5 -172t144.5 -108v-60h-271v64h152q-70 41 -113 115.5t-43 160.5q0 150 100 249t249 99q150 0 250 -99t100 -249z" />
    <glyph glyph-name="Iotadieresis" unicode="&#x3aa;" horiz-adv-x="275" 
d="M223 761q-18 0 -32 13.5t-14 32.5t14 32.5t32 13.5t32 -13.5t14 -32.5t-14 -32.5t-32 -13.5zM53 761q-18 0 -32 13.5t-14 32.5t14 32.5t32 13.5t32 -13.5t14 -32.5t-14 -32.5t-32 -13.5zM101 0v680h73v-680h-73z" />
    <glyph glyph-name="Upsilondieresis" unicode="&#x3ab;" horiz-adv-x="666" 
d="M401 762q-18 0 -32 13.5t-14 32.5t14 32.5t32 13.5t32 -13.5t14 -32.5t-14 -32.5t-32 -13.5zM231 762q-18 0 -32 13.5t-14 32.5t14 32.5t32 13.5t32 -13.5t14 -32.5t-14 -32.5t-32 -13.5zM279 0v250l-237 430h82l164 -301q6 -11 13 -27.5t11.5 -28.5t4.5 -13q7 28 29 69
l163 301h75l-231 -428v-252h-74z" />
    <glyph glyph-name="alphatonos" unicode="&#x3ac;" horiz-adv-x="580" 
d="M259 498l64 182h81l-90 -182h-55zM508 -3q-43 0 -68 24.5t-25 63.5v6q-21 -45 -65 -72t-98 -27q-85 0 -142 61.5t-57 154.5q0 92 57 153.5t141 61.5q56 0 98 -26.5t65 -71.5l-2 89h70v-301q0 -57 43 -57h18v-57q-10 -2 -35 -2zM268 54q66 0 106.5 43t40.5 111
q0 67 -40.5 110t-106.5 43q-64 0 -103 -42.5t-39 -110.5t38.5 -111t103.5 -43z" />
    <glyph glyph-name="epsilontonos" unicode="&#x3ad;" horiz-adv-x="480" 
d="M233 498l64 182h81l-90 -182h-55zM151 219q-34 7 -56 31.5t-22 54.5q0 58 50 88t125 30q113 0 184 -71l-40 -44q-56 56 -140 56q-108 0 -108 -69q0 -23 22.5 -39.5t46.5 -16.5h92v-47h-92q-33 0 -59 -16t-26 -50q0 -75 115 -75q93 0 159 61l38 -44q-79 -76 -208 -76
q-82 0 -129 31.5t-47 88.5q0 42 25.5 69.5t69.5 37.5z" />
    <glyph glyph-name="etatonos" unicode="&#x3ae;" horiz-adv-x="526" 
d="M252 498l64 182h81l-90 -182h-55zM79 0v414h70l-2 -84q20 44 59.5 68.5t90.5 24.5q69 0 111.5 -45.5t42.5 -125.5v-464h-70v456q0 115 -103 115q-58 0 -93.5 -35t-35.5 -96v-228h-70z" />
    <glyph glyph-name="iotatonos" unicode="&#x3af;" horiz-adv-x="253" 
d="M92 498l64 182h81l-90 -182h-55zM81 103v311h70v-302q0 -56 44 -56h18v-57q-11 -1 -36 -1q-45 0 -70.5 26.5t-25.5 78.5z" />
    <glyph glyph-name="upsilondieresistonos" unicode="&#x3b0;" horiz-adv-x="497" 
d="M215 550l54 160h71l-80 -160h-45zM148 546q-17 0 -29.5 12t-12.5 29t12.5 29t29.5 12t29 -12t12 -29t-12 -29t-29 -12zM354 546q-17 0 -29.5 12t-12.5 29t12.5 29t29.5 12t29 -12t12 -29t-12 -29t-29 -12zM246 -9q-85 0 -133 50.5t-48 141.5v231h70v-228q0 -133 113 -133
t113 133v228h70v-231q0 -90 -49.5 -141t-135.5 -51z" />
    <glyph glyph-name="alpha" unicode="&#x3b1;" horiz-adv-x="580" 
d="M508 -3q-43 0 -68 24.5t-25 63.5v6q-21 -45 -65 -72t-98 -27q-85 0 -142 61.5t-57 154.5q0 92 57 153.5t141 61.5q56 0 98 -26.5t65 -71.5l-2 89h70v-301q0 -57 43 -57h18v-57q-10 -2 -35 -2zM268 54q66 0 106.5 43t40.5 111q0 67 -40.5 110t-106.5 43q-64 0 -103 -42.5
t-39 -110.5t38.5 -111t103.5 -43z" />
    <glyph glyph-name="beta" unicode="&#x3b2;" horiz-adv-x="562" 
d="M150 69v-281h-70v740q0 96 56 151.5t142 55.5q89 0 142.5 -48.5t53.5 -133.5q0 -53 -33.5 -99t-91.5 -61q74 -10 117 -60.5t43 -125.5q0 -91 -56.5 -153t-152.5 -62q-99 0 -150 77zM150 527v-348q0 -57 41.5 -91.5t98.5 -34.5q71 0 109 43t38 112t-40.5 108t-117.5 39
h-49v59h49q51 0 88 37.5t37 98.5t-32.5 92t-93.5 31t-94.5 -37.5t-33.5 -108.5z" />
    <glyph glyph-name="gamma" unicode="&#x3b3;" horiz-adv-x="472" 
d="M260 131l112 283h70l-171 -413v-213h-69v213l-172 413h76l113 -283l21 -72q9 44 20 72z" />
    <glyph glyph-name="delta" unicode="&#x3b4;" horiz-adv-x="544" 
d="M334 399l-205 312v11h328v-63h-218l209 -319q43 -65 43 -133q0 -90 -63 -152.5t-155 -62.5q-93 0 -156.5 62.5t-63.5 152.5t62 150t147 60q43 0 72 -18zM273 52q65 0 106 44t41 111q0 68 -41 111.5t-106 43.5t-107 -43.5t-42 -111.5q0 -67 41.5 -111t107.5 -44z" />
    <glyph glyph-name="epsilon" unicode="&#x3b5;" horiz-adv-x="480" 
d="M151 219q-34 7 -56 31.5t-22 54.5q0 58 50 88t125 30q113 0 184 -71l-40 -44q-56 56 -140 56q-108 0 -108 -69q0 -23 22.5 -39.5t46.5 -16.5h92v-47h-92q-33 0 -59 -16t-26 -50q0 -75 115 -75q93 0 159 61l38 -44q-79 -76 -208 -76q-82 0 -129 31.5t-47 88.5
q0 42 25.5 69.5t69.5 37.5z" />
    <glyph glyph-name="zeta" unicode="&#x3b6;" horiz-adv-x="441" 
d="M369 -45q0 45 -55 45h-22q-118 0 -178 46t-60 144q0 63 26 129t73 127t94 110t107 102h-253v64h345v-52q-64 -55 -114 -105t-100 -112.5t-77.5 -127.5t-27.5 -127q0 -74 41 -105.5t136 -31.5h19q113 0 113 -100q0 -47 -33.5 -78.5t-93.5 -36.5l-9 58q69 4 69 51z" />
    <glyph glyph-name="eta" unicode="&#x3b7;" horiz-adv-x="526" 
d="M79 0v414h70l-2 -84q20 44 59.5 68.5t90.5 24.5q69 0 111.5 -45.5t42.5 -125.5v-464h-70v456q0 115 -103 115q-58 0 -93.5 -35t-35.5 -96v-228h-70z" />
    <glyph glyph-name="theta" unicode="&#x3b8;" horiz-adv-x="524" 
d="M101 414v141q0 180 160 180q161 0 161 -180v-141h64v-59h-64v-184q0 -85 -36.5 -132t-124.5 -47q-87 0 -123.5 47t-36.5 132v184h-64v59h64zM170 563v-149h182v149q0 57 -21 84.5t-70 27.5q-91 0 -91 -112zM170 355v-192q0 -111 91 -111q49 0 70 27.5t21 83.5v192h-182z
" />
    <glyph glyph-name="iota" unicode="&#x3b9;" horiz-adv-x="253" 
d="M81 103v311h70v-302q0 -56 44 -56h18v-57q-11 -1 -36 -1q-45 0 -70.5 26.5t-25.5 78.5z" />
    <glyph glyph-name="kappa" unicode="&#x3ba;" horiz-adv-x="474" 
d="M149 126v-126h-70v414h70v-155q0 -29 -4 -59l198 214h80l-160 -173l184 -241h-83l-151 193z" />
    <glyph glyph-name="lambda" unicode="&#x3bb;" horiz-adv-x="487" 
d="M241 362q-7 -45 -18 -72l-117 -290h-76l180 414l-73 195q-11 27 -23 38.5t-39 11.5h-27v63h38q44 0 71 -19.5t44 -65.5l209 -556q8 -24 36 -24h22v-57q-16 -2 -44 -2q-58 0 -79 59l-88 234z" />
    <glyph glyph-name="uni03BC" unicode="&#x3bc;" horiz-adv-x="550" 
d="M386 78v5q-18 -40 -53.5 -65t-80.5 -25q-75 0 -111 53q9 -42 9 -95v-163h-70v626h70v-243q0 -116 104 -116q56 0 91.5 35.5t35.5 100.5v223h70v-301q0 -57 44 -57h18v-57q-12 -2 -36 -2q-42 0 -66.5 23t-24.5 58z" />
    <glyph glyph-name="nu" unicode="&#x3bd;" horiz-adv-x="472" 
d="M231 -8l-201 422h77l110 -239q6 -12 11.5 -30t8.5 -29l3 -12q9 43 22 71l108 239h72l-198 -422h-13z" />
    <glyph glyph-name="xi" unicode="&#x3be;" horiz-adv-x="448" 
d="M310 0h-54q-102 0 -153 54t-51 140q0 71 40.5 124.5t113.5 70.5q-63 17 -94 62.5t-31 100.5q0 79 55.5 131t142.5 52q128 0 176 -94l-58 -32q-33 64 -116 64q-57 0 -91.5 -33.5t-34.5 -93.5q0 -59 38.5 -95.5t91.5 -36.5h95v-60h-94q-70 0 -115 -39t-45 -115
q0 -65 35 -102t104 -37h53q113 0 113 -100q0 -48 -33 -79t-94 -36l-9 58q69 4 69 51q0 45 -54 45z" />
    <glyph glyph-name="omicron" unicode="&#x3bf;" horiz-adv-x="544" 
d="M273 -8q-93 0 -157 62t-64 153t64 153.5t157 62.5q92 0 155 -62.5t63 -153.5t-63 -153t-155 -62zM273 52q65 0 105.5 44t40.5 111q0 68 -40.5 111.5t-105.5 43.5q-66 0 -107.5 -44t-41.5 -111t41.5 -111t107.5 -44z" />
    <glyph glyph-name="pi" unicode="&#x3c0;" horiz-adv-x="522" 
d="M481 414v-58h-53v-244q0 -56 43 -56h10v-56q-4 0 -15 -0.5t-16 -0.5q-93 0 -93 106v250h-193v-355h-70v356h-54v58h441z" />
    <glyph glyph-name="rho" unicode="&#x3c1;" horiz-adv-x="544" 
d="M133 76v-288h-70v420q0 95 61.5 155t150.5 60q92 0 154 -62t62 -154q0 -93 -60 -154.5t-145 -61.5q-46 0 -87.5 22t-65.5 63zM131 207q0 -69 39.5 -112t104.5 -43q63 0 103.5 43.5t40.5 111.5t-40 111.5t-103 43.5t-104 -43.5t-41 -111.5z" />
    <glyph glyph-name="uni03C2" unicode="&#x3c2;" horiz-adv-x="479" 
d="M334 -45q0 19 -15 31.5t-40 13.5q-108 3 -167 56t-59 150q0 92 61 154t146 62q128 0 183 -104q-20 -9 -60 -29q-35 71 -121 71q-59 0 -98 -44t-39 -112q0 -62 37 -100.5t110 -42.5q129 -6 129 -99q0 -49 -33.5 -80t-93.5 -35l-9 57q69 6 69 51z" />
    <glyph glyph-name="sigma" unicode="&#x3c3;" horiz-adv-x="559" 
d="M383 355q104 -40 104 -156q0 -90 -63.5 -148.5t-152.5 -58.5q-90 0 -154.5 60.5t-64.5 152.5t62.5 150.5t156.5 58.5h246v-59h-134zM271 51q61 0 103.5 43.5t42.5 110.5q0 68 -40.5 109t-105.5 41t-106 -42t-41 -110q0 -67 42.5 -109.5t104.5 -42.5z" />
    <glyph glyph-name="tau" unicode="&#x3c4;" horiz-adv-x="418" 
d="M281 -9q-51 0 -81 32t-30 102v230h-135v59h341v-59h-137v-231q0 -71 49 -71q35 0 58 17q5 -9 15 -25t14 -25q-32 -29 -94 -29z" />
    <glyph glyph-name="upsilon" unicode="&#x3c5;" horiz-adv-x="496" 
d="M246 -9q-85 0 -133 50.5t-48 141.5v231h70v-228q0 -133 113 -133t113 133v228h70v-231q0 -90 -49.5 -141t-135.5 -51z" />
    <glyph glyph-name="phi" unicode="&#x3c6;" horiz-adv-x="645" 
d="M288 49v372q18 3 39 3q129 0 197 -62t68 -156t-65.5 -154.5t-169.5 -62.5v-200h-69v200q-106 2 -170.5 60t-64.5 155q0 89 50 143.5t133 73.5v-61q-113 -35 -113 -157q0 -71 45 -112t120 -42zM520 205q0 69 -44 112.5t-119 44.5v-313q74 1 118.5 44t44.5 112z" />
    <glyph glyph-name="chi" unicode="&#x3c7;" horiz-adv-x="485" 
d="M114 -212h-79q21 38 85 151.5t98 176.5l-102 197q-13 26 -23 34t-35 8h-23v59h25q54 0 77.5 -17.5t48.5 -68.5l56 -116l16 -46q8 25 19 46l104 202h78l-166 -296l128 -250q12 -24 41 -24h19v-57q-11 -1 -34 -1q-21 0 -38 7.5t-30.5 23t-21.5 28.5t-18 34l-71 142l-16 41
q-7 -26 -15 -41z" />
    <glyph glyph-name="psi" unicode="&#x3c8;" horiz-adv-x="647" 
d="M134 414v-190q0 -77 39.5 -123t114.5 -53v508h70v-508q75 7 114.5 53t39.5 123v190h70v-192q0 -104 -57.5 -165t-166.5 -67v-202h-70v202q-109 6 -166 67t-57 165v192h69z" />
    <glyph glyph-name="omega" unicode="&#x3c9;" horiz-adv-x="645" 
d="M323 80q-12 -40 -42.5 -64t-70.5 -24q-79 0 -118 57.5t-39 139.5q0 87 47 153.5t137 80.5v-61q-58 -16 -85 -62.5t-27 -109.5q0 -58 21.5 -98t70.5 -40q30 0 50.5 23.5t20.5 59.5v146h70v-146q0 -36 21 -59.5t50 -23.5q49 0 70.5 40t21.5 98q0 63 -27.5 109.5t-84.5 62.5
v61q89 -14 136 -80.5t47 -153.5q0 -82 -38.5 -139.5t-117.5 -57.5q-41 0 -71 24t-42 64z" />
    <glyph glyph-name="iotadieresis" unicode="&#x3ca;" horiz-adv-x="253" 
d="M208 537q-18 0 -32 13.5t-14 32.5t14 32.5t32 13.5t32 -13.5t14 -32.5t-14 -32.5t-32 -13.5zM38 537q-18 0 -32 13.5t-14 32.5t14 32.5t32 13.5t32 -13.5t14 -32.5t-14 -32.5t-32 -13.5zM81 103v311h70v-302q0 -56 44 -56h18v-57q-11 -1 -36 -1q-45 0 -70.5 26.5
t-25.5 78.5z" />
    <glyph glyph-name="upsilondieresis" unicode="&#x3cb;" horiz-adv-x="497" 
d="M338 537q-18 0 -32 13.5t-14 32.5t14 32.5t32 13.5t32 -13.5t14 -32.5t-14 -32.5t-32 -13.5zM168 537q-18 0 -32 13.5t-14 32.5t14 32.5t32 13.5t32 -13.5t14 -32.5t-14 -32.5t-32 -13.5zM246 -9q-85 0 -133 50.5t-48 141.5v231h70v-228q0 -133 113 -133t113 133v228h70
v-231q0 -90 -49.5 -141t-135.5 -51z" />
    <glyph glyph-name="omicrontonos" unicode="&#x3cc;" horiz-adv-x="544" 
d="M245 498l64 182h81l-90 -182h-55zM273 -8q-93 0 -157 62t-64 153t64 153.5t157 62.5q92 0 155 -62.5t63 -153.5t-63 -153t-155 -62zM273 52q65 0 105.5 44t40.5 111q0 68 -40.5 111.5t-105.5 43.5q-66 0 -107.5 -44t-41.5 -111t41.5 -111t107.5 -44z" />
    <glyph glyph-name="upsilontonos" unicode="&#x3cd;" horiz-adv-x="497" 
d="M224 498l64 182h81l-90 -182h-55zM246 -9q-85 0 -133 50.5t-48 141.5v231h70v-228q0 -133 113 -133t113 133v228h70v-231q0 -90 -49.5 -141t-135.5 -51z" />
    <glyph glyph-name="omegatonos" unicode="&#x3ce;" horiz-adv-x="645" 
d="M302 498l64 182h81l-90 -182h-55zM323 80q-12 -40 -42.5 -64t-70.5 -24q-79 0 -118 57.5t-39 139.5q0 87 47 153.5t137 80.5v-61q-58 -16 -85 -62.5t-27 -109.5q0 -58 21.5 -98t70.5 -40q30 0 50.5 23.5t20.5 59.5v146h70v-146q0 -36 21 -59.5t50 -23.5q49 0 70.5 40
t21.5 98q0 63 -27.5 109.5t-84.5 62.5v61q89 -14 136 -80.5t47 -153.5q0 -82 -38.5 -139.5t-117.5 -57.5q-41 0 -71 24t-42 64z" />
    <glyph glyph-name="uni03D7" unicode="&#x3d7;" horiz-adv-x="878" 
d="M509 68l-76 102l-60 -64v-106h-69v367h69v-131q0 -22 -2 -48l164 179h79l-138 -150l75 -102q49 -68 102 -68q52 0 80.5 48.5t28.5 119.5q0 137 -82.5 226t-228.5 89q-145 0 -238 -97.5t-93 -243.5q0 -148 91.5 -244t241.5 -96q90 0 164 40l26 -50q-84 -45 -190 -45
q-171 0 -285 110t-114 284q0 171 116 284.5t281 113.5q167 0 270 -106t103 -264q0 -99 -48.5 -162t-119.5 -63q-90 0 -147 77z" />
    <glyph glyph-name="uni03D8" unicode="&#x3d8;" horiz-adv-x="817" 
d="M366 -186v181q-132 14 -219.5 109.5t-87.5 235.5q0 152 101 250t248 98q148 0 249 -98t101 -250q0 -143 -91 -239.5t-228 -107.5v-179h-73zM408 57q119 0 197 80.5t78 202.5t-78 202.5t-197 80.5q-118 0 -196 -80.5t-78 -202.5t78 -202.5t196 -80.5z" />
    <glyph glyph-name="uni03D9" unicode="&#x3d9;" horiz-adv-x="544" 
d="M235 -138v134q-79 12 -130.5 71t-51.5 140q0 91 63.5 153.5t156.5 62.5q92 0 155 -62.5t63 -153.5q0 -82 -52.5 -141.5t-133.5 -70.5v-133h-70zM273 52q65 0 106 44t41 111t-41 111t-106 44q-66 0 -107.5 -44t-41.5 -111t41.5 -111t107.5 -44z" />
    <glyph glyph-name="uni03DA" unicode="&#x3da;" horiz-adv-x="747" 
d="M129 383q0 -190 143 -235l90 -29q72 -23 97.5 -44t25.5 -60q0 -18 -25 -93l-30 -88h-62l33 102q17 55 17 70q0 20 -21.5 32t-65.5 25l-73 22q-23 7 -45.5 18t-51.5 35t-50.5 55.5t-36.5 81t-15 108.5q0 53 14 102.5t44 94.5t85.5 72.5t129.5 27.5h252q23 0 36.5 8
t35.5 38l43 -33q-23 -42 -51.5 -59.5t-76.5 -17.5h-245q-95 0 -146 -69.5t-51 -163.5z" />
    <glyph glyph-name="uni03DB" unicode="&#x3db;" horiz-adv-x="615" 
d="M124 206q0 -112 110 -146l69 -21q46 -14 66.5 -31t20.5 -50q0 -20 -13 -59l-36 -100h-51l30 96q12 36 12 51q0 12 -12 20t-44 18l-63 18q-67 20 -113.5 70t-46.5 134q0 91 59 149.5t147 58.5h202q23 0 35 7.5t27 26.5l38 -29q-43 -64 -100 -64h-203q-61 0 -97.5 -45
t-36.5 -104z" />
    <glyph glyph-name="uni03DC" unicode="&#x3dc;" horiz-adv-x="566" 
d="M98 0v680h409v-64h-337v-260h306v-65h-306v-291h-72z" />
    <glyph glyph-name="uni03DD" unicode="&#x3dd;" horiz-adv-x="367" 
d="M80 -209v623h256v-58h-186v-229h154v-59h-154v-277h-70z" />
    <glyph glyph-name="uni03DE" unicode="&#x3de;" horiz-adv-x="478" 
d="M423 202l-257 -429l-65 37l250 377l-273 -93l-33 50l151 254q-40 11 -40 55q0 23 17 40t41 17t41.5 -16t17.5 -38q0 -21 -18 -51l-138 -231l273 80z" />
    <glyph glyph-name="uni03DF" unicode="&#x3df;" horiz-adv-x="459" 
d="M184 371q0 20 12.5 36.5t39.5 16.5q26 0 40 -15.5t14 -37.5q0 -23 -36 -57l-133 -127h274l19 -41l-266 -257l-62 35l234 207h-280l-5 35l177 165q-28 11 -28 40z" />
    <glyph glyph-name="uni03E0" unicode="&#x3e0;" horiz-adv-x="775" 
d="M628 -211v28q0 178 -39 311l-277 -247l-44 50l300 255q-31 75 -75 125l-292 -260l-44 50l295 251q-120 102 -344 102h-43v58h37q142 0 248 -35t172 -94.5t106.5 -150t56 -188.5t15.5 -223v-32h-72z" />
    <glyph glyph-name="uni03E1" unicode="&#x3e1;" horiz-adv-x="674" 
d="M541 -207v44q0 142 -31 251l-245 -209l-35 42l260 221q-25 59 -62 103l-260 -222l-35 42l256 218q-103 84 -293 84h-41v56h37q123 0 215 -30.5t149 -82t92 -129.5t48 -163t13 -193v-32h-68z" />
    <glyph glyph-name="uni0400" unicode="&#x400;" horiz-adv-x="590" 
d="M285 749l-93 193h80l68 -193h-55zM98 0v680h414v-64h-342v-243h305v-63h-305v-246h356v-64h-428z" />
    <glyph glyph-name="uni0401" unicode="&#x401;" horiz-adv-x="590" 
d="M397 759q-18 0 -32 13.5t-14 32.5t14 32.5t32 13.5t32 -13.5t14 -32.5t-14 -32.5t-32 -13.5zM227 759q-18 0 -32 13.5t-14 32.5t14 32.5t32 13.5t32 -13.5t14 -32.5t-14 -32.5t-32 -13.5zM98 0v680h414v-64h-342v-243h305v-63h-305v-246h356v-64h-428z" />
    <glyph glyph-name="uni0402" unicode="&#x402;" horiz-adv-x="699" 
d="M229 0v616h-209v64h490v-64h-209v-193q41 15 109 15q108 0 168.5 -59.5t60.5 -159.5q0 -155 -124 -256l-47 40q99 94 99 216q0 76 -43 117.5t-122 41.5q-25 0 -50 -3t-38 -5l-13 -3v-367h-72z" />
    <glyph glyph-name="uni0403" unicode="&#x403;" horiz-adv-x="482" 
d="M251 755l68 193h80l-93 -193h-55zM98 0v680h359v-64h-287v-616h-72z" />
    <glyph glyph-name="uni0404" unicode="&#x404;" horiz-adv-x="736" 
d="M408 -8q-147 0 -248 98t-101 250t101 250t248 98q182 0 270 -132l-55 -40q-72 107 -215 107q-111 0 -186.5 -71.5t-86.5 -181.5h328v-65h-327q11 -109 86.5 -178.5t185.5 -69.5q145 0 224 114l56 -39q-46 -67 -118 -103.5t-162 -36.5z" />
    <glyph glyph-name="uni0405" unicode="&#x405;" horiz-adv-x="537" 
d="M271 -8q-168 0 -237 138l60 32q28 -49 68.5 -77.5t106.5 -28.5q61 0 101 31.5t40 84.5q0 49 -30 80.5t-98 61.5l-54 25q-78 35 -114 76.5t-36 109.5q0 73 50.5 118t128.5 45q123 0 184 -102l-58 -36q-46 74 -126 74q-50 0 -79 -26.5t-29 -70.5q0 -43 24 -68.5t84 -53.5
l54 -25q89 -39 130 -86.5t41 -121.5q0 -83 -59 -131.5t-152 -48.5z" />
    <glyph glyph-name="uni0406" unicode="&#x406;" horiz-adv-x="275" 
d="M101 0v680h73v-680h-73z" />
    <glyph glyph-name="uni0407" unicode="&#x407;" horiz-adv-x="265" 
d="M218 796q-18 0 -32 13.5t-14 32.5t14 32.5t32 13.5t32 -13.5t14 -32.5t-14 -32.5t-32 -13.5zM48 796q-18 0 -32 13.5t-14 32.5t14 32.5t32 13.5t32 -13.5t14 -32.5t-14 -32.5t-32 -13.5zM98 0v680h73v-680h-73z" />
    <glyph glyph-name="uni0408" unicode="&#x408;" horiz-adv-x="493" 
d="M214 -8q-121 0 -176 102l59 37q43 -74 114 -74q52 0 82 30.5t30 93.5v499h73v-501q0 -91 -50 -139t-132 -48z" />
    <glyph glyph-name="uni0409" unicode="&#x409;" horiz-adv-x="983" 
d="M33 -8l-23 60q64 24 89 65.5t34 133.5l43 429h393v-268h127q113 0 177.5 -52.5t64.5 -153.5q0 -103 -64.5 -154.5t-177.5 -51.5h-199v616h-257l-36 -362q-11 -115 -48 -176.5t-123 -85.5zM692 348h-123v-284h123q172 0 172 142t-172 142z" />
    <glyph glyph-name="uni040A" unicode="&#x40a;" horiz-adv-x="1020" 
d="M98 0v680h72v-317h364v317h72v-268h127q113 0 177.5 -52.5t64.5 -153.5q0 -103 -64.5 -154.5t-177.5 -51.5h-199v298h-364v-298h-72zM729 348h-123v-284h123q172 0 172 142t-172 142z" />
    <glyph glyph-name="uni040B" unicode="&#x40b;" horiz-adv-x="721" 
d="M229 0v616h-209v64h490v-64h-209v-219q45 22 138 22q95 0 156 -54.5t61 -155.5v-209h-72v209q0 71 -40 109.5t-111 38.5q-39 0 -72 -5.5t-47 -10.5l-13 -5v-336h-72z" />
    <glyph glyph-name="uni040C" unicode="&#x40c;" horiz-adv-x="597" 
d="M251 756l68 193h80l-93 -193h-55zM170 680v-266l-2 -55q23 29 61 68l245 253h93l-329 -336l344 -344h-95l-317 313v-313h-72v680h72z" />
    <glyph glyph-name="uni040D" unicode="&#x40d;" horiz-adv-x="723" 
d="M347 756l-93 193h80l68 -193h-55zM516 473l-406 -480h-12v687h67v-460q0 -13 -1.5 -31.5t-2.5 -32.5l-1 -13q7 14 47 63l406 481h12v-687h-68v459q0 12 1.5 30t2.5 31t2 14q-1 -1 -9 -12t-19.5 -25.5t-18.5 -23.5z" />
    <glyph glyph-name="uni040E" unicode="&#x40e;" horiz-adv-x="616" 
d="M310 767q-56 0 -89.5 32t-41.5 85l56 9q16 -71 75 -71t75 71l56 -9q-8 -53 -41.5 -85t-89.5 -32zM97 680l184 -358l27 -63q9 29 28 66l184 355h79l-352 -680h-79l98 190l-251 490h82z" />
    <glyph glyph-name="uni040F" unicode="&#x40f;" horiz-adv-x="694" 
d="M98 0v680h72v-615h354v615h72v-680h-216v-134h-72v134h-210z" />
    <glyph glyph-name="uni0410" unicode="&#x410;" horiz-adv-x="664" 
d="M41 0l282 687h12l288 -687h-76l-62 153h-312l-61 -153h-71zM198 215h262l-105 260q-6 14 -12.5 34t-10 33t-3.5 14l-4 -14q-4 -13 -10.5 -32.5t-12.5 -33.5z" />
    <glyph glyph-name="uni0411" unicode="&#x411;" horiz-adv-x="609" 
d="M98 0v680h389v-64h-317v-212h127q113 0 177.5 -50.5t64.5 -151.5q0 -102 -64.5 -152t-177.5 -50h-199zM293 340h-123v-276h123q87 0 129.5 33t42.5 105t-42.5 105t-129.5 33z" />
    <glyph glyph-name="uni0412" unicode="&#x412;" horiz-adv-x="611" 
d="M97 0v680h225q95 0 145 -48t50 -125q0 -113 -99 -145q133 -30 133 -171q0 -87 -53 -139t-158 -52h-243zM169 389h157q61 0 90 30.5t29 82.5q0 53 -31 83.5t-98 30.5h-147v-227zM169 64h166q143 0 143 131q0 63 -37 97t-110 34h-162v-262z" />
    <glyph glyph-name="uni0413" unicode="&#x413;" horiz-adv-x="482" 
d="M98 0v680h359v-64h-287v-616h-72z" />
    <glyph glyph-name="uni0414" unicode="&#x414;" horiz-adv-x="677" 
d="M85 0v-134h-70v199h39q39 27 56.5 68.5t25.5 117.5l43 429h393v-615h70v-199h-70v134h-487zM207 254q-13 -136 -65 -189h358v551h-257z" />
    <glyph glyph-name="uni0415" unicode="&#x415;" horiz-adv-x="590" 
d="M98 0v680h414v-64h-342v-243h305v-63h-305v-246h356v-64h-428z" />
    <glyph glyph-name="uni0416" unicode="&#x416;" horiz-adv-x="927" 
d="M428 414v266h71v-266l-2 -55q23 29 61 68l245 253h94l-326 -336l341 -344h-96l-317 313v-313h-71v313l-319 -313h-94l342 343l-327 337h94l245 -253l61 -68q-2 24 -2 55z" />
    <glyph glyph-name="uni0417" unicode="&#x417;" horiz-adv-x="530" 
d="M255 389q56 0 86.5 33.5t30.5 85.5q0 51 -28.5 83.5t-80.5 32.5q-80 0 -126 -74l-58 36q61 102 184 102q84 0 131 -49t47 -125q0 -116 -96 -153q64 -12 97 -57t33 -111q0 -84 -54 -142.5t-154 -58.5q-168 0 -237 138l60 32q28 -49 68.5 -77.5t106.5 -28.5q68 0 102.5 40
t34.5 104q0 57 -37.5 91.5t-110.5 34.5h-51v63h52z" />
    <glyph glyph-name="uni0418" unicode="&#x418;" horiz-adv-x="723" 
d="M516 473l-406 -480h-12v687h67v-460q0 -13 -1.5 -31.5t-2.5 -32.5l-1 -13q7 14 47 63l406 481h12v-687h-68v459q0 12 1.5 30t2.5 31t2 14q-1 -1 -9 -12t-19.5 -25.5t-18.5 -23.5z" />
    <glyph glyph-name="uni0419" unicode="&#x419;" horiz-adv-x="723" 
d="M362 749q-56 0 -89.5 32t-41.5 85l56 9q16 -71 75 -71t75 71l56 -9q-8 -53 -41.5 -85t-89.5 -32zM516 473l-406 -480h-12v687h67v-460q0 -13 -1.5 -31.5t-2.5 -32.5l-1 -13q7 14 47 63l406 481h12v-687h-68v459q0 12 1.5 30t2.5 31t2 14q-1 -1 -9 -12t-19.5 -25.5
t-18.5 -23.5z" />
    <glyph glyph-name="uni041A" unicode="&#x41a;" horiz-adv-x="597" 
d="M170 680v-266l-2 -55q23 29 61 68l245 253h93l-329 -336l344 -344h-95l-317 313v-313h-72v680h72z" />
    <glyph glyph-name="uni041B" unicode="&#x41b;" horiz-adv-x="667" 
d="M33 -8l-23 60q64 24 89 65.5t34 133.5l43 429h393v-680h-72v616h-257l-36 -362q-11 -115 -48 -176.5t-123 -85.5z" />
    <glyph glyph-name="uni041C" unicode="&#x41c;" horiz-adv-x="847" 
d="M98 0v688h10l316 -395l314 395h11v-688h-70v449q0 13 0.5 32t1.5 32l1 13q-1 -1 -8.5 -12.5t-19 -29t-20.5 -28.5l-206 -260h-12l-203 260q-24 28 -49 69l1 -13q1 -13 2 -31.5t1 -31.5v-449h-70z" />
    <glyph glyph-name="uni041D" unicode="&#x41d;" horiz-adv-x="704" 
d="M98 0v680h72v-317h364v317h72v-680h-72v298h-364v-298h-72z" />
    <glyph glyph-name="uni041E" unicode="&#x41e;" horiz-adv-x="817" 
d="M408 -8q-147 0 -248 98t-101 250t101 250t248 98q148 0 249 -98t101 -250t-101 -250t-249 -98zM408 57q119 0 197 80.5t78 202.5t-78 202.5t-197 80.5q-118 0 -196 -80.5t-78 -202.5t78 -202.5t196 -80.5z" />
    <glyph glyph-name="uni041F" unicode="&#x41f;" horiz-adv-x="694" 
d="M98 0v680h498v-680h-72v615h-354v-615h-72z" />
    <glyph glyph-name="uni0420" unicode="&#x420;" horiz-adv-x="592" 
d="M98 0v680h199q112 0 177 -54t65 -157q0 -102 -65 -156.5t-177 -54.5h-127v-258h-72zM170 322h123q172 0 172 147t-172 147h-123v-294z" />
    <glyph glyph-name="uni0421" unicode="&#x421;" horiz-adv-x="736" 
d="M408 -8q-147 0 -248 98t-101 250t101 250t248 98q182 0 270 -132l-55 -40q-72 107 -215 107q-119 0 -196.5 -80.5t-77.5 -202.5t77.5 -202.5t196.5 -80.5q145 0 224 114l56 -39q-46 -67 -118 -103.5t-162 -36.5z" />
    <glyph glyph-name="uni0422" unicode="&#x422;" horiz-adv-x="530" 
d="M229 0v616h-209v64h490v-64h-209v-616h-72z" />
    <glyph glyph-name="uni0423" unicode="&#x423;" horiz-adv-x="616" 
d="M97 680l184 -358l27 -63q9 29 28 66l184 355h79l-352 -680h-79l98 190l-251 490h82z" />
    <glyph glyph-name="uni0424" unicode="&#x424;" horiz-adv-x="859" 
d="M466 57v-77h-73v77q-66 0 -125 16.5t-107.5 49t-77 88.5t-28.5 129t27.5 128.5t75 88.5t107 49.5t128.5 16.5v77h73v-77q69 0 128.5 -16.5t107 -49.5t75 -88.5t27.5 -128.5t-28.5 -129t-77 -88.5t-107.5 -49t-125 -16.5zM731 340q0 113 -74 168t-191 55v-446
q118 0 191.5 54.5t73.5 168.5zM393 117v446q-117 0 -191 -55t-74 -168q0 -114 73.5 -168.5t191.5 -54.5z" />
    <glyph glyph-name="uni0425" unicode="&#x425;" horiz-adv-x="634" 
d="M48 0l233 370l-196 310h82l135 -212l22 -47q10 30 21 47l134 212h79l-195 -310l235 -370h-82l-173 272q-19 30 -23 47l-4 -8q-3 -8 -8 -20t-9 -19l-172 -272h-79z" />
    <glyph glyph-name="uni0426" unicode="&#x426;" horiz-adv-x="701" 
d="M98 0v680h72v-615h354v615h72v-615h70v-199h-70v134h-498z" />
    <glyph glyph-name="uni0427" unicode="&#x427;" horiz-adv-x="634" 
d="M463 0v283l-11 -2q-10 -2 -24 -4t-32.5 -4.5t-42 -4t-45.5 -1.5q-124 0 -181 64t-57 193v156h72v-156q0 -91 37.5 -141t128.5 -50q75 0 155 16v331h73v-680h-73z" />
    <glyph glyph-name="uni0428" unicode="&#x428;" horiz-adv-x="991" 
d="M98 0v680h72v-615h289v615h72v-615h289v615h72v-680h-794z" />
    <glyph glyph-name="uni0429" unicode="&#x429;" horiz-adv-x="997" 
d="M98 0v680h72v-615h289v615h72v-615h289v615h72v-615h70v-199h-70v134h-794z" />
    <glyph glyph-name="uni042A" unicode="&#x42a;" horiz-adv-x="669" 
d="M183 0v616h-163v64h235v-268h127q113 0 177.5 -52.5t64.5 -153.5q0 -103 -64.5 -154.5t-177.5 -51.5h-199zM378 348h-123v-284h123q172 0 172 142t-172 142z" />
    <glyph glyph-name="uni042B" unicode="&#x42b;" horiz-adv-x="801" 
d="M98 0v680h72v-268h127q113 0 177.5 -52.5t64.5 -153.5q0 -103 -64.5 -154.5t-177.5 -51.5h-199zM641 0v680h73v-680h-73zM293 348h-123v-284h123q172 0 172 142t-172 142z" />
    <glyph glyph-name="uni042C" unicode="&#x42c;" horiz-adv-x="584" 
d="M98 0v680h72v-268h127q113 0 177.5 -52.5t64.5 -153.5q0 -103 -64.5 -154.5t-177.5 -51.5h-199zM293 348h-123v-284h123q172 0 172 142t-172 142z" />
    <glyph glyph-name="uni042D" unicode="&#x42d;" horiz-adv-x="736" 
d="M284 305v65h327q-10 110 -85.5 181.5t-186.5 71.5q-143 0 -215 -107l-55 40q88 132 270 132q147 0 248 -98t101 -250t-101 -250t-248 -98q-90 0 -162 36.5t-118 103.5l56 39q79 -114 224 -114q109 0 184.5 69.5t87.5 178.5h-327z" />
    <glyph glyph-name="uni042E" unicode="&#x42e;" horiz-adv-x="1058" 
d="M649 -8q-137 0 -235 85t-112 221h-132v-298h-72v680h72v-317h130q8 142 108 233.5t241 91.5q148 0 249 -98t101 -250t-101 -250t-249 -98zM649 57q119 0 197 80.5t78 202.5t-78 202.5t-197 80.5q-118 0 -196 -80.5t-78 -202.5t78 -202.5t196 -80.5z" />
    <glyph glyph-name="uni042F" unicode="&#x42f;" horiz-adv-x="617" 
d="M519 680v-680h-72v267h-124l-34 1l-156 -268h-83l166 280q-68 21 -105.5 70t-37.5 122q0 102 65.5 155t176.5 53h204zM319 329h128v287h-128q-171 0 -171 -144q0 -143 171 -143z" />
    <glyph glyph-name="uni0430" unicode="&#x430;" horiz-adv-x="481" 
d="M336 243v10q0 111 -97 111q-76 0 -121 -60l-43 39q59 80 169 80q72 0 117 -43t45 -126v-254h-70l3 62q-47 -70 -137 -70q-69 0 -110.5 32t-41.5 94q0 61 44 93t113 32h129zM336 190h-124q-94 0 -94 -69q0 -72 100 -72q49 0 83.5 24.5t34.5 64.5v52z" />
    <glyph glyph-name="uni0431" unicode="&#x431;" horiz-adv-x="544" 
d="M273 -8q-95 0 -157.5 66t-62.5 174v94q0 143 34 202.5t148 103.5l105 40q36 14 52 27.5t24 35.5l56 -16q-9 -43 -36.5 -66t-82.5 -44l-101 -38q-66 -25 -96 -62t-35 -107l-1 -13l-5 -48q2 3 5.5 8.5t18 20t32 25t47 19.5t63.5 9q87 0 148.5 -63t61.5 -153q0 -91 -63 -153
t-155 -62zM273 52q65 0 106 44t41 111t-41 111t-106 44q-66 0 -107.5 -44t-41.5 -111t41.5 -111t107.5 -44z" />
    <glyph glyph-name="uni0432" unicode="&#x432;" horiz-adv-x="466" 
d="M81 0v414h150q76 0 113 -29t37 -76q0 -59 -54 -87q35 -11 54.5 -40t19.5 -62q0 -53 -37 -86.5t-113 -33.5h-170zM231 355h-80v-110h80q78 0 78 56q0 29 -18.5 41.5t-59.5 12.5zM151 59h100q41 0 59.5 14t18.5 47q0 29 -19.5 47t-58.5 18h-100v-126z" />
    <glyph glyph-name="uni0433" unicode="&#x433;" horiz-adv-x="364" 
d="M81 0v414h258v-59h-188v-355h-70z" />
    <glyph glyph-name="uni0434" unicode="&#x434;" horiz-adv-x="506" 
d="M15 59h24q28 18 39 42t19 77l25 236h285v-355h69v-193h-70v134h-321v-134h-70v193zM166 168q-11 -79 -36 -109h207v296h-151q-12 -128 -20 -187z" />
    <glyph glyph-name="uni0435" unicode="&#x435;" horiz-adv-x="526" 
d="M123 184q7 -61 47 -97t107 -36q81 0 131 55l43 -42q-64 -72 -174 -72q-100 0 -162 61.5t-62 153.5q0 91 61.5 153.5t152.5 62.5q98 0 155 -67.5t53 -171.5h-352zM124 237h281q-5 56 -40 91.5t-98 35.5q-58 0 -96.5 -34.5t-46.5 -92.5z" />
    <glyph glyph-name="uni0436" unicode="&#x436;" horiz-adv-x="652" 
d="M291 0v199l-185 -199h-91l198 211l-190 203h85l149 -164l35 -39q-1 12 -1 42v161h70v-161l-1 -42q24 26 35 39l149 164h85l-190 -203l198 -211h-91l-185 199v-199h-70z" />
    <glyph glyph-name="uni0437" unicode="&#x437;" horiz-adv-x="405" 
d="M202 243q40 0 60.5 17t20.5 47q0 28 -19 43.5t-55 15.5q-56 0 -90 -47l-48 37q47 67 138 67q59 0 98.5 -29.5t39.5 -81.5q0 -35 -20 -61t-52 -34q38 -7 64 -34t26 -68q0 -55 -38 -89t-113 -34q-64 0 -109.5 27t-67.5 69l54 31q42 -70 120 -70q44 0 66.5 18.5t22.5 47.5
q0 32 -23 50.5t-60 18.5h-63v59h48z" />
    <glyph glyph-name="uni0438" unicode="&#x438;" horiz-adv-x="518" 
d="M437 421v-421h-71v234q0 8 1 19.5t1 20.5l1 10l-5 -6q-4 -6 -12 -15.5t-16 -18.5l-245 -251h-10v421h70v-228q0 -12 -0.5 -26t-0.5 -23l-1 -9l5 7q4 7 12 17.5t16 18.5l245 250h10z" />
    <glyph glyph-name="uni0439" unicode="&#x439;" horiz-adv-x="518" 
d="M262 499q-56 0 -89.5 32t-41.5 85l56 9q16 -71 75 -71t75 71l56 -9q-8 -53 -41.5 -85t-89.5 -32zM437 421v-421h-71v234q0 8 1 19.5t1 20.5l1 10l-5 -6q-4 -6 -12 -15.5t-16 -18.5l-245 -251h-10v421h70v-228q0 -12 -0.5 -26t-0.5 -23l-1 -9l5 7q4 7 12 17.5t16 18.5
l245 250h10z" />
    <glyph glyph-name="uni043A" unicode="&#x43a;" horiz-adv-x="447" 
d="M81 0v414h70v-161l-1 -42q24 26 35 39l149 164h85l-190 -203l198 -211h-91l-185 199v-199h-70z" />
    <glyph glyph-name="uni043B" unicode="&#x43b;" horiz-adv-x="488" 
d="M337 0v355h-144q-12 -128 -20 -187q-10 -75 -40 -114t-97 -63l-26 60q47 16 66.5 43t27.5 84l25 236h278v-414h-70z" />
    <glyph glyph-name="uni043C" unicode="&#x43c;" horiz-adv-x="634" 
d="M81 0v415h10l229 -237l223 237h10v-415h-70v218l3 49q-20 -26 -32 -39l-130 -136h-11l-135 138l-30 37q3 -31 3 -46v-221h-70z" />
    <glyph glyph-name="uni043D" unicode="&#x43d;" horiz-adv-x="505" 
d="M354 0v180h-203v-180h-70v414h70v-175h203v175h70v-414h-70z" />
    <glyph glyph-name="uni043E" unicode="&#x43e;" horiz-adv-x="544" 
d="M273 -8q-93 0 -156.5 62t-63.5 153t63.5 153.5t156.5 62.5q92 0 155 -62.5t63 -153.5t-63 -153t-155 -62zM273 52q65 0 106 44t41 111t-41 111t-106 44q-66 0 -107.5 -44t-41.5 -111t41.5 -111t107.5 -44z" />
    <glyph glyph-name="uni043F" unicode="&#x43f;" horiz-adv-x="495" 
d="M344 0v355h-193v-355h-70v414h333v-414h-70z" />
    <glyph glyph-name="uni0440" unicode="&#x440;" horiz-adv-x="561" 
d="M80 -212v626h69l-2 -89q50 98 161 98q85 0 142.5 -61.5t57.5 -153.5q0 -93 -58 -154.5t-143 -61.5q-54 0 -95.5 26t-62.5 68v-298h-69zM293 53q65 0 104 43.5t39 111.5q0 67 -39 110t-104 43q-66 0 -106.5 -43t-40.5 -110q0 -68 40.5 -111.5t106.5 -43.5z" />
    <glyph glyph-name="uni0441" unicode="&#x441;" horiz-adv-x="477" 
d="M268 -8q-91 0 -153 62t-62 153t62 153.5t153 62.5q102 0 163 -74l-50 -41q-40 53 -113 53q-65 0 -104 -43.5t-39 -110.5t39 -110.5t104 -43.5q74 0 119 54l48 -41q-61 -74 -167 -74z" />
    <glyph glyph-name="uni0442" unicode="&#x442;" horiz-adv-x="385" 
d="M158 0v355h-133v59h335v-59h-132v-355h-70z" />
    <glyph glyph-name="uni0443" unicode="&#x443;" horiz-adv-x="472" 
d="M100 -212l106 247l-176 379h77l117 -257q5 -12 9.5 -29.5t6.5 -29.5l3 -11q7 44 19 70l108 257h72l-270 -626h-72z" />
    <glyph glyph-name="uni0444" unicode="&#x444;" horiz-adv-x="628" 
d="M349 -8v-204h-70v204q-102 0 -164 59t-62 154t62 153.5t164 58.5v205h70v-205q102 0 164 -58.5t62 -153.5t-62 -154t-164 -59zM505 205q0 73 -41 114t-115 41v-311q74 0 115 41.5t41 114.5zM279 49v311q-74 0 -115 -41t-41 -114t41 -114.5t115 -41.5z" />
    <glyph glyph-name="uni0445" unicode="&#x445;" horiz-adv-x="480" 
d="M36 0l164 220l-142 194h83l78 -108q8 -11 24 -43q0 1 2.5 8t7.5 17.5t10 17.5l79 108h77l-140 -189l165 -225h-84l-98 136q-14 21 -26 45l-4 -8l-9.5 -19t-10.5 -18l-99 -136h-77z" />
    <glyph glyph-name="uni0446" unicode="&#x446;" horiz-adv-x="513" 
d="M81 0v414h70v-355h193v355h70v-355h69v-193h-70v134h-332z" />
    <glyph glyph-name="uni0447" unicode="&#x447;" horiz-adv-x="477" 
d="M326 0v161q-52 -13 -98 -13q-168 0 -168 168v98h70v-98q0 -56 23.5 -81t73.5 -25q55 0 99 11v193h70v-414h-70z" />
    <glyph glyph-name="uni0448" unicode="&#x448;" horiz-adv-x="708" 
d="M81 0v414h70v-355h168v355h70v-355h168v355h70v-414h-546z" />
    <glyph glyph-name="uni0449" unicode="&#x449;" horiz-adv-x="730" 
d="M81 0v414h70v-355h168v355h70v-355h168v355h70v-355h69v-193h-70v134h-545z" />
    <glyph glyph-name="uni044A" unicode="&#x44a;" horiz-adv-x="503" 
d="M203 414v-147h95q76 0 113 -37t37 -95q0 -59 -37 -97t-113 -38h-165v355h-118v59h188zM203 59h95q78 0 78 76q0 33 -19.5 52.5t-58.5 19.5h-95v-148z" />
    <glyph glyph-name="uni044B" unicode="&#x44b;" horiz-adv-x="604" 
d="M151 414v-147h95q76 0 113 -37t37 -95q0 -59 -37 -97t-113 -38h-165v414h70zM453 0v414h70v-414h-70zM151 59h95q78 0 78 76q0 33 -19.5 52.5t-58.5 19.5h-95v-148z" />
    <glyph glyph-name="uni044C" unicode="&#x44c;" horiz-adv-x="451" 
d="M151 414v-147h95q76 0 113 -37t37 -95q0 -59 -37 -97t-113 -38h-165v414h70zM151 59h95q78 0 78 76q0 33 -19.5 52.5t-58.5 19.5h-95v-148z" />
    <glyph glyph-name="uni044D" unicode="&#x44d;" horiz-adv-x="477" 
d="M209 -8q-106 0 -167 74l48 41q45 -54 119 -54q57 0 95 35t46 92h-213v59h212q-8 54 -45.5 88t-94.5 34q-73 0 -113 -53l-50 41q61 74 163 74q91 0 153 -62.5t62 -153.5t-62 -153t-153 -62z" />
    <glyph glyph-name="uni044E" unicode="&#x44e;" horiz-adv-x="719" 
d="M448 -8q-86 0 -147.5 53.5t-71.5 134.5h-78v-180h-70v414h70v-175h79q11 79 72.5 131.5t145.5 52.5q92 0 155 -62.5t63 -153.5t-63 -153t-155 -62zM448 52q65 0 106 44t41 111t-41 111t-106 44q-66 0 -107.5 -44t-41.5 -111t41.5 -111t107.5 -44z" />
    <glyph glyph-name="uni044F" unicode="&#x44f;" horiz-adv-x="471" 
d="M320 0v147h-87l-95 -147h-83l103 157q-83 29 -83 122q0 59 37 97t113 38h165v-414h-70zM320 355h-95q-78 0 -78 -76q0 -33 19.5 -52.5t58.5 -19.5h95v148z" />
    <glyph glyph-name="uni0450" unicode="&#x450;" horiz-adv-x="526" 
d="M236 498l-93 193h80l68 -193h-55zM123 184q7 -61 47 -97t107 -36q81 0 131 55l43 -42q-64 -72 -174 -72q-100 0 -162 61.5t-62 153.5q0 91 61.5 153.5t152.5 62.5q98 0 155 -67.5t53 -171.5h-352zM124 237h281q-5 56 -40 91.5t-98 35.5q-58 0 -96.5 -34.5t-46.5 -92.5z
" />
    <glyph glyph-name="uni0451" unicode="&#x451;" horiz-adv-x="526" 
d="M349 537q-18 0 -32 13.5t-14 32.5t14 32.5t32 13.5t32 -13.5t14 -32.5t-14 -32.5t-32 -13.5zM179 537q-18 0 -32 13.5t-14 32.5t14 32.5t32 13.5t32 -13.5t14 -32.5t-14 -32.5t-32 -13.5zM123 184q7 -61 47 -97t107 -36q81 0 131 55l43 -42q-64 -72 -174 -72
q-100 0 -162 61.5t-62 153.5q0 91 61.5 153.5t152.5 62.5q98 0 155 -67.5t53 -171.5h-352zM124 237h281q-5 56 -40 91.5t-98 35.5q-58 0 -96.5 -34.5t-46.5 -92.5z" />
    <glyph glyph-name="uni0452" unicode="&#x452;" horiz-adv-x="500" 
d="M2 528v58h77v136h70v-136h143v-58h-143v-124q36 10 80 10q206 0 206 -251q0 -100 -29 -186t-81 -135l-54 43q45 44 69.5 117.5t24.5 160.5q0 190 -140 190q-35 0 -76 -9v-344h-70v528h-77z" />
    <glyph glyph-name="uni0453" unicode="&#x453;" horiz-adv-x="364" 
d="M186 498l68 193h80l-93 -193h-55zM81 0v414h258v-59h-188v-355h-70z" />
    <glyph glyph-name="uni0454" unicode="&#x454;" horiz-adv-x="477" 
d="M268 -8q-91 0 -153 62t-62 153t62 153.5t153 62.5q102 0 163 -74l-50 -41q-40 53 -113 53q-57 0 -94.5 -33.5t-46.5 -88.5h213v-59h-214q8 -57 46 -92t96 -35q74 0 119 54l48 -41q-61 -74 -167 -74z" />
    <glyph glyph-name="uni0455" unicode="&#x455;" horiz-adv-x="420" 
d="M218 -8q-64 0 -109.5 27t-67.5 69l54 31q42 -70 120 -70q42 0 65 16.5t23 45.5q0 31 -22.5 44.5t-85.5 31.5q-60 17 -92.5 43.5t-32.5 79.5q0 52 38.5 82.5t97.5 30.5q91 0 138 -67l-48 -37q-34 47 -90 47q-33 0 -52.5 -14.5t-19.5 -38.5q0 -28 20 -41t78 -30
q64 -17 100.5 -45t36.5 -82q0 -55 -38 -89t-113 -34z" />
    <glyph glyph-name="uni0456" unicode="&#x456;" horiz-adv-x="232" 
d="M116 534q-20 0 -35 14t-15 35t15 35.5t35 14.5t35 -14.5t15 -35.5t-15 -35t-35 -14zM81 0v414h70v-414h-70z" />
    <glyph glyph-name="uni0457" unicode="&#x457;" horiz-adv-x="218" 
d="M196 537q-18 0 -32 13.5t-14 32.5t14 32.5t32 13.5t32 -13.5t14 -32.5t-14 -32.5t-32 -13.5zM36 537q-18 0 -32 13.5t-14 32.5t14 32.5t32 13.5t32 -13.5t14 -32.5t-14 -32.5t-32 -13.5zM81 0v414h70v-414h-70z" />
    <glyph glyph-name="uni0458" unicode="&#x458;" horiz-adv-x="232" 
d="M116 534q-20 0 -35 14t-15 35t15 35.5t35 14.5t35 -14.5t15 -35.5t-15 -35t-35 -14zM40 -222q-55 0 -92 41l39 42q25 -23 48 -23q46 0 46 63v513h70v-512q0 -60 -30 -92t-81 -32z" />
    <glyph glyph-name="uni0459" unicode="&#x459;" horiz-adv-x="707" 
d="M129 414h278v-147h95q76 0 113 -37t37 -95q0 -59 -37 -97t-113 -38h-165v355h-144q-12 -128 -20 -187q-10 -75 -40 -114t-97 -63l-26 60q47 16 66.5 43t27.5 84zM407 59h95q78 0 78 76q0 33 -19.5 52.5t-58.5 19.5h-95v-148z" />
    <glyph glyph-name="uni045A" unicode="&#x45a;" horiz-adv-x="724" 
d="M424 414v-147h95q76 0 113 -37t37 -95q0 -59 -37 -97t-113 -38h-165v180h-203v-180h-70v414h70v-175h203v175h70zM424 59h95q78 0 78 76q0 33 -19.5 52.5t-58.5 19.5h-95v-148z" />
    <glyph glyph-name="uni045B" unicode="&#x45b;" horiz-adv-x="526" 
d="M2 528v58h77v136h70v-136h143v-58h-143v-195q20 42 58.5 66t88.5 24q70 0 112.5 -45.5t42.5 -125.5v-252h-70v244q0 115 -103 115q-58 0 -93.5 -35t-35.5 -96v-228h-70v528h-77z" />
    <glyph glyph-name="uni045C" unicode="&#x45c;" horiz-adv-x="447" 
d="M194 498l68 193h80l-93 -193h-55zM81 0v414h70v-161l-1 -42q24 26 35 39l149 164h85l-190 -203l198 -211h-91l-185 199v-199h-70z" />
    <glyph glyph-name="uni045D" unicode="&#x45d;" horiz-adv-x="518" 
d="M247 498l-93 193h80l68 -193h-55zM437 421v-421h-71v234q0 8 1 19.5t1 20.5l1 10l-5 -6q-4 -6 -12 -15.5t-16 -18.5l-245 -251h-10v421h70v-228q0 -12 -0.5 -26t-0.5 -23l-1 -9l5 7q4 7 12 17.5t16 18.5l245 250h10z" />
    <glyph glyph-name="uni045E" unicode="&#x45e;" horiz-adv-x="472" 
d="M240 499q-56 0 -89.5 32t-41.5 85l56 9q16 -71 75 -71t75 71l56 -9q-8 -53 -41.5 -85t-89.5 -32zM100 -212l106 247l-176 379h77l117 -257q4 -10 19 -69q7 43 19 69l108 257h72l-270 -626h-72z" />
    <glyph glyph-name="uni045F" unicode="&#x45f;" horiz-adv-x="494" 
d="M81 0v414h70v-355h193v355h70v-414h-131v-134h-70v134h-132z" />
    <glyph glyph-name="uni0462" unicode="&#x462;" horiz-adv-x="654" 
d="M5 509v65h163v106h72v-106h163v-65h-163v-97h127q113 0 177.5 -52.5t64.5 -153.5q0 -103 -64.5 -154.5t-177.5 -51.5h-199v509h-163zM363 348h-123v-284h123q172 0 172 142t-172 142z" />
    <glyph glyph-name="uni0463" unicode="&#x463;" horiz-adv-x="451" 
d="M151 586v-172h161v-59h-161v-88h95q76 0 113 -37t37 -95q0 -59 -37 -97t-113 -38h-165v355h-61v59h61v172h70zM151 59h95q78 0 78 76q0 33 -19.5 52.5t-58.5 19.5h-95v-148z" />
    <glyph glyph-name="uni0472" unicode="&#x472;" horiz-adv-x="817" 
d="M408 -8q-147 0 -248 98t-101 250t101 250t248 98q148 0 249 -98t101 -250t-101 -250t-249 -98zM408 623q-111 0 -187 -72t-86 -183h546q-9 111 -85.5 183t-187.5 72zM408 57q109 0 184.5 69t88.5 177h-545q12 -108 87.5 -177t184.5 -69z" />
    <glyph glyph-name="uni0473" unicode="&#x473;" horiz-adv-x="544" 
d="M273 -8q-93 0 -156.5 62t-63.5 153t63.5 153.5t156.5 62.5q92 0 155 -62.5t63 -153.5t-63 -153t-155 -62zM273 362q-58 0 -97.5 -34t-48.5 -89h290q-9 55 -48 89t-96 34zM273 52q59 0 98 35.5t47 92.5h-292q8 -57 48 -92.5t99 -35.5z" />
    <glyph glyph-name="uni0474" unicode="&#x474;" horiz-adv-x="693" 
d="M365 219l150 372q40 97 131 97q80 0 112 -72l-56 -25q-18 35 -59 35q-44 0 -65 -54l-237 -579h-12l-287 687h78l187 -461q10 -25 29 -91q9 43 29 91z" />
    <glyph glyph-name="uni0475" unicode="&#x475;" horiz-adv-x="531" 
d="M262 175l70 154q22 48 48 71.5t68 23.5q65 0 98 -69l-51 -27q-17 39 -44 39q-29 0 -48 -39l-159 -336h-13l-201 422h77l110 -239q12 -27 23 -71q12 49 22 71z" />
    <glyph glyph-name="uni048A" unicode="&#x48a;" horiz-adv-x="735" 
d="M362 749q-56 0 -89.5 32t-41.5 85l56 9q16 -71 75 -71t75 71l56 -9q-8 -53 -41.5 -85t-89.5 -32zM516 473l-406 -480h-12v687h67v-460q0 -13 -1.5 -31.5t-2.5 -32.5l-1 -13q7 14 47 63l406 481h12v-622h85l-61 -199h-70l45 134h-67v459q0 12 1.5 30t2.5 31t2 14
q-1 -1 -9 -12t-19.5 -25.5t-18.5 -23.5z" />
    <glyph glyph-name="uni048B" unicode="&#x48b;" horiz-adv-x="531" 
d="M252 499q-56 0 -89.5 32t-41.5 85l56 9q16 -71 75 -71t75 71l56 -9q-8 -53 -41.5 -85t-89.5 -32zM437 421v-362h74l-60 -193h-70l41 134h-56v234q0 8 1 19.5t1 20.5l1 10l-5 -6q-4 -6 -12 -15.5t-16 -18.5l-245 -251h-10v421h70v-228q0 -12 -0.5 -26t-0.5 -23l-1 -9l5 7
q4 7 12 17.5t16 18.5l245 250h10z" />
    <glyph glyph-name="uni048C" unicode="&#x48c;" horiz-adv-x="594" 
d="M5 509v65h103v106h72v-106h173v-65h-173v-97h127q113 0 177.5 -52.5t64.5 -153.5q0 -103 -64.5 -154.5t-177.5 -51.5h-199v509h-103zM303 348h-123v-284h123q172 0 172 142t-172 142z" />
    <glyph glyph-name="uni048D" unicode="&#x48d;" horiz-adv-x="451" 
d="M151 586v-172h161v-59h-161v-88h95q76 0 113 -37t37 -95q0 -59 -37 -97t-113 -38h-165v355h-61v59h61v172h70zM151 59h95q78 0 78 76q0 33 -19.5 52.5t-58.5 19.5h-95v-148z" />
    <glyph glyph-name="uni048E" unicode="&#x48e;" horiz-adv-x="586" 
d="M98 0v680h199q112 0 177 -54t65 -157q0 -133 -109 -184l57 -88l-62 -39l-67 105q-32 -5 -61 -5h-127v-258h-72zM170 322h123q18 0 26 1l-58 92l62 38l71 -112q71 35 71 128q0 147 -172 147h-123v-294z" />
    <glyph glyph-name="uni048F" unicode="&#x48f;" horiz-adv-x="561" 
d="M80 -212v626h69l-2 -89q50 98 161 98q85 0 142.5 -61.5t57.5 -153.5q0 -56 -22.5 -103t-62.5 -76l42 -65l-61 -38l-46 73q-22 -7 -51 -7q-54 0 -95.5 26t-62.5 68v-298h-69zM293 53q10 0 28 2l-63 100l61 37l67 -106q50 44 50 122q0 67 -39 110t-104 43q-66 0 -106.5 -43
t-40.5 -110q0 -68 40.5 -111.5t106.5 -43.5z" />
    <glyph glyph-name="uni0490" unicode="&#x490;" horiz-adv-x="482" 
d="M98 0v680h287v136h72v-200h-287v-616h-72z" />
    <glyph glyph-name="uni0491" unicode="&#x491;" horiz-adv-x="364" 
d="M81 0v414h188v145h70v-204h-188v-355h-70z" />
    <glyph glyph-name="uni0492" unicode="&#x492;" horiz-adv-x="482" 
d="M10 298v65h88v317h359v-64h-287v-253h152v-65h-152v-298h-72v298h-88z" />
    <glyph glyph-name="uni0493" unicode="&#x493;" horiz-adv-x="373" 
d="M81 414h258v-59h-188v-116h126v-59h-126v-180h-70v180h-66v59h66v175z" />
    <glyph glyph-name="uni0494" unicode="&#x494;" horiz-adv-x="553" 
d="M384 -37l-47 40q99 94 99 216q0 76 -43 117.5t-122 41.5q-25 0 -50 -3t-38 -5l-13 -3v-367h-72v680h359v-64h-287v-193q41 15 109 15q108 0 168.5 -59.5t60.5 -159.5q0 -155 -124 -256z" />
    <glyph glyph-name="uni0495" unicode="&#x495;" horiz-adv-x="465" 
d="M81 0v414h258v-59h-188v-114q35 10 75 10q91 0 137.5 -49.5t46.5 -129.5q0 -78 -29 -143t-78 -101l-46 43q83 70 83 201q0 57 -29 88t-85 31q-38 0 -75 -10v-181h-70z" />
    <glyph glyph-name="uni0496" unicode="&#x496;" horiz-adv-x="946" 
d="M428 414v266h71v-266l-2 -55q23 29 61 68l245 253h94l-326 -336l276 -279h74v-199h-70v134h-35l-317 313v-313h-71v313l-319 -313h-94l342 343l-327 337h94l245 -253l61 -68q-2 24 -2 55z" />
    <glyph glyph-name="uni0497" unicode="&#x497;" horiz-adv-x="665" 
d="M292 0v199l-185 -199h-91l198 211l-190 203h85l149 -164l35 -39q-1 12 -1 42v161h70v-161l-1 -42q24 26 35 39l149 164h85l-190 -203l142 -152h68v-193h-70v134h-33l-185 199v-199h-70z" />
    <glyph glyph-name="uni0498" unicode="&#x498;" horiz-adv-x="530" 
d="M255 389q56 0 86.5 33.5t30.5 85.5q0 51 -28.5 83.5t-80.5 32.5q-80 0 -126 -74l-58 36q61 102 184 102q84 0 131 -49t47 -125q0 -116 -96 -153q64 -12 97 -57t33 -111q0 -79 -48 -136.5t-137 -63.5v-127h-70v129q-133 18 -190 135l60 32q28 -49 68.5 -77.5t106.5 -28.5
q68 0 102.5 40t34.5 104q0 57 -37.5 91.5t-110.5 34.5h-51v63h52z" />
    <glyph glyph-name="uni0499" unicode="&#x499;" horiz-adv-x="405" 
d="M202 243q40 0 60.5 17t20.5 47q0 28 -19 43.5t-55 15.5q-56 0 -90 -47l-48 37q47 67 138 67q59 0 98.5 -29.5t39.5 -81.5q0 -35 -20 -61t-52 -34q38 -7 64 -34t26 -68q0 -49 -29.5 -81.5t-87.5 -39.5v-128h-70v129q-100 13 -141 93l54 31q42 -70 120 -70q44 0 66.5 18.5
t22.5 47.5q0 32 -23 50.5t-60 18.5h-63v59h48z" />
    <glyph glyph-name="uni049A" unicode="&#x49a;" horiz-adv-x="627" 
d="M180 680v-266l-2 -55q23 29 61 68l245 253h93l-329 -336l279 -279h75v-199h-70v134h-35l-317 313v-313h-72v680h72z" />
    <glyph glyph-name="uni049B" unicode="&#x49b;" horiz-adv-x="448" 
d="M81 0v414h70v-161l-1 -42q24 26 35 39l149 164h85l-190 -203l142 -152h62v-193h-70v134h-27l-185 199v-199h-70z" />
    <glyph glyph-name="uni049C" unicode="&#x49c;" horiz-adv-x="653" 
d="M274 509v-95l-2 -55q20 29 55 68l224 253h87l-302 -336l294 -344h-88l-268 313v-150h-67v346h67zM170 680v-680h-72v680h72z" />
    <glyph glyph-name="uni049D" unicode="&#x49d;" horiz-adv-x="478" 
d="M177 80v254h60v-81l-2 -42q19 28 37 54l104 149h78l-142 -201l146 -213h-81l-140 199v-119h-60zM81 0v414h70v-414h-70z" />
    <glyph glyph-name="uni049E" unicode="&#x49e;" horiz-adv-x="607" 
d="M180 680v-94h107v-65h-107v-107l-2 -55q23 29 61 68l245 253h93l-329 -336l344 -344h-95l-317 313v-313h-72v521h-93v65h93v94h72z" />
    <glyph glyph-name="uni049F" unicode="&#x49f;" horiz-adv-x="447" 
d="M15 500v60h66v162h70v-162h143v-60h-143v-247l-1 -42q24 26 35 39l149 164h85l-190 -203l198 -211h-91l-185 199v-199h-70v500h-66z" />
    <glyph glyph-name="uni04A0" unicode="&#x4a0;" horiz-adv-x="760" 
d="M20 616v64h313v-266l-2 -55q23 29 61 68l245 253h93l-329 -336l344 -344h-95l-317 313v-313h-72v616h-241z" />
    <glyph glyph-name="uni04A1" unicode="&#x4a1;" horiz-adv-x="522" 
d="M25 355v59h201v-161l-1 -42q24 26 35 39l149 164h85l-190 -203l198 -211h-91l-185 199v-199h-70v355h-131z" />
    <glyph glyph-name="uni04A2" unicode="&#x4a2;" horiz-adv-x="711" 
d="M98 0v680h72v-317h364v317h72v-615h70v-199h-70v134h-72v298h-364v-298h-72z" />
    <glyph glyph-name="uni04A3" unicode="&#x4a3;" horiz-adv-x="523" 
d="M354 0v180h-203v-180h-70v414h70v-175h203v175h70v-355h69v-193h-70v134h-69z" />
    <glyph glyph-name="uni04A4" unicode="&#x4a4;" horiz-adv-x="887" 
d="M98 0v680h72v-317h364v317h328v-64h-256v-616h-72v298h-364v-298h-72z" />
    <glyph glyph-name="uni04A5" unicode="&#x4a5;" horiz-adv-x="614" 
d="M81 0v414h70v-175h203v175h235v-59h-165v-355h-70v180h-203v-180h-70z" />
    <glyph glyph-name="uni04A6" unicode="&#x4a6;" horiz-adv-x="701" 
d="M596 -134v134h-72v615h-354v-615h-72v680h498v-615h70v-199h-70z" />
    <glyph glyph-name="uni04A7" unicode="&#x4a7;" horiz-adv-x="513" 
d="M81 0v414h333v-355h69v-193h-70v134h-69v355h-193v-355h-70z" />
    <glyph glyph-name="uni04A8" unicode="&#x4a8;" horiz-adv-x="886" 
d="M723 57q28 0 50.5 4.5t30.5 8.5l9 5l23 -61q-35 -22 -114 -22q-82 0 -148 29q-79 -29 -165 -29q-111 0 -192 50.5t-119 128t-38 170.5q0 132 71 229.5t205 127.5l19 -59q-219 -61 -219 -298q0 -123 77.5 -203.5t195.5 -80.5q48 0 88 10q-71 55 -109.5 141.5t-38.5 182.5
q0 122 66.5 200t177.5 78q105 0 176.5 -73.5t71.5 -198.5q0 -107 -48.5 -193.5t-132.5 -139.5q28 -7 63 -7zM766 401q0 88 -51.5 145.5t-122.5 57.5q-76 0 -122.5 -61t-46.5 -152q0 -84 41 -167t115 -128q86 44 136.5 126.5t50.5 178.5z" />
    <glyph glyph-name="uni04A9" unicode="&#x4a9;" horiz-adv-x="586" 
d="M243 217q0 82 39 132t106 50q62 0 103.5 -44.5t41.5 -118.5q0 -54 -26 -104.5t-69 -78.5q10 -1 17 -1q17 0 33.5 5t24.5 10l8 5l30 -49q-43 -31 -105 -31q-50 0 -81 20q-35 -20 -99 -20q-94 0 -153.5 63t-59.5 155q0 74 45 133t130 76l14 -54q-56 -15 -87 -55.5
t-31 -99.5q0 -73 41 -115.5t114 -42.5l29 2q-65 56 -65 163zM463 236q0 47 -21.5 75t-52.5 28q-75 0 -75 -118q0 -43 15.5 -83t44.5 -65q40 29 64.5 71.5t24.5 91.5z" />
    <glyph glyph-name="uni04AA" unicode="&#x4aa;" horiz-adv-x="736" 
d="M439 -134h-70v128q-134 14 -222 109.5t-88 236.5q0 152 101 250t248 98q182 0 270 -132l-55 -40q-72 107 -215 107q-119 0 -196.5 -80.5t-77.5 -202.5t77.5 -202.5t196.5 -80.5q145 0 224 114l56 -39q-86 -127 -249 -139v-127z" />
    <glyph glyph-name="uni04AB" unicode="&#x4ab;" horiz-adv-x="477" 
d="M235 -134v129q-80 11 -131 70.5t-51 141.5q0 91 62 153.5t153 62.5q102 0 163 -74l-50 -41q-40 53 -113 53q-65 0 -104 -43.5t-39 -110.5t39 -110.5t104 -43.5q74 0 119 54l48 -41q-52 -61 -130 -71v-129h-70z" />
    <glyph glyph-name="uni04AC" unicode="&#x4ac;" horiz-adv-x="530" 
d="M229 0v616h-209v64h490v-64h-209v-551h70v-199h-70v134h-72z" />
    <glyph glyph-name="uni04AD" unicode="&#x4ad;" horiz-adv-x="385" 
d="M25 414h335v-59h-132v-296h69v-193h-70v134h-69v355h-133v59z" />
    <glyph glyph-name="uni04AE" unicode="&#x4ae;" horiz-adv-x="592" 
d="M262 0v250l-237 430h82l164 -301q6 -11 13 -27.5t11.5 -28.5t4.5 -13q7 28 29 69l163 301h75l-231 -428v-193h87v-193h-70v134h-91z" />
    <glyph glyph-name="uni04AF" unicode="&#x4af;" horiz-adv-x="472" 
d="M203 -212v263l-173 363h77l110 -239q12 -27 23 -71q13 53 22 71l108 239h72l-169 -360v-266h-70z" />
    <glyph glyph-name="uni04B0" unicode="&#x4b0;" horiz-adv-x="592" 
d="M142 227v65h97l-214 388h82l164 -301q6 -11 13 -27.5t11.5 -28.5t4.5 -13q7 28 29 69l163 301h75l-210 -388h99v-65h-120v-227h-74v227h-120z" />
    <glyph glyph-name="uni04B1" unicode="&#x4b1;" horiz-adv-x="472" 
d="M93 0v59h106l-169 355h77l110 -239q12 -27 23 -71q13 53 22 71l108 239h72l-167 -355h108v-59h-110v-212h-70v212h-110z" />
    <glyph glyph-name="uni04B2" unicode="&#x4b2;" horiz-adv-x="649" 
d="M48 0l233 370l-196 310h82l135 -212q4 -8 9 -18.5t9 -19t4 -9.5q0 1 3 9t8 19t10 19l134 212h79l-195 -310l193 -305h68v-199h-70v134h-38l-173 272q-19 30 -23 47l-4 -8q-3 -8 -8 -20t-9 -19l-172 -272h-79z" />
    <glyph glyph-name="uni04B3" unicode="&#x4b3;" horiz-adv-x="473" 
d="M36 0l164 220l-142 194h83l78 -108q8 -11 24 -43q0 1 2.5 8t7.5 17.5t10 17.5l79 108h77l-140 -189l121 -166h58v-193h-70v134h-28l-98 136q-14 21 -26 45l-4 -8l-9.5 -19t-10.5 -18l-99 -136h-77z" />
    <glyph glyph-name="uni04B4" unicode="&#x4b4;" horiz-adv-x="793" 
d="M190 0v616h-170v64h423v-64h-181v-551h354v615h72v-615h70v-199h-70v134h-498z" />
    <glyph glyph-name="uni04B5" unicode="&#x4b5;" horiz-adv-x="575" 
d="M143 0v355h-113v59h295v-59h-112v-296h193v355h70v-355h69v-193h-70v134h-332z" />
    <glyph glyph-name="uni04B6" unicode="&#x4b6;" horiz-adv-x="640" 
d="M463 0v283l-11 -2q-10 -2 -24 -4t-32.5 -4.5t-42 -4t-45.5 -1.5q-124 0 -181 64t-57 193v156h72v-156q0 -91 37.5 -141t128.5 -50q75 0 155 16v331h73v-615h69v-199h-70v134h-72z" />
    <glyph glyph-name="uni04B7" unicode="&#x4b7;" horiz-adv-x="486" 
d="M121 414v-98q0 -56 23.5 -81t73.5 -25q55 0 99 11v193h70v-355h69v-193h-70v134h-69v161q-52 -13 -98 -13q-168 0 -168 168v98h70z" />
    <glyph glyph-name="uni04B8" unicode="&#x4b8;" horiz-adv-x="633" 
d="M462 0v283q-79 -13 -117 -15v-115h-70v115q-108 8 -157 71.5t-49 184.5v156h72v-156q0 -174 134 -189v107h70v-108q64 3 117 15v331h73v-680h-73z" />
    <glyph glyph-name="uni04B9" unicode="&#x4b9;" horiz-adv-x="466" 
d="M317 0v161q-41 -9 -61 -11v-65h-70v65q-135 14 -135 166v98h70v-98q0 -90 65 -103v71h70v-73q28 3 61 10v193h70v-414h-70z" />
    <glyph glyph-name="uni04BA" unicode="&#x4ba;" horiz-adv-x="634" 
d="M171 680v-284q59 17 155 17q124 0 181 -64t57 -193v-156h-72v156q0 91 -37.5 141t-128.5 50q-78 0 -155 -17v-330h-73v680h73z" />
    <glyph glyph-name="uni04BB" unicode="&#x4bb;" horiz-adv-x="526" 
d="M79 0v722h70v-389q20 42 58.5 66t88.5 24q70 0 112.5 -45.5t42.5 -125.5v-252h-70v244q0 115 -103 115q-58 0 -93.5 -35t-35.5 -96v-228h-70z" />
    <glyph glyph-name="uni04BC" unicode="&#x4bc;" horiz-adv-x="849" 
d="M476 -8q-145 0 -246 96.5t-103 245.5q-51 1 -82 23t-37 52t5 61.5t38 52.5l47 -47q-26 -20 -18 -48t51 -28q20 128 117 208t228 80q152 0 242 -102t85 -251h-601q2 -120 79 -199t195 -79q145 0 224 114l56 -39q-46 -67 -118 -103.5t-162 -36.5zM476 623
q-103 0 -176.5 -62t-92.5 -161h518q-15 101 -82.5 162t-166.5 61z" />
    <glyph glyph-name="uni04BD" unicode="&#x4bd;" horiz-adv-x="574" 
d="M171 184q7 -61 47 -97t107 -36q81 0 131 55l43 -42q-64 -72 -174 -72q-94 0 -154.5 54t-68.5 138q-54 1 -81.5 34.5t-21.5 74t36 65.5l38 -39q-14 -11 -16.5 -30t9.5 -35t37 -17q11 80 70 133t142 53q98 0 155 -67.5t53 -171.5h-352zM172 237h281q-5 56 -40 91.5
t-98 35.5q-58 0 -96.5 -34.5t-46.5 -92.5z" />
    <glyph glyph-name="uni04BE" unicode="&#x4be;" horiz-adv-x="849" 
d="M51 523l47 -47q-26 -20 -18 -48t51 -28q20 128 117 208t228 80q152 0 242 -102t85 -251h-601q2 -120 79 -199t195 -79q145 0 224 114l56 -39q-87 -126 -246 -138v-128h-70v128q-133 12 -222 106.5t-91 233.5q-51 1 -82 23t-37 52t5 61.5t38 52.5zM476 623
q-103 0 -176.5 -62t-92.5 -161h518q-15 101 -82.5 162t-166.5 61z" />
    <glyph glyph-name="uni04BF" unicode="&#x4bf;" horiz-adv-x="574" 
d="M286 -134v129q-78 11 -127.5 62.5t-56.5 126.5q-54 1 -81.5 34.5t-21.5 74t36 65.5l38 -39q-14 -11 -16.5 -30t9.5 -35t37 -17q11 80 70 133t142 53q98 0 155 -67.5t53 -171.5h-352q7 -61 47 -97t107 -36q81 0 131 55l43 -42q-55 -62 -143 -70v-128h-70zM172 237h281
q-5 56 -40 91.5t-98 35.5q-58 0 -96.5 -34.5t-46.5 -92.5z" />
    <glyph glyph-name="uni04C0" unicode="&#x4c0;" horiz-adv-x="275" 
d="M101 0v680h73v-680h-73z" />
    <glyph glyph-name="uni04C1" unicode="&#x4c1;" horiz-adv-x="927" 
d="M462 757q-56 0 -89.5 32t-41.5 85l56 9q16 -71 75 -71t75 71l56 -9q-8 -53 -41.5 -85t-89.5 -32zM428 414v266h71v-266l-2 -55q23 29 61 68l245 253h94l-326 -336l341 -344h-96l-317 313v-313h-71v313l-319 -313h-94l342 343l-327 337h94l245 -253l61 -68q-2 24 -2 55z
" />
    <glyph glyph-name="uni04C2" unicode="&#x4c2;" horiz-adv-x="652" 
d="M325 499q-56 0 -89.5 32t-41.5 85l56 9q16 -71 75 -71t75 71l56 -9q-8 -53 -41.5 -85t-89.5 -32zM291 0v199l-185 -199h-91l198 211l-190 203h85l149 -164l35 -39q-1 12 -1 42v161h70v-161l-1 -42q24 26 35 39l149 164h85l-190 -203l198 -211h-91l-185 199v-199h-70z" />
    <glyph glyph-name="uni04C3" unicode="&#x4c3;" horiz-adv-x="597" 
d="M170 680v-266l-2 -55q23 29 61 68l245 253h93l-308 -314q13 1 41 1q113 0 176.5 -66t63.5 -169q0 -155 -124 -256l-47 40q99 94 99 216q0 79 -45.5 127t-130.5 48q-31 0 -61.5 -2.5t-45.5 -5.5l-15 -3v-296h-72v680h72z" />
    <glyph glyph-name="uni04C4" unicode="&#x4c4;" horiz-adv-x="474" 
d="M303 -172l-46 43q83 70 83 194q0 53 -32.5 83t-98.5 30q-23 0 -58 -10v-168h-70v414h70v-161l-1 -42q24 26 35 39l149 164h85l-172 -184q80 -5 121.5 -50.5t41.5 -114.5q0 -77 -28.5 -138.5t-78.5 -98.5z" />
    <glyph glyph-name="uni04C5" unicode="&#x4c5;" horiz-adv-x="675" 
d="M519 -134l45 134h-67v616h-257l-36 -362q-11 -115 -48 -176.5t-123 -85.5l-23 60q64 24 89 65.5t34 133.5l43 429h393v-615h81l-61 -199h-70z" />
    <glyph glyph-name="uni04C6" unicode="&#x4c6;" horiz-adv-x="502" 
d="M337 0v355h-144q-12 -128 -20 -187q-10 -75 -40 -114t-97 -63l-26 60q47 16 66.5 43t27.5 84l25 236h278v-355h75l-60 -193h-70l41 134h-56z" />
    <glyph glyph-name="uni04C7" unicode="&#x4c7;" horiz-adv-x="704" 
d="M98 0v680h72v-317h364v317h72v-778q0 -60 -30 -92t-81 -32q-55 0 -92 41l39 47q25 -23 48 -23q44 0 44 57v398h-364v-298h-72z" />
    <glyph glyph-name="uni04C8" unicode="&#x4c8;" horiz-adv-x="505" 
d="M313 -222q-55 0 -92 41l39 42q25 -23 48 -23q46 0 46 63v279h-203v-180h-70v414h70v-175h203v175h70v-512q0 -60 -30 -92t-81 -32z" />
    <glyph glyph-name="uni04C9" unicode="&#x4c9;" horiz-adv-x="712" 
d="M98 0v680h72v-317h364v317h72v-615h81l-61 -199h-70l45 134h-67v298h-364v-298h-72z" />
    <glyph glyph-name="uni04CA" unicode="&#x4ca;" horiz-adv-x="519" 
d="M354 0v180h-203v-180h-70v414h70v-175h203v175h70v-355h75l-60 -193h-70l41 134h-56z" />
    <glyph glyph-name="uni04CB" unicode="&#x4cb;" horiz-adv-x="634" 
d="M464 0v-134h-70v199h69v218l-11 -2q-10 -2 -24 -4t-32.5 -4.5t-42 -4t-45.5 -1.5q-124 0 -181 64t-57 193v156h72v-156q0 -91 37.5 -141t128.5 -50q75 0 155 16v331h73v-680h-72z" />
    <glyph glyph-name="uni04CC" unicode="&#x4cc;" horiz-adv-x="466" 
d="M121 414v-98q0 -56 23.5 -81t73.5 -25q55 0 99 11v193h70v-414h-69v-134h-70v193h69v102q-52 -13 -98 -13q-168 0 -168 168v98h70z" />
    <glyph glyph-name="uni04CD" unicode="&#x4cd;" horiz-adv-x="857" 
d="M98 0v688h10l316 -395l314 395h11v-623h83l-61 -199h-70l45 134h-67v449q0 13 0.5 32t1.5 32l1 13q-1 -1 -8.5 -12.5t-19 -29t-20.5 -28.5l-206 -260h-12l-203 260q-24 28 -49 69l1 -13q1 -13 2 -31.5t1 -31.5v-449h-70z" />
    <glyph glyph-name="uni04CE" unicode="&#x4ce;" horiz-adv-x="648" 
d="M81 0v415h10l229 -237l223 237h10v-356h75l-60 -193h-70l41 134h-56v218l3 49q-20 -26 -32 -39l-130 -136h-11l-135 138l-30 37q3 -31 3 -46v-221h-70z" />
    <glyph glyph-name="uni04CF" unicode="&#x4cf;" horiz-adv-x="275" 
d="M101 0v680h73v-680h-73z" />
    <glyph glyph-name="uni04D0" unicode="&#x4d0;" horiz-adv-x="664" 
d="M329 757q-56 0 -89.5 32t-41.5 85l56 9q16 -71 75 -71t75 71l56 -9q-8 -53 -41.5 -85t-89.5 -32zM41 0l282 687h12l288 -687h-76l-62 153h-312l-61 -153h-71zM198 215h262l-105 260q-6 14 -12.5 34t-10 33t-3.5 14l-4 -14q-4 -13 -10.5 -32.5t-12.5 -33.5z" />
    <glyph glyph-name="uni04D1" unicode="&#x4d1;" horiz-adv-x="481" 
d="M237 499q-56 0 -89.5 32t-41.5 85l56 9q16 -71 75 -71t75 71l56 -9q-8 -53 -41.5 -85t-89.5 -32zM336 243v10q0 111 -97 111q-76 0 -121 -60l-43 39q59 80 169 80q72 0 117 -43t45 -126v-254h-70l3 62q-47 -70 -137 -70q-69 0 -110.5 32t-41.5 94q0 61 44 93t113 32h129z
M336 190h-124q-94 0 -94 -69q0 -72 100 -72q49 0 83.5 24.5t34.5 64.5v52z" />
    <glyph glyph-name="uni04D2" unicode="&#x4d2;" horiz-adv-x="664" 
d="M414 755q-18 0 -32 13.5t-14 32.5t14 32.5t32 13.5t32 -13.5t14 -32.5t-14 -32.5t-32 -13.5zM244 755q-18 0 -32 13.5t-14 32.5t14 32.5t32 13.5t32 -13.5t14 -32.5t-14 -32.5t-32 -13.5zM41 0l282 687h12l288 -687h-76l-62 153h-312l-61 -153h-71zM198 215h262l-105 260
q-6 14 -12.5 34t-10 33t-3.5 14l-4 -14q-4 -13 -10.5 -32.5t-12.5 -33.5z" />
    <glyph glyph-name="uni04D3" unicode="&#x4d3;" horiz-adv-x="481" 
d="M322 537q-18 0 -32 13.5t-14 32.5t14 32.5t32 13.5t32 -13.5t14 -32.5t-14 -32.5t-32 -13.5zM152 537q-18 0 -32 13.5t-14 32.5t14 32.5t32 13.5t32 -13.5t14 -32.5t-14 -32.5t-32 -13.5zM336 243v10q0 111 -97 111q-76 0 -121 -60l-43 39q59 80 169 80q72 0 117 -43
t45 -126v-254h-70l3 62q-47 -70 -137 -70q-69 0 -110.5 32t-41.5 94q0 61 44 93t113 32h129zM336 190h-124q-94 0 -94 -69q0 -72 100 -72q49 0 83.5 24.5t34.5 64.5v52z" />
    <glyph glyph-name="uni04D4" unicode="&#x4d4;" horiz-adv-x="931" 
d="M0 0l454 680h399v-64h-341v-243h304v-63h-304v-246h355v-64h-428v140h-270l-91 -140h-78zM212 202h227v284q0 10 0.5 22t1.5 22.5t2.5 19t2.5 14.5v6q-27 -54 -41 -75z" />
    <glyph glyph-name="uni04D5" unicode="&#x4d5;" horiz-adv-x="809" 
d="M336 240v12q0 112 -97 112q-76 0 -121 -60l-43 39q59 80 169 80q104 0 137 -94q27 42 71 68t97 26q98 0 155 -66.5t54 -168.5h-353q6 -61 46.5 -99t107.5 -38q81 0 132 55l42 -42q-64 -72 -173 -72q-126 0 -182 97q-16 -47 -62.5 -72t-104.5 -25q-73 0 -117 31.5
t-44 93.5q0 61 44 92t113 31h129zM407 240h280q-5 53 -40 88.5t-97 35.5q-57 0 -95.5 -34.5t-47.5 -89.5zM336 188h-124q-94 0 -94 -68q0 -71 100 -71q49 0 83.5 24.5t34.5 64.5v50z" />
    <glyph glyph-name="uni04D6" unicode="&#x4d6;" horiz-adv-x="590" 
d="M321 754q-56 0 -89.5 32t-41.5 85l56 9q16 -71 75 -71t75 71l56 -9q-8 -53 -41.5 -85t-89.5 -32zM98 0v680h414v-64h-342v-243h305v-63h-305v-246h356v-64h-428z" />
    <glyph glyph-name="uni04D7" unicode="&#x4d7;" horiz-adv-x="526" 
d="M265 504q-56 0 -89.5 32t-41.5 85l56 9q16 -71 75 -71t75 71l56 -9q-8 -53 -41.5 -85t-89.5 -32zM123 184q7 -61 47 -97t107 -36q81 0 131 55l43 -42q-64 -72 -174 -72q-100 0 -162 61.5t-62 153.5q0 91 61.5 153.5t152.5 62.5q98 0 155 -67.5t53 -171.5h-352zM124 237
h281q-5 56 -40 91.5t-98 35.5q-58 0 -96.5 -34.5t-46.5 -92.5z" />
    <glyph glyph-name="uni04D8" unicode="&#x4d8;" horiz-adv-x="781" 
d="M373 689q147 0 248 -98t101 -250t-101 -250t-248 -98q-152 0 -242 102t-85 251h601q-2 120 -79.5 199t-194.5 79q-145 0 -224 -114l-56 39q46 67 118 103.5t162 36.5zM373 58q103 0 176.5 62t91.5 161h-518q15 -102 83 -162.5t167 -60.5z" />
    <glyph glyph-name="uni04D9" unicode="&#x4d9;" horiz-adv-x="526" 
d="M403 230q-7 61 -47 97t-107 36q-81 0 -131 -55l-43 42q64 72 174 72q100 0 162 -61.5t62 -153.5q0 -91 -61.5 -153.5t-152.5 -62.5q-98 0 -155 67.5t-53 171.5h352zM402 177h-281q5 -56 40 -91.5t98 -35.5q58 0 96.5 34.5t46.5 92.5z" />
    <glyph glyph-name="uni04DA" unicode="&#x4da;" horiz-adv-x="781" 
d="M471 755q-18 0 -32 13.5t-14 32.5t14 32.5t32 13.5t32 -13.5t14 -32.5t-14 -32.5t-32 -13.5zM301 755q-18 0 -32 13.5t-14 32.5t14 32.5t32 13.5t32 -13.5t14 -32.5t-14 -32.5t-32 -13.5zM373 689q147 0 248 -98t101 -250t-101 -250t-248 -98q-152 0 -242 102t-85 251
h601q-2 120 -79.5 199t-194.5 79q-145 0 -224 -114l-56 39q46 67 118 103.5t162 36.5zM373 58q103 0 176.5 62t91.5 161h-518q15 -102 83 -162.5t167 -60.5z" />
    <glyph glyph-name="uni04DB" unicode="&#x4db;" horiz-adv-x="526" 
d="M332 537q-18 0 -32 13.5t-14 32.5t14 32.5t32 13.5t32 -13.5t14 -32.5t-14 -32.5t-32 -13.5zM162 537q-18 0 -32 13.5t-14 32.5t14 32.5t32 13.5t32 -13.5t14 -32.5t-14 -32.5t-32 -13.5zM403 230q-7 61 -47 97t-107 36q-81 0 -131 -55l-43 42q64 72 174 72
q100 0 162 -61.5t62 -153.5q0 -91 -61.5 -153.5t-152.5 -62.5q-98 0 -155 67.5t-53 171.5h352zM402 177h-281q5 -56 40 -91.5t98 -35.5q58 0 96.5 34.5t46.5 92.5z" />
    <glyph glyph-name="uni04DC" unicode="&#x4dc;" horiz-adv-x="927" 
d="M547 755q-18 0 -32 13.5t-14 32.5t14 32.5t32 13.5t32 -13.5t14 -32.5t-14 -32.5t-32 -13.5zM377 755q-18 0 -32 13.5t-14 32.5t14 32.5t32 13.5t32 -13.5t14 -32.5t-14 -32.5t-32 -13.5zM428 414v266h71v-266l-2 -55q23 29 61 68l245 253h94l-326 -336l341 -344h-96
l-317 313v-313h-71v313l-319 -313h-94l342 343l-327 337h94l245 -253l61 -68q-2 24 -2 55z" />
    <glyph glyph-name="uni04DD" unicode="&#x4dd;" horiz-adv-x="652" 
d="M411 537q-18 0 -32 13.5t-14 32.5t14 32.5t32 13.5t32 -13.5t14 -32.5t-14 -32.5t-32 -13.5zM241 537q-18 0 -32 13.5t-14 32.5t14 32.5t32 13.5t32 -13.5t14 -32.5t-14 -32.5t-32 -13.5zM291 0v199l-185 -199h-91l198 211l-190 203h85l149 -164l35 -39q-1 12 -1 42v161
h70v-161l-1 -42q24 26 35 39l149 164h85l-190 -203l198 -211h-91l-185 199v-199h-70z" />
    <glyph glyph-name="uni04DE" unicode="&#x4de;" horiz-adv-x="530" 
d="M348 755q-18 0 -32 13.5t-14 32.5t14 32.5t32 13.5t32 -13.5t14 -32.5t-14 -32.5t-32 -13.5zM178 755q-18 0 -32 13.5t-14 32.5t14 32.5t32 13.5t32 -13.5t14 -32.5t-14 -32.5t-32 -13.5zM255 389q56 0 86.5 33.5t30.5 85.5q0 51 -28.5 83.5t-80.5 32.5q-80 0 -126 -74
l-58 36q61 102 184 102q84 0 131 -49t47 -125q0 -116 -96 -153q64 -12 97 -57t33 -111q0 -84 -54 -142.5t-154 -58.5q-168 0 -237 138l60 32q28 -49 68.5 -77.5t106.5 -28.5q68 0 102.5 40t34.5 104q0 57 -37.5 91.5t-110.5 34.5h-51v63h52z" />
    <glyph glyph-name="uni04DF" unicode="&#x4df;" horiz-adv-x="405" 
d="M293 537q-18 0 -32 13.5t-14 32.5t14 32.5t32 13.5t32 -13.5t14 -32.5t-14 -32.5t-32 -13.5zM123 537q-18 0 -32 13.5t-14 32.5t14 32.5t32 13.5t32 -13.5t14 -32.5t-14 -32.5t-32 -13.5zM202 243q40 0 60.5 17t20.5 47q0 28 -19 43.5t-55 15.5q-56 0 -90 -47l-48 37
q47 67 138 67q59 0 98.5 -29.5t39.5 -81.5q0 -35 -20 -61t-52 -34q38 -7 64 -34t26 -68q0 -55 -38 -89t-113 -34q-64 0 -109.5 27t-67.5 69l54 31q42 -70 120 -70q44 0 66.5 18.5t22.5 47.5q0 32 -23 50.5t-60 18.5h-63v59h48z" />
    <glyph glyph-name="uni04E0" unicode="&#x4e0;" horiz-adv-x="517" 
d="M399 206q0 80 -59.5 126.5t-177.5 27.5l-10 16l171 240h-251v64h379v-4l-188 -253q99 -5 154 -64t55 -153t-57 -154t-165 -60q-81 0 -137 39t-86 99l60 32q60 -106 164 -106q75 0 111.5 42t36.5 108z" />
    <glyph glyph-name="uni04E1" unicode="&#x4e1;" horiz-adv-x="435" 
d="M124 105l-8 11l149 239h-199v59h306v-4l-162 -255q84 -7 129.5 -57t45.5 -129q0 -82 -52.5 -137t-146.5 -55q-64 0 -115.5 32.5t-72.5 86.5l56 28q36 -87 132 -87q61 0 96 39t35 97q0 57 -36 96t-100 39z" />
    <glyph glyph-name="uni04E2" unicode="&#x4e2;" horiz-adv-x="723" 
d="M237 788v55h230v-55h-230zM516 473l-406 -480h-12v687h67v-460q0 -13 -1.5 -31.5t-2.5 -32.5l-1 -13q7 14 47 63l406 481h12v-687h-68v459q0 12 1.5 30t2.5 31t2 14q-1 -1 -9 -12t-19.5 -25.5t-18.5 -23.5z" />
    <glyph glyph-name="uni04E3" unicode="&#x4e3;" horiz-adv-x="518" 
d="M142 539v55h230v-55h-230zM437 421v-421h-71v234q0 8 1 19.5t1 20.5l1 10l-5 -6q-4 -6 -12 -15.5t-16 -18.5l-245 -251h-10v421h70v-228q0 -12 -0.5 -26t-0.5 -23l-1 -9l5 7q4 7 12 17.5t16 18.5l245 250h10z" />
    <glyph glyph-name="uni04E4" unicode="&#x4e4;" horiz-adv-x="723" 
d="M452 755q-18 0 -32 13.5t-14 32.5t14 32.5t32 13.5t32 -13.5t14 -32.5t-14 -32.5t-32 -13.5zM282 755q-18 0 -32 13.5t-14 32.5t14 32.5t32 13.5t32 -13.5t14 -32.5t-14 -32.5t-32 -13.5zM516 473l-406 -480h-12v687h67v-460q0 -13 -1.5 -31.5t-2.5 -32.5l-1 -13
q7 14 47 63l406 481h12v-687h-68v459q0 12 1.5 30t2.5 31t2 14q-1 -1 -9 -12t-19.5 -25.5t-18.5 -23.5z" />
    <glyph glyph-name="uni04E5" unicode="&#x4e5;" horiz-adv-x="518" 
d="M347 537q-18 0 -32 13.5t-14 32.5t14 32.5t32 13.5t32 -13.5t14 -32.5t-14 -32.5t-32 -13.5zM177 537q-18 0 -32 13.5t-14 32.5t14 32.5t32 13.5t32 -13.5t14 -32.5t-14 -32.5t-32 -13.5zM437 421v-421h-71v234q0 8 1 19.5t1 20.5l1 10l-5 -6q-4 -6 -12 -15.5t-16 -18.5
l-245 -251h-10v421h70v-228q0 -12 -0.5 -26t-0.5 -23l-1 -9l5 7q4 7 12 17.5t16 18.5l245 250h10z" />
    <glyph glyph-name="uni04E6" unicode="&#x4e6;" horiz-adv-x="817" 
d="M495 755q-18 0 -32 13.5t-14 32.5t14 32.5t32 13.5t32 -13.5t14 -32.5t-14 -32.5t-32 -13.5zM325 755q-18 0 -32 13.5t-14 32.5t14 32.5t32 13.5t32 -13.5t14 -32.5t-14 -32.5t-32 -13.5zM408 -8q-147 0 -248 98t-101 250t101 250t248 98q148 0 249 -98t101 -250
t-101 -250t-249 -98zM408 57q119 0 197 80.5t78 202.5t-78 202.5t-197 80.5q-118 0 -196 -80.5t-78 -202.5t78 -202.5t196 -80.5z" />
    <glyph glyph-name="uni04E7" unicode="&#x4e7;" horiz-adv-x="544" 
d="M358 537q-18 0 -32 13.5t-14 32.5t14 32.5t32 13.5t32 -13.5t14 -32.5t-14 -32.5t-32 -13.5zM188 537q-18 0 -32 13.5t-14 32.5t14 32.5t32 13.5t32 -13.5t14 -32.5t-14 -32.5t-32 -13.5zM273 -8q-93 0 -156.5 62t-63.5 153t63.5 153.5t156.5 62.5q92 0 155 -62.5
t63 -153.5t-63 -153t-155 -62zM273 52q65 0 106 44t41 111t-41 111t-106 44q-66 0 -107.5 -44t-41.5 -111t41.5 -111t107.5 -44z" />
    <glyph glyph-name="uni04E8" unicode="&#x4e8;" horiz-adv-x="817" 
d="M408 -8q-147 0 -248 98t-101 250t101 250t248 98q148 0 249 -98t101 -250t-101 -250t-249 -98zM408 623q-111 0 -187 -72t-86 -183h546q-9 111 -85.5 183t-187.5 72zM408 57q109 0 184.5 69t88.5 177h-545q12 -108 87.5 -177t184.5 -69z" />
    <glyph glyph-name="uni04E9" unicode="&#x4e9;" horiz-adv-x="544" 
d="M273 -8q-93 0 -156.5 62t-63.5 153t63.5 153.5t156.5 62.5q92 0 155 -62.5t63 -153.5t-63 -153t-155 -62zM273 362q-58 0 -97.5 -34t-48.5 -89h290q-9 55 -48 89t-96 34zM273 52q59 0 98 35.5t47 92.5h-292q8 -57 48 -92.5t99 -35.5z" />
    <glyph glyph-name="uni04EA" unicode="&#x4ea;" horiz-adv-x="817" 
d="M495 755q-18 0 -32 13.5t-14 32.5t14 32.5t32 13.5t32 -13.5t14 -32.5t-14 -32.5t-32 -13.5zM325 755q-18 0 -32 13.5t-14 32.5t14 32.5t32 13.5t32 -13.5t14 -32.5t-14 -32.5t-32 -13.5zM408 -8q-147 0 -248 98t-101 250t101 250t248 98q148 0 249 -98t101 -250
t-101 -250t-249 -98zM408 623q-111 0 -187 -72t-86 -183h546q-9 111 -85.5 183t-187.5 72zM408 57q109 0 184.5 69t88.5 177h-545q12 -108 87.5 -177t184.5 -69z" />
    <glyph glyph-name="uni04EB" unicode="&#x4eb;" horiz-adv-x="544" 
d="M358 537q-18 0 -32 13.5t-14 32.5t14 32.5t32 13.5t32 -13.5t14 -32.5t-14 -32.5t-32 -13.5zM188 537q-18 0 -32 13.5t-14 32.5t14 32.5t32 13.5t32 -13.5t14 -32.5t-14 -32.5t-32 -13.5zM273 -8q-93 0 -156.5 62t-63.5 153t63.5 153.5t156.5 62.5q92 0 155 -62.5
t63 -153.5t-63 -153t-155 -62zM273 362q-58 0 -97.5 -34t-48.5 -89h290q-9 55 -48 89t-96 34zM273 52q59 0 98 35.5t47 92.5h-292q8 -57 48 -92.5t99 -35.5z" />
    <glyph glyph-name="uni04EC" unicode="&#x4ec;" horiz-adv-x="736" 
d="M422 755q-18 0 -32 13.5t-14 32.5t14 32.5t32 13.5t32 -13.5t14 -32.5t-14 -32.5t-32 -13.5zM252 755q-18 0 -32 13.5t-14 32.5t14 32.5t32 13.5t32 -13.5t14 -32.5t-14 -32.5t-32 -13.5zM273 305v65h327q-10 110 -85.5 181.5t-186.5 71.5q-143 0 -215 -107l-55 40
q88 132 270 132q147 0 248 -98t101 -250t-101 -250t-248 -98q-90 0 -162 36.5t-118 103.5l56 39q79 -114 224 -114q109 0 184.5 69.5t87.5 178.5h-327z" />
    <glyph glyph-name="uni04ED" unicode="&#x4ed;" horiz-adv-x="477" 
d="M301 537q-18 0 -32 13.5t-14 32.5t14 32.5t32 13.5t32 -13.5t14 -32.5t-14 -32.5t-32 -13.5zM131 537q-18 0 -32 13.5t-14 32.5t14 32.5t32 13.5t32 -13.5t14 -32.5t-14 -32.5t-32 -13.5zM209 -8q-106 0 -167 74l48 41q45 -54 119 -54q57 0 95 35t46 92h-213v59h212
q-8 54 -45.5 88t-94.5 34q-73 0 -113 -53l-50 41q61 74 163 74q91 0 153 -62.5t62 -153.5t-62 -153t-153 -62z" />
    <glyph glyph-name="uni04EE" unicode="&#x4ee;" horiz-adv-x="616" 
d="M187 788v55h230v-55h-230zM97 680l184 -358q23 -48 27 -63q0 13 28 66l184 355h79l-352 -680h-79l98 190l-251 490h82z" />
    <glyph glyph-name="uni04EF" unicode="&#x4ef;" horiz-adv-x="472" 
d="M115 539v55h230v-55h-230zM100 -212l106 247l-176 379h77l117 -257q5 -12 9.5 -29.5t6.5 -29.5l3 -11q7 44 19 70l108 257h72l-270 -626h-72z" />
    <glyph glyph-name="uni04F0" unicode="&#x4f0;" horiz-adv-x="616" 
d="M392 755q-18 0 -32 13.5t-14 32.5t14 32.5t32 13.5t32 -13.5t14 -32.5t-14 -32.5t-32 -13.5zM222 755q-18 0 -32 13.5t-14 32.5t14 32.5t32 13.5t32 -13.5t14 -32.5t-14 -32.5t-32 -13.5zM97 680l184 -358q23 -48 27 -63q0 13 28 66l184 355h79l-352 -680h-79l98 190
l-251 490h82z" />
    <glyph glyph-name="uni04F1" unicode="&#x4f1;" horiz-adv-x="472" 
d="M323 537q-18 0 -32 13.5t-14 32.5t14 32.5t32 13.5t32 -13.5t14 -32.5t-14 -32.5t-32 -13.5zM153 537q-18 0 -32 13.5t-14 32.5t14 32.5t32 13.5t32 -13.5t14 -32.5t-14 -32.5t-32 -13.5zM100 -212l106 247l-176 379h77l117 -257q4 -10 19 -69q7 43 19 69l108 257h72
l-270 -626h-72z" />
    <glyph glyph-name="uni04F2" unicode="&#x4f2;" horiz-adv-x="616" 
d="M337 763l68 193h76l-89 -193h-55zM199 763l67 193h76l-88 -193h-55zM97 680l184 -358q22 -47 27 -62q6 23 28 65l184 355h79l-352 -680h-79l98 190l-251 490h82z" />
    <glyph glyph-name="uni04F3" unicode="&#x4f3;" horiz-adv-x="472" 
d="M271 505l68 193h76l-89 -193h-55zM133 505l67 193h76l-88 -193h-55zM100 -212l106 247l-176 379h77l117 -257q4 -10 19 -69q7 43 19 69l108 257h72l-270 -626h-72z" />
    <glyph glyph-name="uni04F4" unicode="&#x4f4;" horiz-adv-x="634" 
d="M394 755q-18 0 -32 13.5t-14 32.5t14 32.5t32 13.5t32 -13.5t14 -32.5t-14 -32.5t-32 -13.5zM224 755q-18 0 -32 13.5t-14 32.5t14 32.5t32 13.5t32 -13.5t14 -32.5t-14 -32.5t-32 -13.5zM463 0v283l-11 -2q-10 -2 -24 -4t-32.5 -4.5t-42 -4t-45.5 -1.5q-124 0 -181 64
t-57 193v156h72v-156q0 -91 37.5 -141t128.5 -50q75 0 155 16v331h73v-680h-73z" />
    <glyph glyph-name="uni04F5" unicode="&#x4f5;" horiz-adv-x="477" 
d="M319 537q-18 0 -32 13.5t-14 32.5t14 32.5t32 13.5t32 -13.5t14 -32.5t-14 -32.5t-32 -13.5zM149 537q-18 0 -32 13.5t-14 32.5t14 32.5t32 13.5t32 -13.5t14 -32.5t-14 -32.5t-32 -13.5zM326 0v161q-52 -13 -98 -13q-168 0 -168 168v98h70v-98q0 -56 23.5 -81t73.5 -25
q55 0 99 11v193h70v-414h-70z" />
    <glyph glyph-name="uni04F6" unicode="&#x4f6;" horiz-adv-x="482" 
d="M170 -134v134h-72v680h359v-64h-287v-551h70v-199h-70z" />
    <glyph glyph-name="uni04F7" unicode="&#x4f7;" horiz-adv-x="368" 
d="M81 414h258v-59h-188v-296h69v-193h-70v134h-69v414z" />
    <glyph glyph-name="uni04F8" unicode="&#x4f8;" horiz-adv-x="802" 
d="M480 755q-18 0 -32 13.5t-14 32.5t14 32.5t32 13.5t32 -13.5t14 -32.5t-14 -32.5t-32 -13.5zM310 755q-18 0 -32 13.5t-14 32.5t14 32.5t32 13.5t32 -13.5t14 -32.5t-14 -32.5t-32 -13.5zM98 0v680h72v-268h127q113 0 177.5 -52.5t64.5 -153.5q0 -103 -64.5 -154.5
t-177.5 -51.5h-199zM631 0v680h73v-680h-73zM293 348h-123v-284h123q172 0 172 142t-172 142z" />
    <glyph glyph-name="uni04F9" unicode="&#x4f9;" horiz-adv-x="604" 
d="M386 537q-18 0 -32 13.5t-14 32.5t14 32.5t32 13.5t32 -13.5t14 -32.5t-14 -32.5t-32 -13.5zM216 537q-18 0 -32 13.5t-14 32.5t14 32.5t32 13.5t32 -13.5t14 -32.5t-14 -32.5t-32 -13.5zM151 414v-147h95q76 0 113 -37t37 -95q0 -59 -37 -97t-113 -38h-165v414h70z
M453 0v414h70v-414h-70zM151 59h95q78 0 78 76q0 33 -19.5 52.5t-58.5 19.5h-95v-148z" />
    <glyph glyph-name="uni1E9E" unicode="&#x1e9e;" horiz-adv-x="702" 
d="M453 -6q-109 0 -184 98l58 46q47 -80 126 -80q53 0 84.5 32.5t31.5 79.5q0 51 -29 80t-95 60l-54 25q-67 31 -67 90q0 42 43 78l130 110h-216q-61 0 -89 -28.5t-28 -93.5v-491h-74v493q0 91 50.5 139t132.5 48h332v-61l-181 -160q-15 -13 -15 -29q0 -21 22 -32l68 -34
q144 -71 144 -192q0 -80 -55 -129t-135 -49z" />
    <glyph glyph-name="uni1F00" unicode="&#x1f00;" horiz-adv-x="580" 
d="M252 615q-16 0 -27 9.5t-11 26.5q0 18 12.5 28t30.5 10q33 0 54.5 -25t21.5 -64q0 -73 -90 -102l-12 35q54 18 54 57q0 17 -15 32q-10 -7 -18 -7zM508 -3q-43 0 -68 24.5t-25 63.5v6q-21 -45 -65 -72t-98 -27q-85 0 -142 61.5t-57 154.5q0 92 57 153.5t141 61.5
q56 0 98 -26.5t65 -71.5l-2 89h70v-301q0 -57 43 -57h18v-57q-10 -2 -35 -2zM268 54q66 0 106.5 43t40.5 111q0 67 -40.5 110t-106.5 43q-64 0 -103 -42.5t-39 -110.5t38.5 -111t103.5 -43z" />
    <glyph glyph-name="uni1F01" unicode="&#x1f01;" horiz-adv-x="580" 
d="M280 614q-8 0 -18 7q-15 -15 -15 -32q0 -39 54 -57l-12 -35q-90 29 -90 102q0 39 21.5 64t54.5 25q18 0 30.5 -10t12.5 -28q0 -17 -11 -26.5t-27 -9.5zM508 -3q-43 0 -68 24.5t-25 63.5v6q-21 -45 -65 -72t-98 -27q-85 0 -142 61.5t-57 154.5q0 92 57 153.5t141 61.5
q56 0 98 -26.5t65 -71.5l-2 89h70v-301q0 -57 43 -57h18v-57q-10 -2 -35 -2zM268 54q66 0 106.5 43t40.5 111q0 67 -40.5 110t-106.5 43q-64 0 -103 -42.5t-39 -110.5t38.5 -111t103.5 -43z" />
    <glyph glyph-name="uni1F02" unicode="&#x1f02;" horiz-adv-x="580" 
d="M168 613q-16 0 -27 9.5t-11 26.5q0 18 12.5 28t30.5 10q33 0 54.5 -25t21.5 -64q0 -73 -90 -102l-12 35q54 18 54 57q0 17 -15 32q-10 -7 -18 -7zM407 502h-55l-90 182h81zM508 -3q-43 0 -68 24.5t-25 63.5v6q-21 -45 -65 -72t-98 -27q-85 0 -142 61.5t-57 154.5
q0 92 57 153.5t141 61.5q56 0 98 -26.5t65 -71.5l-2 89h70v-301q0 -57 43 -57h18v-57q-10 -2 -35 -2zM268 54q66 0 106.5 43t40.5 111q0 67 -40.5 110t-106.5 43q-64 0 -103 -42.5t-39 -110.5t38.5 -111t103.5 -43z" />
    <glyph glyph-name="uni1F03" unicode="&#x1f03;" horiz-adv-x="580" 
d="M203 613q-8 0 -18 7q-15 -15 -15 -32q0 -39 54 -57l-12 -35q-90 29 -90 102q0 39 21.5 64t54.5 25q18 0 30.5 -10t12.5 -28q0 -17 -11 -26.5t-27 -9.5zM408 502h-55l-90 182h81zM508 -3q-43 0 -68 24.5t-25 63.5v6q-21 -45 -65 -72t-98 -27q-85 0 -142 61.5t-57 154.5
q0 92 57 153.5t141 61.5q56 0 98 -26.5t65 -71.5l-2 89h70v-301q0 -57 43 -57h18v-57q-10 -2 -35 -2zM268 54q66 0 106.5 43t40.5 111q0 67 -40.5 110t-106.5 43q-64 0 -103 -42.5t-39 -110.5t38.5 -111t103.5 -43z" />
    <glyph glyph-name="uni1F04" unicode="&#x1f04;" horiz-adv-x="580" 
d="M217 613q-16 0 -27 9.5t-11 26.5q0 18 12.5 28t30.5 10q33 0 54.5 -25t21.5 -64q0 -73 -90 -102l-12 35q54 18 54 57q0 17 -15 32q-11 -7 -18 -7zM375 684h81l-90 -182h-55zM508 -3q-43 0 -68 24.5t-25 63.5v6q-21 -45 -65 -72t-98 -27q-85 0 -142 61.5t-57 154.5
q0 92 57 153.5t141 61.5q56 0 98 -26.5t65 -71.5l-2 89h70v-301q0 -57 43 -57h18v-57q-10 -2 -35 -2zM268 54q66 0 106.5 43t40.5 111q0 67 -40.5 110t-106.5 43q-64 0 -103 -42.5t-39 -110.5t38.5 -111t103.5 -43z" />
    <glyph glyph-name="uni1F05" unicode="&#x1f05;" horiz-adv-x="580" 
d="M245 614q-8 0 -18 7q-15 -15 -15 -32q0 -39 54 -57l-12 -35q-90 29 -90 102q0 39 21.5 64t54.5 25q18 0 30.5 -10t12.5 -28q0 -17 -11 -26.5t-27 -9.5zM358 685h81l-90 -182h-55zM508 -3q-43 0 -68 24.5t-25 63.5v6q-21 -45 -65 -72t-98 -27q-85 0 -142 61.5t-57 154.5
q0 92 57 153.5t141 61.5q56 0 98 -26.5t65 -71.5l-2 89h70v-301q0 -57 43 -57h18v-57q-10 -2 -35 -2zM268 54q66 0 106.5 43t40.5 111q0 67 -40.5 110t-106.5 43q-64 0 -103 -42.5t-39 -110.5t38.5 -111t103.5 -43z" />
    <glyph glyph-name="uni1F06" unicode="&#x1f06;" horiz-adv-x="580" 
d="M321 765q25 0 42 26l32 -25q-26 -47 -75 -47q-20 0 -49 11q-31 11 -49 11q-27 0 -42 -26l-34 25q27 48 77 48q17 0 48 -11q34 -12 50 -12zM254 615q-16 0 -27 9.5t-11 26.5q0 18 12.5 28t30.5 10q33 0 54.5 -25t21.5 -64q0 -73 -90 -102l-12 35q54 18 54 57q0 17 -15 32
q-10 -7 -18 -7zM508 -3q-43 0 -68 24.5t-25 63.5v6q-21 -45 -65 -72t-98 -27q-85 0 -142 61.5t-57 154.5q0 92 57 153.5t141 61.5q56 0 98 -26.5t65 -71.5l-2 89h70v-301q0 -57 43 -57h18v-57q-10 -2 -35 -2zM268 54q66 0 106.5 43t40.5 111q0 67 -40.5 110t-106.5 43
q-64 0 -103 -42.5t-39 -110.5t38.5 -111t103.5 -43z" />
    <glyph glyph-name="uni1F07" unicode="&#x1f07;" horiz-adv-x="580" 
d="M320 764q25 0 42 26l32 -25q-26 -47 -75 -47q-20 0 -49 11q-31 11 -49 11q-27 0 -42 -26l-34 25q27 48 77 48q17 0 48 -11q34 -12 50 -12zM291 614q-7 0 -18 7q-15 -15 -15 -32q0 -39 54 -57l-12 -35q-90 29 -90 102q0 39 21.5 64t54.5 25q18 0 30.5 -10t12.5 -28
q0 -17 -11 -26.5t-27 -9.5zM508 -3q-43 0 -68 24.5t-25 63.5v6q-21 -45 -65 -72t-98 -27q-85 0 -142 61.5t-57 154.5q0 92 57 153.5t141 61.5q56 0 98 -26.5t65 -71.5l-2 89h70v-301q0 -57 43 -57h18v-57q-10 -2 -35 -2zM268 54q66 0 106.5 43t40.5 111q0 67 -40.5 110
t-106.5 43q-64 0 -103 -42.5t-39 -110.5t38.5 -111t103.5 -43z" />
    <glyph glyph-name="uni1F08" unicode="&#x1f08;" horiz-adv-x="666" 
d="M42 0l282 687h12l288 -687h-76l-62 153h-312l-61 -153h-71zM78 606q-16 0 -27 9.5t-11 26.5q0 18 12.5 28t30.5 10q33 0 54.5 -25t21.5 -64q0 -73 -90 -102l-12 35q54 18 54 57q0 17 -15 32q-10 -7 -18 -7zM199 215h262l-105 260q-6 14 -12.5 34t-10 33t-3.5 14l-4 -14
q-4 -13 -10.5 -32.5t-12.5 -33.5z" />
    <glyph glyph-name="uni1F09" unicode="&#x1f09;" horiz-adv-x="666" 
d="M42 0l282 687h12l288 -687h-76l-62 153h-312l-61 -153h-71zM121 606q-8 0 -18 7q-15 -15 -15 -32q0 -39 54 -57l-12 -35q-90 29 -90 102q0 39 21.5 64t54.5 25q18 0 30.5 -10t12.5 -28q0 -17 -11 -26.5t-27 -9.5zM199 215h262l-105 260q-6 14 -12.5 34t-10 33t-3.5 14
l-4 -14q-4 -13 -10.5 -32.5t-12.5 -33.5z" />
    <glyph glyph-name="uni1F0A" unicode="&#x1f0a;" horiz-adv-x="666" 
d="M42 0l282 687h12l288 -687h-76l-62 153h-312l-61 -153h-71zM-89 606q-16 0 -27 9.5t-11 26.5q0 18 12.5 28t30.5 10q33 0 54.5 -25t21.5 -64q0 -73 -90 -102l-12 35q54 18 54 57q0 17 -15 32q-11 -7 -18 -7zM150 495h-55l-90 182h81zM199 215h262l-105 260
q-6 14 -12.5 34t-10 33t-3.5 14l-4 -14q-4 -13 -10.5 -32.5t-12.5 -33.5z" />
    <glyph glyph-name="uni1F0B" unicode="&#x1f0b;" horiz-adv-x="666" 
d="M42 0l282 687h12l288 -687h-76l-62 153h-312l-61 -153h-71zM-53 606q-7 0 -18 7q-15 -15 -15 -32q0 -39 54 -57l-12 -35q-90 29 -90 102q0 39 21.5 64t54.5 25q18 0 30.5 -10t12.5 -28q0 -17 -11 -26.5t-27 -9.5zM152 495h-55l-90 182h81zM199 215h262l-105 260
q-6 14 -12.5 34t-10 33t-3.5 14l-4 -14q-4 -13 -10.5 -32.5t-12.5 -33.5z" />
    <glyph glyph-name="uni1F0C" unicode="&#x1f0c;" horiz-adv-x="666" 
d="M42 0l282 687h12l288 -687h-76l-62 153h-312l-61 -153h-71zM-42 606q-16 0 -27 9.5t-11 26.5q0 18 12.5 28t30.5 10q33 0 54.5 -25t21.5 -64q0 -73 -90 -102l-12 35q54 18 54 57q0 17 -15 32q-10 -7 -18 -7zM116 677h81l-90 -182h-55zM199 215h262l-105 260
q-6 14 -12.5 34t-10 33t-3.5 14l-4 -14q-4 -13 -10.5 -32.5t-12.5 -33.5z" />
    <glyph glyph-name="uni1F0D" unicode="&#x1f0d;" horiz-adv-x="666" 
d="M42 0l282 687h12l288 -687h-76l-62 153h-312l-61 -153h-71zM-17 606q-7 0 -18 7q-15 -15 -15 -32q0 -39 54 -57l-12 -35q-90 29 -90 102q0 39 21.5 64t54.5 25q18 0 30.5 -10t12.5 -28q0 -17 -11 -26.5t-27 -9.5zM96 677h81l-90 -182h-55zM199 215h262l-105 260
q-6 14 -12.5 34t-10 33t-3.5 14l-4 -14q-4 -13 -10.5 -32.5t-12.5 -33.5z" />
    <glyph glyph-name="uni1F0E" unicode="&#x1f0e;" horiz-adv-x="666" 
d="M42 0l282 687h12l288 -687h-76l-62 153h-312l-61 -153h-71zM104 657q25 0 42 26l32 -25q-26 -47 -75 -47q-20 0 -49 11q-31 11 -49 11q-27 0 -42 -26l-34 25q27 48 77 48q17 0 48 -11q34 -12 50 -12zM37 507q-16 0 -27 9.5t-11 26.5q0 18 12.5 28t30.5 10q33 0 54.5 -25
t21.5 -64q0 -73 -90 -102l-12 35q54 18 54 57q0 17 -15 32q-10 -7 -18 -7zM199 215h262l-105 260q-6 14 -12.5 34t-10 33t-3.5 14l-4 -14q-4 -13 -10.5 -32.5t-12.5 -33.5z" />
    <glyph glyph-name="uni1F0F" unicode="&#x1f0f;" horiz-adv-x="666" 
d="M42 0l282 687h12l288 -687h-76l-62 153h-312l-61 -153h-71zM104 658q25 0 42 26l32 -25q-26 -47 -75 -47q-20 0 -49 11q-31 11 -49 11q-27 0 -42 -26l-34 25q27 48 77 48q17 0 48 -11q34 -12 50 -12zM75 508q-7 0 -18 7q-15 -15 -15 -32q0 -39 54 -57l-12 -35
q-90 29 -90 102q0 39 21.5 64t54.5 25q18 0 30.5 -10t12.5 -28q0 -17 -11 -26.5t-27 -9.5zM199 215h262l-105 260q-6 14 -12.5 34t-10 33t-3.5 14l-4 -14q-4 -13 -10.5 -32.5t-12.5 -33.5z" />
    <glyph glyph-name="uni1F10" unicode="&#x1f10;" horiz-adv-x="480" 
d="M236 615q-16 0 -27 9.5t-11 26.5q0 18 12.5 28t30.5 10q33 0 54.5 -25t21.5 -64q0 -73 -90 -102l-12 35q54 18 54 57q0 17 -15 32q-11 -7 -18 -7zM151 219q-34 7 -56 31.5t-22 54.5q0 58 50 88t125 30q113 0 184 -71l-40 -44q-56 56 -140 56q-108 0 -108 -69
q0 -23 22.5 -39.5t46.5 -16.5h92v-47h-92q-33 0 -59 -16t-26 -50q0 -75 115 -75q93 0 159 61l38 -44q-79 -76 -208 -76q-82 0 -129 31.5t-47 88.5q0 42 25.5 69.5t69.5 37.5z" />
    <glyph glyph-name="uni1F11" unicode="&#x1f11;" horiz-adv-x="480" 
d="M277 614q-7 0 -18 7q-15 -15 -15 -32q0 -39 54 -57l-12 -35q-90 29 -90 102q0 39 21.5 64t54.5 25q18 0 30.5 -10t12.5 -28q0 -17 -11 -26.5t-27 -9.5zM151 219q-34 7 -56 31.5t-22 54.5q0 58 50 88t125 30q113 0 184 -71l-40 -44q-56 56 -140 56q-108 0 -108 -69
q0 -23 22.5 -39.5t46.5 -16.5h92v-47h-92q-33 0 -59 -16t-26 -50q0 -75 115 -75q93 0 159 61l38 -44q-79 -76 -208 -76q-82 0 -129 31.5t-47 88.5q0 42 25.5 69.5t69.5 37.5z" />
    <glyph glyph-name="uni1F12" unicode="&#x1f12;" horiz-adv-x="480" 
d="M145 613q-16 0 -27 9.5t-11 26.5q0 18 12.5 28t30.5 10q33 0 54.5 -25t21.5 -64q0 -73 -90 -102l-12 35q54 18 54 57q0 17 -15 32q-11 -7 -18 -7zM384 502h-55l-90 182h81zM151 219q-34 7 -56 31.5t-22 54.5q0 58 50 88t125 30q113 0 184 -71l-40 -44q-56 56 -140 56
q-108 0 -108 -69q0 -23 22.5 -39.5t46.5 -16.5h92v-47h-92q-33 0 -59 -16t-26 -50q0 -75 115 -75q93 0 159 61l38 -44q-79 -76 -208 -76q-82 0 -129 31.5t-47 88.5q0 42 25.5 69.5t69.5 37.5z" />
    <glyph glyph-name="uni1F13" unicode="&#x1f13;" horiz-adv-x="480" 
d="M180 613q-8 0 -18 7q-15 -15 -15 -32q0 -39 54 -57l-12 -35q-90 29 -90 102q0 39 21.5 64t54.5 25q18 0 30.5 -10t12.5 -28q0 -17 -11 -26.5t-27 -9.5zM385 502h-55l-90 182h81zM151 219q-34 7 -56 31.5t-22 54.5q0 58 50 88t125 30q113 0 184 -71l-40 -44
q-56 56 -140 56q-108 0 -108 -69q0 -23 22.5 -39.5t46.5 -16.5h92v-47h-92q-33 0 -59 -16t-26 -50q0 -75 115 -75q93 0 159 61l38 -44q-79 -76 -208 -76q-82 0 -129 31.5t-47 88.5q0 42 25.5 69.5t69.5 37.5z" />
    <glyph glyph-name="uni1F14" unicode="&#x1f14;" horiz-adv-x="480" 
d="M184 613q-16 0 -27 9.5t-11 26.5q0 18 12.5 28t30.5 10q33 0 54.5 -25t21.5 -64q0 -73 -90 -102l-12 35q54 18 54 57q0 17 -15 32q-11 -7 -18 -7zM342 684h81l-90 -182h-55zM151 219q-34 7 -56 31.5t-22 54.5q0 58 50 88t125 30q113 0 184 -71l-40 -44q-56 56 -140 56
q-108 0 -108 -69q0 -23 22.5 -39.5t46.5 -16.5h92v-47h-92q-33 0 -59 -16t-26 -50q0 -75 115 -75q93 0 159 61l38 -44q-79 -76 -208 -76q-82 0 -129 31.5t-47 88.5q0 42 25.5 69.5t69.5 37.5z" />
    <glyph glyph-name="uni1F15" unicode="&#x1f15;" horiz-adv-x="480" 
d="M222 614q-8 0 -18 7q-15 -15 -15 -32q0 -39 54 -57l-12 -35q-90 29 -90 102q0 39 21.5 64t54.5 25q18 0 30.5 -10t12.5 -28q0 -17 -11 -26.5t-27 -9.5zM335 685h81l-90 -182h-55zM151 219q-34 7 -56 31.5t-22 54.5q0 58 50 88t125 30q113 0 184 -71l-40 -44
q-56 56 -140 56q-108 0 -108 -69q0 -23 22.5 -39.5t46.5 -16.5h92v-47h-92q-33 0 -59 -16t-26 -50q0 -75 115 -75q93 0 159 61l38 -44q-79 -76 -208 -76q-82 0 -129 31.5t-47 88.5q0 42 25.5 69.5t69.5 37.5z" />
    <glyph glyph-name="uni1F18" unicode="&#x1f18;" horiz-adv-x="590" 
d="M98 0v680h414v-64h-342v-243h305v-63h-305v-246h356v-64h-428zM-62 606q-16 0 -27 9.5t-11 26.5q0 18 12.5 28t30.5 10q33 0 54.5 -25t21.5 -64q0 -73 -90 -102l-12 35q54 18 54 57q0 17 -15 32q-11 -7 -18 -7z" />
    <glyph glyph-name="uni1F19" unicode="&#x1f19;" horiz-adv-x="590" 
d="M98 0v680h414v-64h-342v-243h305v-63h-305v-246h356v-64h-428zM-19 606q-7 0 -18 7q-15 -15 -15 -32q0 -39 54 -57l-12 -35q-90 29 -90 102q0 39 21.5 64t54.5 25q18 0 30.5 -10t12.5 -28q0 -17 -11 -26.5t-27 -9.5z" />
    <glyph glyph-name="uni1F1A" unicode="&#x1f1a;" horiz-adv-x="590" 
d="M98 0v680h414v-64h-342v-243h305v-63h-305v-246h356v-64h-428zM-219 606q-16 0 -27 9.5t-11 26.5q0 18 12.5 28t30.5 10q33 0 54.5 -25t21.5 -64q0 -73 -90 -102l-12 35q54 18 54 57q0 17 -15 32q-11 -7 -18 -7zM20 495h-55l-90 182h81z" />
    <glyph glyph-name="uni1F1B" unicode="&#x1f1b;" horiz-adv-x="590" 
d="M98 0v680h414v-64h-342v-243h305v-63h-305v-246h356v-64h-428zM-183 606q-7 0 -18 7q-15 -15 -15 -32q0 -39 54 -57l-12 -35q-90 29 -90 102q0 39 21.5 64t54.5 25q18 0 30.5 -10t12.5 -28q0 -17 -11 -26.5t-27 -9.5zM22 495h-55l-90 182h81z" />
    <glyph glyph-name="uni1F1C" unicode="&#x1f1c;" horiz-adv-x="590" 
d="M98 0v680h414v-64h-342v-243h305v-63h-305v-246h356v-64h-428zM-222 606q-16 0 -27 9.5t-11 26.5q0 18 12.5 28t30.5 10q33 0 54.5 -25t21.5 -64q0 -73 -90 -102l-12 35q54 18 54 57q0 17 -15 32q-10 -7 -18 -7zM-64 677h81l-90 -182h-55z" />
    <glyph glyph-name="uni1F1D" unicode="&#x1f1d;" horiz-adv-x="590" 
d="M98 0v680h414v-64h-342v-243h305v-63h-305v-246h356v-64h-428zM-177 606q-7 0 -18 7q-15 -15 -15 -32q0 -39 54 -57l-12 -35q-90 29 -90 102q0 39 21.5 64t54.5 25q18 0 30.5 -10t12.5 -28q0 -17 -11 -26.5t-27 -9.5zM-64 677h81l-90 -182h-55z" />
    <glyph glyph-name="uni1F20" unicode="&#x1f20;" horiz-adv-x="526" 
d="M223 615q-16 0 -27 9.5t-11 26.5q0 18 12.5 28t30.5 10q33 0 54.5 -25t21.5 -64q0 -73 -90 -102l-12 35q54 18 54 57q0 17 -15 32q-11 -7 -18 -7zM79 0v414h70l-2 -84q20 44 59.5 68.5t90.5 24.5q69 0 111.5 -45.5t42.5 -125.5v-464h-70v456q0 115 -103 115
q-58 0 -93.5 -35t-35.5 -96v-228h-70z" />
    <glyph glyph-name="uni1F21" unicode="&#x1f21;" horiz-adv-x="526" 
d="M264 614q-8 0 -18 7q-15 -15 -15 -32q0 -39 54 -57l-12 -35q-90 29 -90 102q0 39 21.5 64t54.5 25q18 0 30.5 -10t12.5 -28q0 -17 -11 -26.5t-27 -9.5zM79 0v414h70l-2 -84q20 44 59.5 68.5t90.5 24.5q69 0 111.5 -45.5t42.5 -125.5v-464h-70v456q0 115 -103 115
q-58 0 -93.5 -35t-35.5 -96v-228h-70z" />
    <glyph glyph-name="uni1F22" unicode="&#x1f22;" horiz-adv-x="526" 
d="M152 613q-16 0 -27 9.5t-11 26.5q0 18 12.5 28t30.5 10q33 0 54.5 -25t21.5 -64q0 -73 -90 -102l-12 35q54 18 54 57q0 17 -15 32q-11 -7 -18 -7zM391 502h-55l-90 182h81zM79 0v414h70l-2 -84q20 44 59.5 68.5t90.5 24.5q69 0 111.5 -45.5t42.5 -125.5v-464h-70v456
q0 115 -103 115q-58 0 -93.5 -35t-35.5 -96v-228h-70z" />
    <glyph glyph-name="uni1F23" unicode="&#x1f23;" horiz-adv-x="526" 
d="M177 613q-7 0 -18 7q-15 -15 -15 -32q0 -39 54 -57l-12 -35q-90 29 -90 102q0 39 21.5 64t54.5 25q18 0 30.5 -10t12.5 -28q0 -17 -11 -26.5t-27 -9.5zM382 502h-55l-90 182h81zM79 0v414h70l-2 -84q20 44 59.5 68.5t90.5 24.5q69 0 111.5 -45.5t42.5 -125.5v-464h-70
v456q0 115 -103 115q-58 0 -93.5 -35t-35.5 -96v-228h-70z" />
    <glyph glyph-name="uni1F24" unicode="&#x1f24;" horiz-adv-x="526" 
d="M171 613q-16 0 -27 9.5t-11 26.5q0 18 12.5 28t30.5 10q33 0 54.5 -25t21.5 -64q0 -73 -90 -102l-12 35q54 18 54 57q0 17 -15 32q-11 -7 -18 -7zM329 684h81l-90 -182h-55zM79 0v414h70l-2 -84q20 44 59.5 68.5t90.5 24.5q69 0 111.5 -45.5t42.5 -125.5v-464h-70v456
q0 115 -103 115q-58 0 -93.5 -35t-35.5 -96v-228h-70z" />
    <glyph glyph-name="uni1F25" unicode="&#x1f25;" horiz-adv-x="526" 
d="M209 614q-8 0 -18 7q-15 -15 -15 -32q0 -39 54 -57l-12 -35q-90 29 -90 102q0 39 21.5 64t54.5 25q18 0 30.5 -10t12.5 -28q0 -17 -11 -26.5t-27 -9.5zM322 685h81l-90 -182h-55zM79 0v414h70l-2 -84q20 44 59.5 68.5t90.5 24.5q69 0 111.5 -45.5t42.5 -125.5v-464h-70
v456q0 115 -103 115q-58 0 -93.5 -35t-35.5 -96v-228h-70z" />
    <glyph glyph-name="uni1F26" unicode="&#x1f26;" horiz-adv-x="526" 
d="M287 765q25 0 42 26l32 -25q-26 -47 -75 -47q-20 0 -49 11q-31 11 -49 11q-27 0 -42 -26l-34 25q27 48 77 48q17 0 48 -11q34 -12 50 -12zM220 615q-16 0 -27 9.5t-11 26.5q0 18 12.5 28t30.5 10q33 0 54.5 -25t21.5 -64q0 -73 -90 -102l-12 35q54 18 54 57q0 17 -15 32
q-11 -7 -18 -7zM79 0v414h70l-2 -84q20 44 59.5 68.5t90.5 24.5q69 0 111.5 -45.5t42.5 -125.5v-464h-70v456q0 115 -103 115q-58 0 -93.5 -35t-35.5 -96v-228h-70z" />
    <glyph glyph-name="uni1F27" unicode="&#x1f27;" horiz-adv-x="526" 
d="M291 764q25 0 42 26l32 -25q-26 -47 -75 -47q-20 0 -49 11q-31 11 -49 11q-27 0 -42 -26l-34 25q27 48 77 48q17 0 48 -11q34 -12 50 -12zM262 614q-8 0 -18 7q-15 -15 -15 -32q0 -39 54 -57l-12 -35q-90 29 -90 102q0 39 21.5 64t54.5 25q18 0 30.5 -10t12.5 -28
q0 -17 -11 -26.5t-27 -9.5zM79 0v414h70l-2 -84q20 44 59.5 68.5t90.5 24.5q69 0 111.5 -45.5t42.5 -125.5v-464h-70v456q0 115 -103 115q-58 0 -93.5 -35t-35.5 -96v-228h-70z" />
    <glyph glyph-name="uni1F28" unicode="&#x1f28;" horiz-adv-x="704" 
d="M98 0v680h72v-317h364v317h72v-680h-72v298h-364v-298h-72zM-62 606q-16 0 -27 9.5t-11 26.5q0 18 12.5 28t30.5 10q33 0 54.5 -25t21.5 -64q0 -73 -90 -102l-12 35q54 18 54 57q0 17 -15 32q-11 -7 -18 -7z" />
    <glyph glyph-name="uni1F29" unicode="&#x1f29;" horiz-adv-x="704" 
d="M98 0v680h72v-317h364v317h72v-680h-72v298h-364v-298h-72zM-19 606q-7 0 -18 7q-15 -15 -15 -32q0 -39 54 -57l-12 -35q-90 29 -90 102q0 39 21.5 64t54.5 25q18 0 30.5 -10t12.5 -28q0 -17 -11 -26.5t-27 -9.5z" />
    <glyph glyph-name="uni1F2A" unicode="&#x1f2a;" horiz-adv-x="704" 
d="M98 0v680h72v-317h364v317h72v-680h-72v298h-364v-298h-72zM-219 606q-16 0 -27 9.5t-11 26.5q0 18 12.5 28t30.5 10q33 0 54.5 -25t21.5 -64q0 -73 -90 -102l-12 35q54 18 54 57q0 17 -15 32q-11 -7 -18 -7zM20 495h-55l-90 182h81z" />
    <glyph glyph-name="uni1F2B" unicode="&#x1f2b;" horiz-adv-x="704" 
d="M98 0v680h72v-317h364v317h72v-680h-72v298h-364v-298h-72zM-183 606q-7 0 -18 7q-15 -15 -15 -32q0 -39 54 -57l-12 -35q-90 29 -90 102q0 39 21.5 64t54.5 25q18 0 30.5 -10t12.5 -28q0 -17 -11 -26.5t-27 -9.5zM22 495h-55l-90 182h81z" />
    <glyph glyph-name="uni1F2C" unicode="&#x1f2c;" horiz-adv-x="704" 
d="M98 0v680h72v-317h364v317h72v-680h-72v298h-364v-298h-72zM-222 606q-16 0 -27 9.5t-11 26.5q0 18 12.5 28t30.5 10q33 0 54.5 -25t21.5 -64q0 -73 -90 -102l-12 35q54 18 54 57q0 17 -15 32q-10 -7 -18 -7zM-64 677h81l-90 -182h-55z" />
    <glyph glyph-name="uni1F2D" unicode="&#x1f2d;" horiz-adv-x="704" 
d="M98 0v680h72v-317h364v317h72v-680h-72v298h-364v-298h-72zM-177 606q-7 0 -18 7q-15 -15 -15 -32q0 -39 54 -57l-12 -35q-90 29 -90 102q0 39 21.5 64t54.5 25q18 0 30.5 -10t12.5 -28q0 -17 -11 -26.5t-27 -9.5zM-64 677h81l-90 -182h-55z" />
    <glyph glyph-name="uni1F2E" unicode="&#x1f2e;" horiz-adv-x="704" 
d="M-56 657q25 0 42 26l32 -25q-26 -47 -75 -47q-20 0 -49 11q-31 11 -49 11q-27 0 -42 -26l-34 25q27 48 77 48q17 0 48 -11q34 -12 50 -12zM98 0v680h72v-317h364v317h72v-680h-72v298h-364v-298h-72zM-123 507q-16 0 -27 9.5t-11 26.5q0 18 12.5 28t30.5 10
q33 0 54.5 -25t21.5 -64q0 -73 -90 -102l-12 35q54 18 54 57q0 17 -15 32q-11 -7 -18 -7z" />
    <glyph glyph-name="uni1F2F" unicode="&#x1f2f;" horiz-adv-x="704" 
d="M-56 658q25 0 42 26l32 -25q-26 -47 -75 -47q-20 0 -49 11q-31 11 -49 11q-27 0 -42 -26l-34 25q27 48 77 48q17 0 48 -11q34 -12 50 -12zM98 0v680h72v-317h364v317h72v-680h-72v298h-364v-298h-72zM-85 508q-7 0 -18 7q-15 -15 -15 -32q0 -39 54 -57l-12 -35
q-90 29 -90 102q0 39 21.5 64t54.5 25q18 0 30.5 -10t12.5 -28q0 -17 -11 -26.5t-27 -9.5z" />
    <glyph glyph-name="uni1F30" unicode="&#x1f30;" horiz-adv-x="253" 
d="M97 615q-16 0 -27 9.5t-11 26.5q0 18 12.5 28t30.5 10q33 0 54.5 -25t21.5 -64q0 -73 -90 -102l-12 35q54 18 54 57q0 17 -15 32q-11 -7 -18 -7zM81 103v311h70v-302q0 -56 44 -56h18v-57q-11 -1 -36 -1q-45 0 -70.5 26.5t-25.5 78.5z" />
    <glyph glyph-name="uni1F31" unicode="&#x1f31;" horiz-adv-x="253" 
d="M138 614q-8 0 -18 7q-15 -15 -15 -32q0 -39 54 -57l-12 -35q-90 29 -90 102q0 39 21.5 64t54.5 25q18 0 30.5 -10t12.5 -28q0 -17 -11 -26.5t-27 -9.5zM81 103v311h70v-302q0 -56 44 -56h18v-57q-11 -1 -36 -1q-45 0 -70.5 26.5t-25.5 78.5z" />
    <glyph glyph-name="uni1F32" unicode="&#x1f32;" horiz-adv-x="253" 
d="M13 613q-16 0 -27 9.5t-11 26.5q0 18 12.5 28t30.5 10q33 0 54.5 -25t21.5 -64q0 -73 -90 -102l-12 35q54 18 54 57q0 17 -15 32q-11 -7 -18 -7zM252 502h-55l-90 182h81zM81 103v311h70v-302q0 -56 44 -56h18v-57q-11 -1 -36 -1q-45 0 -70.5 26.5t-25.5 78.5z" />
    <glyph glyph-name="uni1F33" unicode="&#x1f33;" horiz-adv-x="253" 
d="M51 613q-7 0 -18 7q-15 -15 -15 -32q0 -39 54 -57l-12 -35q-90 29 -90 102q0 39 21.5 64t54.5 25q18 0 30.5 -10t12.5 -28q0 -17 -11 -26.5t-27 -9.5zM256 502h-55l-90 182h81zM81 103v311h70v-302q0 -56 44 -56h18v-57q-11 -1 -36 -1q-45 0 -70.5 26.5t-25.5 78.5z" />
    <glyph glyph-name="uni1F34" unicode="&#x1f34;" horiz-adv-x="253" 
d="M45 613q-16 0 -27 9.5t-11 26.5q0 18 12.5 28t30.5 10q33 0 54.5 -25t21.5 -64q0 -73 -90 -102l-12 35q54 18 54 57q0 17 -15 32q-11 -7 -18 -7zM203 684h81l-90 -182h-55zM81 103v311h70v-302q0 -56 44 -56h18v-57q-11 -1 -36 -1q-45 0 -70.5 26.5t-25.5 78.5z" />
    <glyph glyph-name="uni1F35" unicode="&#x1f35;" horiz-adv-x="253" 
d="M83 614q-7 0 -18 7q-15 -15 -15 -32q0 -39 54 -57l-12 -35q-90 29 -90 102q0 39 21.5 64t54.5 25q18 0 30.5 -10t12.5 -28q0 -17 -11 -26.5t-27 -9.5zM196 685h81l-90 -182h-55zM81 103v311h70v-302q0 -56 44 -56h18v-57q-11 -1 -36 -1q-45 0 -70.5 26.5t-25.5 78.5z" />
    <glyph glyph-name="uni1F36" unicode="&#x1f36;" horiz-adv-x="253" 
d="M171 765q25 0 42 26l32 -25q-26 -47 -75 -47q-20 0 -49 11q-31 11 -49 11q-27 0 -42 -26l-34 25q27 48 77 48q17 0 48 -11q34 -12 50 -12zM104 615q-16 0 -27 9.5t-11 26.5q0 18 12.5 28t30.5 10q33 0 54.5 -25t21.5 -64q0 -73 -90 -102l-12 35q54 18 54 57q0 17 -15 32
q-10 -7 -18 -7zM81 103v311h70v-302q0 -56 44 -56h18v-57q-11 -1 -36 -1q-45 0 -70.5 26.5t-25.5 78.5z" />
    <glyph glyph-name="uni1F37" unicode="&#x1f37;" horiz-adv-x="253" 
d="M165 764q25 0 42 26l32 -25q-26 -47 -75 -47q-20 0 -49 11q-31 11 -49 11q-27 0 -42 -26l-34 25q27 48 77 48q17 0 48 -11q34 -12 50 -12zM136 614q-8 0 -18 7q-15 -15 -15 -32q0 -39 54 -57l-12 -35q-90 29 -90 102q0 39 21.5 64t54.5 25q18 0 30.5 -10t12.5 -28
q0 -17 -11 -26.5t-27 -9.5zM81 103v311h70v-302q0 -56 44 -56h18v-57q-11 -1 -36 -1q-45 0 -70.5 26.5t-25.5 78.5z" />
    <glyph glyph-name="uni1F38" unicode="&#x1f38;" horiz-adv-x="275" 
d="M101 0v680h73v-680h-73zM-62 606q-16 0 -27 9.5t-11 26.5q0 18 12.5 28t30.5 10q33 0 54.5 -25t21.5 -64q0 -73 -90 -102l-12 35q54 18 54 57q0 17 -15 32q-11 -7 -18 -7z" />
    <glyph glyph-name="uni1F39" unicode="&#x1f39;" horiz-adv-x="275" 
d="M101 0v680h73v-680h-73zM-19 606q-7 0 -18 7q-15 -15 -15 -32q0 -39 54 -57l-12 -35q-90 29 -90 102q0 39 21.5 64t54.5 25q18 0 30.5 -10t12.5 -28q0 -17 -11 -26.5t-27 -9.5z" />
    <glyph glyph-name="uni1F3A" unicode="&#x1f3a;" horiz-adv-x="275" 
d="M101 0v680h73v-680h-73zM-219 606q-16 0 -27 9.5t-11 26.5q0 18 12.5 28t30.5 10q33 0 54.5 -25t21.5 -64q0 -73 -90 -102l-12 35q54 18 54 57q0 17 -15 32q-11 -7 -18 -7zM20 495h-55l-90 182h81z" />
    <glyph glyph-name="uni1F3B" unicode="&#x1f3b;" horiz-adv-x="275" 
d="M101 0v680h73v-680h-73zM-183 606q-7 0 -18 7q-15 -15 -15 -32q0 -39 54 -57l-12 -35q-90 29 -90 102q0 39 21.5 64t54.5 25q18 0 30.5 -10t12.5 -28q0 -17 -11 -26.5t-27 -9.5zM22 495h-55l-90 182h81z" />
    <glyph glyph-name="uni1F3C" unicode="&#x1f3c;" horiz-adv-x="275" 
d="M101 0v680h73v-680h-73zM-222 606q-16 0 -27 9.5t-11 26.5q0 18 12.5 28t30.5 10q33 0 54.5 -25t21.5 -64q0 -73 -90 -102l-12 35q54 18 54 57q0 17 -15 32q-10 -7 -18 -7zM-64 677h81l-90 -182h-55z" />
    <glyph glyph-name="uni1F3D" unicode="&#x1f3d;" horiz-adv-x="275" 
d="M101 0v680h73v-680h-73zM-177 606q-7 0 -18 7q-15 -15 -15 -32q0 -39 54 -57l-12 -35q-90 29 -90 102q0 39 21.5 64t54.5 25q18 0 30.5 -10t12.5 -28q0 -17 -11 -26.5t-27 -9.5zM-64 677h81l-90 -182h-55z" />
    <glyph glyph-name="uni1F3E" unicode="&#x1f3e;" horiz-adv-x="275" 
d="M-56 657q25 0 42 26l32 -25q-26 -47 -75 -47q-20 0 -49 11q-31 11 -49 11q-27 0 -42 -26l-34 25q27 48 77 48q17 0 48 -11q34 -12 50 -12zM101 0v680h73v-680h-73zM-123 507q-16 0 -27 9.5t-11 26.5q0 18 12.5 28t30.5 10q33 0 54.5 -25t21.5 -64q0 -73 -90 -102l-12 35
q54 18 54 57q0 17 -15 32q-11 -7 -18 -7z" />
    <glyph glyph-name="uni1F3F" unicode="&#x1f3f;" horiz-adv-x="275" 
d="M-56 658q25 0 42 26l32 -25q-26 -47 -75 -47q-20 0 -49 11q-31 11 -49 11q-27 0 -42 -26l-34 25q27 48 77 48q17 0 48 -11q34 -12 50 -12zM101 0v680h73v-680h-73zM-85 508q-7 0 -18 7q-15 -15 -15 -32q0 -39 54 -57l-12 -35q-90 29 -90 102q0 39 21.5 64t54.5 25
q18 0 30.5 -10t12.5 -28q0 -17 -11 -26.5t-27 -9.5z" />
    <glyph glyph-name="uni1F40" unicode="&#x1f40;" horiz-adv-x="544" 
d="M249 615q-16 0 -27 9.5t-11 26.5q0 18 12.5 28t30.5 10q33 0 54.5 -25t21.5 -64q0 -73 -90 -102l-12 35q54 18 54 57q0 17 -15 32q-11 -7 -18 -7zM273 -8q-93 0 -157 62t-64 153t64 153.5t157 62.5q92 0 155 -62.5t63 -153.5t-63 -153t-155 -62zM273 52q65 0 105.5 44
t40.5 111q0 68 -40.5 111.5t-105.5 43.5q-66 0 -107.5 -44t-41.5 -111t41.5 -111t107.5 -44z" />
    <glyph glyph-name="uni1F41" unicode="&#x1f41;" horiz-adv-x="544" 
d="M275 614q-7 0 -18 7q-15 -15 -15 -32q0 -39 54 -57l-12 -35q-90 29 -90 102q0 39 21.5 64t54.5 25q18 0 30.5 -10t12.5 -28q0 -17 -11 -26.5t-27 -9.5zM273 -8q-93 0 -157 62t-64 153t64 153.5t157 62.5q92 0 155 -62.5t63 -153.5t-63 -153t-155 -62zM273 52
q65 0 105.5 44t40.5 111q0 68 -40.5 111.5t-105.5 43.5q-66 0 -107.5 -44t-41.5 -111t41.5 -111t107.5 -44z" />
    <glyph glyph-name="uni1F42" unicode="&#x1f42;" horiz-adv-x="544" 
d="M162 613q-16 0 -27 9.5t-11 26.5q0 18 12.5 28t30.5 10q33 0 54.5 -25t21.5 -64q0 -73 -90 -102l-12 35q54 18 54 57q0 17 -15 32q-10 -7 -18 -7zM401 502h-55l-90 182h81zM273 -8q-93 0 -157 62t-64 153t64 153.5t157 62.5q92 0 155 -62.5t63 -153.5t-63 -153t-155 -62z
M273 52q65 0 105.5 44t40.5 111q0 68 -40.5 111.5t-105.5 43.5q-66 0 -107.5 -44t-41.5 -111t41.5 -111t107.5 -44z" />
    <glyph glyph-name="uni1F43" unicode="&#x1f43;" horiz-adv-x="544" 
d="M192 613q-8 0 -18 7q-15 -15 -15 -32q0 -39 54 -57l-12 -35q-90 29 -90 102q0 39 21.5 64t54.5 25q18 0 30.5 -10t12.5 -28q0 -17 -11 -26.5t-27 -9.5zM397 502h-55l-90 182h81zM273 -8q-93 0 -157 62t-64 153t64 153.5t157 62.5q92 0 155 -62.5t63 -153.5t-63 -153
t-155 -62zM273 52q65 0 105.5 44t40.5 111q0 68 -40.5 111.5t-105.5 43.5q-66 0 -107.5 -44t-41.5 -111t41.5 -111t107.5 -44z" />
    <glyph glyph-name="uni1F44" unicode="&#x1f44;" horiz-adv-x="544" 
d="M197 613q-16 0 -27 9.5t-11 26.5q0 18 12.5 28t30.5 10q33 0 54.5 -25t21.5 -64q0 -73 -90 -102l-12 35q54 18 54 57q0 17 -15 32q-11 -7 -18 -7zM355 684h81l-90 -182h-55zM273 -8q-93 0 -157 62t-64 153t64 153.5t157 62.5q92 0 155 -62.5t63 -153.5t-63 -153t-155 -62
zM273 52q65 0 105.5 44t40.5 111q0 68 -40.5 111.5t-105.5 43.5q-66 0 -107.5 -44t-41.5 -111t41.5 -111t107.5 -44z" />
    <glyph glyph-name="uni1F45" unicode="&#x1f45;" horiz-adv-x="544" 
d="M235 614q-7 0 -18 7q-15 -15 -15 -32q0 -39 54 -57l-12 -35q-90 29 -90 102q0 39 21.5 64t54.5 25q18 0 30.5 -10t12.5 -28q0 -17 -11 -26.5t-27 -9.5zM348 685h81l-90 -182h-55zM273 -8q-93 0 -157 62t-64 153t64 153.5t157 62.5q92 0 155 -62.5t63 -153.5t-63 -153
t-155 -62zM273 52q65 0 105.5 44t40.5 111q0 68 -40.5 111.5t-105.5 43.5q-66 0 -107.5 -44t-41.5 -111t41.5 -111t107.5 -44z" />
    <glyph glyph-name="uni1F48" unicode="&#x1f48;" horiz-adv-x="817" 
d="M408 -8q-147 0 -248 98t-101 250t101 250t248 98q148 0 249 -98t101 -250t-101 -250t-249 -98zM-49 606q-16 0 -27 9.5t-11 26.5q0 18 12.5 28t30.5 10q33 0 54.5 -25t21.5 -64q0 -73 -90 -102l-12 35q54 18 54 57q0 17 -15 32q-10 -7 -18 -7zM408 57q119 0 197 80.5
t78 202.5t-78 202.5t-197 80.5q-118 0 -196 -80.5t-78 -202.5t78 -202.5t196 -80.5z" />
    <glyph glyph-name="uni1F49" unicode="&#x1f49;" horiz-adv-x="817" 
d="M408 -8q-147 0 -248 98t-101 250t101 250t248 98q148 0 249 -98t101 -250t-101 -250t-249 -98zM-6 606q-8 0 -18 7q-15 -15 -15 -32q0 -39 54 -57l-12 -35q-90 29 -90 102q0 39 21.5 64t54.5 25q18 0 30.5 -10t12.5 -28q0 -17 -11 -26.5t-27 -9.5zM408 57q119 0 197 80.5
t78 202.5t-78 202.5t-197 80.5q-118 0 -196 -80.5t-78 -202.5t78 -202.5t196 -80.5z" />
    <glyph glyph-name="uni1F4A" unicode="&#x1f4a;" horiz-adv-x="817" 
d="M408 -8q-147 0 -248 98t-101 250t101 250t248 98q148 0 249 -98t101 -250t-101 -250t-249 -98zM-206 606q-16 0 -27 9.5t-11 26.5q0 18 12.5 28t30.5 10q33 0 54.5 -25t21.5 -64q0 -73 -90 -102l-12 35q54 18 54 57q0 17 -15 32q-11 -7 -18 -7zM33 495h-55l-90 182h81z
M408 57q119 0 197 80.5t78 202.5t-78 202.5t-197 80.5q-118 0 -196 -80.5t-78 -202.5t78 -202.5t196 -80.5z" />
    <glyph glyph-name="uni1F4B" unicode="&#x1f4b;" horiz-adv-x="817" 
d="M408 -8q-147 0 -248 98t-101 250t101 250t248 98q148 0 249 -98t101 -250t-101 -250t-249 -98zM-170 606q-8 0 -18 7q-15 -15 -15 -32q0 -39 54 -57l-12 -35q-90 29 -90 102q0 39 21.5 64t54.5 25q18 0 30.5 -10t12.5 -28q0 -17 -11 -26.5t-27 -9.5zM35 495h-55l-90 182
h81zM408 57q119 0 197 80.5t78 202.5t-78 202.5t-197 80.5q-118 0 -196 -80.5t-78 -202.5t78 -202.5t196 -80.5z" />
    <glyph glyph-name="uni1F4C" unicode="&#x1f4c;" horiz-adv-x="817" 
d="M408 -8q-147 0 -248 98t-101 250t101 250t248 98q148 0 249 -98t101 -250t-101 -250t-249 -98zM-209 606q-16 0 -27 9.5t-11 26.5q0 18 12.5 28t30.5 10q33 0 54.5 -25t21.5 -64q0 -73 -90 -102l-12 35q54 18 54 57q0 17 -15 32q-11 -7 -18 -7zM-51 677h81l-90 -182h-55z
M408 57q119 0 197 80.5t78 202.5t-78 202.5t-197 80.5q-118 0 -196 -80.5t-78 -202.5t78 -202.5t196 -80.5z" />
    <glyph glyph-name="uni1F4D" unicode="&#x1f4d;" horiz-adv-x="817" 
d="M408 -8q-147 0 -248 98t-101 250t101 250t248 98q148 0 249 -98t101 -250t-101 -250t-249 -98zM-164 606q-8 0 -18 7q-15 -15 -15 -32q0 -39 54 -57l-12 -35q-90 29 -90 102q0 39 21.5 64t54.5 25q18 0 30.5 -10t12.5 -28q0 -17 -11 -26.5t-27 -9.5zM-51 677h81l-90 -182
h-55zM408 57q119 0 197 80.5t78 202.5t-78 202.5t-197 80.5q-118 0 -196 -80.5t-78 -202.5t78 -202.5t196 -80.5z" />
    <glyph glyph-name="uni1F50" unicode="&#x1f50;" horiz-adv-x="496" 
d="M239 615q-16 0 -27 9.5t-11 26.5q0 18 12.5 28t30.5 10q33 0 54.5 -25t21.5 -64q0 -73 -90 -102l-12 35q54 18 54 57q0 17 -15 32q-11 -7 -18 -7zM246 -9q-85 0 -133 50.5t-48 141.5v231h70v-228q0 -133 113 -133t113 133v228h70v-231q0 -90 -49.5 -141t-135.5 -51z" />
    <glyph glyph-name="uni1F51" unicode="&#x1f51;" horiz-adv-x="496" 
d="M256 614q-8 0 -18 7q-15 -15 -15 -32q0 -39 54 -57l-12 -35q-90 29 -90 102q0 39 21.5 64t54.5 25q18 0 30.5 -10t12.5 -28q0 -17 -11 -26.5t-27 -9.5zM246 -9q-85 0 -133 50.5t-48 141.5v231h70v-228q0 -133 113 -133t113 133v228h70v-231q0 -90 -49.5 -141t-135.5 -51z
" />
    <glyph glyph-name="uni1F52" unicode="&#x1f52;" horiz-adv-x="496" 
d="M134 613q-16 0 -27 9.5t-11 26.5q0 18 12.5 28t30.5 10q33 0 54.5 -25t21.5 -64q0 -73 -90 -102l-12 35q54 18 54 57q0 17 -15 32q-10 -7 -18 -7zM373 502h-55l-90 182h81zM246 -9q-85 0 -133 50.5t-48 141.5v231h70v-228q0 -133 113 -133t113 133v228h70v-231
q0 -90 -49.5 -141t-135.5 -51z" />
    <glyph glyph-name="uni1F53" unicode="&#x1f53;" horiz-adv-x="496" 
d="M170 613q-8 0 -18 7q-15 -15 -15 -32q0 -39 54 -57l-12 -35q-90 29 -90 102q0 39 21.5 64t54.5 25q18 0 30.5 -10t12.5 -28q0 -17 -11 -26.5t-27 -9.5zM375 502h-55l-90 182h81zM246 -9q-85 0 -133 50.5t-48 141.5v231h70v-228q0 -133 113 -133t113 133v228h70v-231
q0 -90 -49.5 -141t-135.5 -51z" />
    <glyph glyph-name="uni1F54" unicode="&#x1f54;" horiz-adv-x="496" 
d="M174 613q-16 0 -27 9.5t-11 26.5q0 18 12.5 28t30.5 10q33 0 54.5 -25t21.5 -64q0 -73 -90 -102l-12 35q54 18 54 57q0 17 -15 32q-10 -7 -18 -7zM332 684h81l-90 -182h-55zM246 -9q-85 0 -133 50.5t-48 141.5v231h70v-228q0 -133 113 -133t113 133v228h70v-231
q0 -90 -49.5 -141t-135.5 -51z" />
    <glyph glyph-name="uni1F55" unicode="&#x1f55;" horiz-adv-x="496" 
d="M212 614q-8 0 -18 7q-15 -15 -15 -32q0 -39 54 -57l-12 -35q-90 29 -90 102q0 39 21.5 64t54.5 25q18 0 30.5 -10t12.5 -28q0 -17 -11 -26.5t-27 -9.5zM325 685h81l-90 -182h-55zM246 -9q-85 0 -133 50.5t-48 141.5v231h70v-228q0 -133 113 -133t113 133v228h70v-231
q0 -90 -49.5 -141t-135.5 -51z" />
    <glyph glyph-name="uni1F56" unicode="&#x1f56;" horiz-adv-x="496" 
d="M290 765q25 0 42 26l32 -25q-26 -47 -75 -47q-20 0 -49 11q-31 11 -49 11q-27 0 -42 -26l-34 25q27 48 77 48q17 0 48 -11q34 -12 50 -12zM223 615q-16 0 -27 9.5t-11 26.5q0 18 12.5 28t30.5 10q33 0 54.5 -25t21.5 -64q0 -73 -90 -102l-12 35q54 18 54 57q0 17 -15 32
q-11 -7 -18 -7zM246 -9q-85 0 -133 50.5t-48 141.5v231h70v-228q0 -133 113 -133t113 133v228h70v-231q0 -90 -49.5 -141t-135.5 -51z" />
    </font>
</defs>
</svg>
