<svg width="127" height="88" viewBox="0 0 127 88" fill="none" xmlns="http://www.w3.org/2000/svg">
<path d="M4.008 0.367998L33.192 41.648C33.576 42.224 33.768 42.832 33.768 43.472C33.768 44.112 33.576 44.72 33.192 45.296L4.008 87.344L0.936 85.04L27.912 43.28L0.84 2.384L4.008 0.367998ZM50.508 0.367998L79.692 41.648C80.076 42.224 80.268 42.832 80.268 43.472C80.268 44.112 80.076 44.72 79.692 45.296L50.508 87.344L47.436 85.04L74.412 43.28L47.34 2.384L50.508 0.367998ZM97.008 0.367998L126.192 41.648C126.576 42.224 126.768 42.832 126.768 43.472C126.768 44.112 126.576 44.72 126.192 45.296L97.008 87.344L93.936 85.04L120.912 43.28L93.84 2.384L97.008 0.367998Z" fill="white"/>
</svg>
